<svg width="562" height="562" viewBox="0 0 562 562" fill="none" xmlns="http://www.w3.org/2000/svg">
<path d="M562 429.815H0V430.096H562V429.815Z" fill="#EBEBEB"/>
<path d="M505.687 447.907H468.458V448.188H505.687V447.907Z" fill="#EBEBEB"/>
<path d="M372.289 450.958H362.519V451.239H372.289V450.958Z" fill="#EBEBEB"/>
<path d="M467.334 437.47H445.762V437.751H467.334V437.47Z" fill="#EBEBEB"/>
<path d="M107.514 439.358H58.9648V439.639H107.514V439.358Z" fill="#EBEBEB"/>
<path d="M124.638 439.358H117.52V439.639H124.638V439.358Z" fill="#EBEBEB"/>
<path d="M253.066 444.105H147.774V444.386H253.066V444.105Z" fill="#EBEBEB"/>
<path d="M431.724 218.99C431.724 215.726 434.371 213.079 437.635 213.079C438.225 213.079 438.795 213.168 439.332 213.33C439.245 212.737 439.199 212.131 439.199 211.514C439.199 204.602 444.804 198.997 451.716 198.997C452.504 198.997 453.274 199.074 454.022 199.213C455.945 196.065 459.403 193.955 463.363 193.955C469.356 193.955 474.219 198.771 474.308 204.743C474.368 204.742 474.429 204.734 474.49 204.734C480.058 204.734 484.573 209.248 484.573 214.818C484.573 220.386 480.059 224.901 474.49 224.901H437.459L437.467 224.893C434.281 224.804 431.724 222.199 431.724 218.99Z" fill="#F0F0F0"/>
<path d="M100.543 192.295C100.543 189.031 103.19 186.384 106.454 186.384C107.044 186.384 107.614 186.473 108.151 186.635C108.065 186.042 108.019 185.436 108.019 184.82C108.019 177.908 113.623 172.304 120.536 172.304C121.323 172.304 122.093 172.38 122.841 172.519C124.765 169.371 128.223 167.261 132.184 167.261C138.177 167.261 143.039 172.078 143.128 178.049C143.189 178.048 143.248 178.041 143.31 178.041C148.878 178.041 153.393 182.554 153.393 188.124C153.393 193.692 148.879 198.207 143.31 198.207H106.28L106.288 198.198C103.101 198.108 100.543 195.504 100.543 192.295Z" fill="#F0F0F0"/>
<path d="M252.551 106.753H230.998C231.056 106.236 231.09 105.713 231.09 105.18C231.09 97.3451 224.739 90.9945 216.903 90.9945C216.729 90.9945 216.559 91.0147 216.387 91.0203C214.609 86.2501 210.027 82.8455 204.636 82.8455C197.704 82.8455 192.085 88.4644 192.085 95.3961C192.085 95.4062 192.086 95.4152 192.086 95.4242C185.94 95.7108 181.016 100.615 180.697 106.752H180.127C176.658 106.752 173.82 109.59 173.82 113.059C173.82 116.527 176.658 119.365 180.127 119.365H252.551C256.02 119.365 258.858 116.527 258.858 113.059C258.859 109.591 256.021 106.753 252.551 106.753Z" fill="#F0F0F0"/>
<path d="M412.19 115.758C408.823 110.386 402.865 106.8 396.056 106.8C389.135 106.8 383.093 110.505 379.758 116.028C378.883 115.783 377.963 115.643 377.01 115.643C371.375 115.643 366.806 120.211 366.806 125.846C366.806 125.851 366.808 125.855 366.808 125.86H361.428C358.626 125.86 356.333 128.153 356.333 130.955C356.333 133.757 358.626 136.05 361.428 136.05H379.992C383.372 141.36 389.295 144.892 396.056 144.892C401.387 144.892 406.2 142.696 409.658 139.167C409.979 139.193 410.302 139.216 410.63 139.216C417.139 139.216 422.416 133.939 422.416 127.43C422.416 121.45 417.961 116.524 412.19 115.758Z" fill="#F0F0F0"/>
<path d="M298.787 187.819C295.419 182.447 289.462 178.861 282.653 178.861C275.731 178.861 269.69 182.566 266.355 188.089C265.479 187.844 264.56 187.704 263.607 187.704C257.972 187.704 253.403 192.271 253.403 197.907C253.403 197.912 253.404 197.916 253.404 197.921H248.025C245.223 197.921 242.93 200.214 242.93 203.016C242.93 205.818 245.223 208.111 248.025 208.111H266.589C269.969 213.421 275.892 216.953 282.653 216.953C287.984 216.953 292.797 214.757 296.255 211.228C296.576 211.254 296.899 211.277 297.227 211.277C303.736 211.277 309.013 206 309.013 199.491C309.013 193.511 304.557 188.584 298.787 187.819Z" fill="#F0F0F0"/>
<path d="M63.4365 429.649V375.925H68.0303V350.328H74.7451V261.328H84.452V249.844L105.177 240.179V228.599H108.048V261.328H112.068V350.328H116.087V303.532H126.996V279.415H130.041V350.328H138.328V323.341H143.782V316.451H156.414V292.909H163.332V276.257H171.836V251.997H174.87V276.257H183.374V292.909H190.292V316.451H202.924V323.341H208.38V350.328H214.848V316.451H227.481V243.528H231.5V235.489H258.488V243.528H264.229V296.354H287.198V301.522H295.81V305.541H287.198V326.212H311.313V257.308H316.481V242.666H327.679V190.701H330.836V242.666H338.875V257.308H386.003V252.49H388.874V285.218H392.893V285.793H395.308V318.521H399.327V327.421H407.822V303.306H410.867V360.725H414.256V336.609H417.301V374.219H419.152V347.232H424.608V340.342H437.24V316.799H444.158V300.147H452.661V275.888H455.696V300.147H464.2V316.799H471.117V340.342H483.75V347.232H489.204V373.645H490.183V374.219H492.884V429.649H63.4365Z" fill="#E6E6E6"/>
<path d="M359.709 260.529H356.455V263.783H359.709V260.529Z" fill="#F0F0F0"/>
<path d="M359.709 265.983H356.455V269.237H359.709V265.983Z" fill="#F0F0F0"/>
<path d="M359.709 287.802H356.455V291.056H359.709V287.802Z" fill="#F0F0F0"/>
<path d="M359.709 293.257H356.455V296.511H359.709V293.257Z" fill="#F0F0F0"/>
<path d="M359.709 298.712H356.455V301.966H359.709V298.712Z" fill="#F0F0F0"/>
<path d="M359.709 315.077H356.455V318.331H359.709V315.077Z" fill="#F0F0F0"/>
<path d="M359.709 320.532H356.455V323.786H359.709V320.532Z" fill="#F0F0F0"/>
<path d="M354.542 282.348H351.288V285.602H354.542V282.348Z" fill="#F0F0F0"/>
<path d="M354.542 287.802H351.288V291.056H354.542V287.802Z" fill="#F0F0F0"/>
<path d="M354.542 293.257H351.288V296.511H354.542V293.257Z" fill="#F0F0F0"/>
<path d="M354.542 298.712H351.288V301.966H354.542V298.712Z" fill="#F0F0F0"/>
<path d="M354.542 304.167H351.288V307.421H354.542V304.167Z" fill="#F0F0F0"/>
<path d="M354.542 315.077H351.288V318.331H354.542V315.077Z" fill="#F0F0F0"/>
<path d="M354.542 320.532H351.288V323.786H354.542V320.532Z" fill="#F0F0F0"/>
<path d="M349.373 260.529H346.119V263.783H349.373V260.529Z" fill="#F0F0F0"/>
<path d="M349.373 265.983H346.119V269.237H349.373V265.983Z" fill="#F0F0F0"/>
<path d="M349.373 271.438H346.119V274.692H349.373V271.438Z" fill="#F0F0F0"/>
<path d="M349.373 276.893H346.119V280.147H349.373V276.893Z" fill="#F0F0F0"/>
<path d="M349.373 282.348H346.119V285.602H349.373V282.348Z" fill="#F0F0F0"/>
<path d="M349.373 287.802H346.119V291.056H349.373V287.802Z" fill="#F0F0F0"/>
<path d="M349.373 293.257H346.119V296.511H349.373V293.257Z" fill="#F0F0F0"/>
<path d="M349.373 298.712H346.119V301.966H349.373V298.712Z" fill="#F0F0F0"/>
<path d="M349.373 304.167H346.119V307.421H349.373V304.167Z" fill="#F0F0F0"/>
<path d="M349.373 309.623H346.119V312.877H349.373V309.623Z" fill="#F0F0F0"/>
<path d="M349.373 320.532H346.119V323.786H349.373V320.532Z" fill="#F0F0F0"/>
<path d="M344.206 260.529H340.952V263.783H344.206V260.529Z" fill="#F0F0F0"/>
<path d="M344.206 265.983H340.952V269.237H344.206V265.983Z" fill="#F0F0F0"/>
<path d="M344.206 271.438H340.952V274.692H344.206V271.438Z" fill="#F0F0F0"/>
<path d="M344.206 276.893H340.952V280.147H344.206V276.893Z" fill="#F0F0F0"/>
<path d="M344.206 282.348H340.952V285.602H344.206V282.348Z" fill="#F0F0F0"/>
<path d="M344.206 287.802H340.952V291.056H344.206V287.802Z" fill="#F0F0F0"/>
<path d="M344.206 293.257H340.952V296.511H344.206V293.257Z" fill="#F0F0F0"/>
<path d="M344.206 342.351H340.952V345.605H344.206V342.351Z" fill="#F0F0F0"/>
<path d="M339.038 260.529H335.784V263.783H339.038V260.529Z" fill="#F0F0F0"/>
<path d="M339.038 265.983H335.784V269.237H339.038V265.983Z" fill="#F0F0F0"/>
<path d="M339.038 271.438H335.784V274.692H339.038V271.438Z" fill="#F0F0F0"/>
<path d="M339.038 276.893H335.784V280.147H339.038V276.893Z" fill="#F0F0F0"/>
<path d="M339.038 282.348H335.784V285.602H339.038V282.348Z" fill="#F0F0F0"/>
<path d="M339.038 287.802H335.784V291.056H339.038V287.802Z" fill="#F0F0F0"/>
<path d="M339.038 293.257H335.784V296.511H339.038V293.257Z" fill="#F0F0F0"/>
<path d="M339.038 298.712H335.784V301.966H339.038V298.712Z" fill="#F0F0F0"/>
<path d="M339.038 331.442H335.784V334.696H339.038V331.442Z" fill="#F0F0F0"/>
<path d="M339.038 336.897H335.784V340.151H339.038V336.897Z" fill="#F0F0F0"/>
<path d="M339.038 342.351H335.784V345.605H339.038V342.351Z" fill="#F0F0F0"/>
<path d="M339.038 347.806H335.784V351.06H339.038V347.806Z" fill="#F0F0F0"/>
<path d="M339.038 369.626H335.784V372.88H339.038V369.626Z" fill="#F0F0F0"/>
<path d="M333.869 260.529H330.615V263.783H333.869V260.529Z" fill="#F0F0F0"/>
<path d="M333.869 265.983H330.615V269.237H333.869V265.983Z" fill="#F0F0F0"/>
<path d="M333.869 271.438H330.615V274.692H333.869V271.438Z" fill="#F0F0F0"/>
<path d="M333.869 276.893H330.615V280.147H333.869V276.893Z" fill="#F0F0F0"/>
<path d="M333.869 282.348H330.615V285.602H333.869V282.348Z" fill="#F0F0F0"/>
<path d="M333.869 287.802H330.615V291.056H333.869V287.802Z" fill="#F0F0F0"/>
<path d="M333.869 293.257H330.615V296.511H333.869V293.257Z" fill="#F0F0F0"/>
<path d="M333.869 298.712H330.615V301.966H333.869V298.712Z" fill="#F0F0F0"/>
<path d="M333.869 304.167H330.615V307.421H333.869V304.167Z" fill="#F0F0F0"/>
<path d="M333.869 309.623H330.615V312.877H333.869V309.623Z" fill="#F0F0F0"/>
<path d="M333.869 325.987H330.615V329.241H333.869V325.987Z" fill="#F0F0F0"/>
<path d="M333.869 331.442H330.615V334.696H333.869V331.442Z" fill="#F0F0F0"/>
<path d="M333.869 336.897H330.615V340.151H333.869V336.897Z" fill="#F0F0F0"/>
<path d="M333.869 342.351H330.615V345.605H333.869V342.351Z" fill="#F0F0F0"/>
<path d="M333.869 347.806H330.615V351.06H333.869V347.806Z" fill="#F0F0F0"/>
<path d="M333.869 369.626H330.615V372.88H333.869V369.626Z" fill="#F0F0F0"/>
<path d="M328.702 260.529H325.448V263.783H328.702V260.529Z" fill="#F0F0F0"/>
<path d="M328.702 265.983H325.448V269.237H328.702V265.983Z" fill="#F0F0F0"/>
<path d="M328.702 271.438H325.448V274.692H328.702V271.438Z" fill="#F0F0F0"/>
<path d="M328.702 276.893H325.448V280.147H328.702V276.893Z" fill="#F0F0F0"/>
<path d="M328.702 282.348H325.448V285.602H328.702V282.348Z" fill="#F0F0F0"/>
<path d="M328.702 287.802H325.448V291.056H328.702V287.802Z" fill="#F0F0F0"/>
<path d="M328.702 293.257H325.448V296.511H328.702V293.257Z" fill="#F0F0F0"/>
<path d="M328.702 298.712H325.448V301.966H328.702V298.712Z" fill="#F0F0F0"/>
<path d="M328.702 304.167H325.448V307.421H328.702V304.167Z" fill="#F0F0F0"/>
<path d="M328.702 309.623H325.448V312.877H328.702V309.623Z" fill="#F0F0F0"/>
<path d="M328.702 315.077H325.448V318.331H328.702V315.077Z" fill="#F0F0F0"/>
<path d="M328.702 320.532H325.448V323.786H328.702V320.532Z" fill="#F0F0F0"/>
<path d="M328.702 325.987H325.448V329.241H328.702V325.987Z" fill="#F0F0F0"/>
<path d="M328.702 331.442H325.448V334.696H328.702V331.442Z" fill="#F0F0F0"/>
<path d="M328.702 336.897H325.448V340.151H328.702V336.897Z" fill="#F0F0F0"/>
<path d="M328.702 342.351H325.448V345.605H328.702V342.351Z" fill="#F0F0F0"/>
<path d="M328.702 347.806H325.448V351.06H328.702V347.806Z" fill="#F0F0F0"/>
<path d="M328.702 353.261H325.448V356.515H328.702V353.261Z" fill="#F0F0F0"/>
<path d="M323.535 260.529H320.281V263.783H323.535V260.529Z" fill="#F0F0F0"/>
<path d="M323.535 265.983H320.281V269.237H323.535V265.983Z" fill="#F0F0F0"/>
<path d="M323.535 271.438H320.281V274.692H323.535V271.438Z" fill="#F0F0F0"/>
<path d="M323.535 276.893H320.281V280.147H323.535V276.893Z" fill="#F0F0F0"/>
<path d="M323.535 282.348H320.281V285.602H323.535V282.348Z" fill="#F0F0F0"/>
<path d="M323.535 287.802H320.281V291.056H323.535V287.802Z" fill="#F0F0F0"/>
<path d="M323.535 293.257H320.281V296.511H323.535V293.257Z" fill="#F0F0F0"/>
<path d="M323.535 298.712H320.281V301.966H323.535V298.712Z" fill="#F0F0F0"/>
<path d="M323.535 304.167H320.281V307.421H323.535V304.167Z" fill="#F0F0F0"/>
<path d="M323.535 309.623H320.281V312.877H323.535V309.623Z" fill="#F0F0F0"/>
<path d="M323.535 325.987H320.281V329.241H323.535V325.987Z" fill="#F0F0F0"/>
<path d="M323.535 331.442H320.281V334.696H323.535V331.442Z" fill="#F0F0F0"/>
<path d="M323.535 336.897H320.281V340.151H323.535V336.897Z" fill="#F0F0F0"/>
<path d="M323.535 342.351H320.281V345.605H323.535V342.351Z" fill="#F0F0F0"/>
<path d="M318.365 260.529H315.111V263.783H318.365V260.529Z" fill="#F0F0F0"/>
<path d="M318.365 265.983H315.111V269.237H318.365V265.983Z" fill="#F0F0F0"/>
<path d="M318.365 271.438H315.111V274.692H318.365V271.438Z" fill="#F0F0F0"/>
<path d="M318.365 276.893H315.111V280.147H318.365V276.893Z" fill="#F0F0F0"/>
<path d="M318.365 282.348H315.111V285.602H318.365V282.348Z" fill="#F0F0F0"/>
<path d="M318.365 287.802H315.111V291.056H318.365V287.802Z" fill="#F0F0F0"/>
<path d="M318.365 293.257H315.111V296.511H318.365V293.257Z" fill="#F0F0F0"/>
<path d="M318.365 298.712H315.111V301.966H318.365V298.712Z" fill="#F0F0F0"/>
<path d="M318.365 304.167H315.111V307.421H318.365V304.167Z" fill="#F0F0F0"/>
<path d="M318.365 309.623H315.111V312.877H318.365V309.623Z" fill="#F0F0F0"/>
<path d="M318.365 325.987H315.111V329.241H318.365V325.987Z" fill="#F0F0F0"/>
<path d="M318.365 331.442H315.111V334.696H318.365V331.442Z" fill="#F0F0F0"/>
<path d="M318.365 336.897H315.111V340.151H318.365V336.897Z" fill="#F0F0F0"/>
<path d="M260.182 246.365H256.928V249.619H260.182V246.365Z" fill="#F0F0F0"/>
<path d="M260.182 251.82H256.928V255.074H260.182V251.82Z" fill="#F0F0F0"/>
<path d="M260.182 257.275H256.928V260.529H260.182V257.275Z" fill="#F0F0F0"/>
<path d="M260.182 262.729H256.928V265.983H260.182V262.729Z" fill="#F0F0F0"/>
<path d="M260.182 268.184H256.928V271.438H260.182V268.184Z" fill="#F0F0F0"/>
<path d="M260.182 273.639H256.928V276.893H260.182V273.639Z" fill="#F0F0F0"/>
<path d="M260.182 279.095H256.928V282.349H260.182V279.095Z" fill="#F0F0F0"/>
<path d="M260.182 284.548H256.928V287.802H260.182V284.548Z" fill="#F0F0F0"/>
<path d="M260.182 300.914H256.928V304.168H260.182V300.914Z" fill="#F0F0F0"/>
<path d="M260.182 306.369H256.928V309.623H260.182V306.369Z" fill="#F0F0F0"/>
<path d="M255.013 246.365H251.759V249.619H255.013V246.365Z" fill="#F0F0F0"/>
<path d="M255.013 251.82H251.759V255.074H255.013V251.82Z" fill="#F0F0F0"/>
<path d="M255.013 257.275H251.759V260.529H255.013V257.275Z" fill="#F0F0F0"/>
<path d="M255.013 262.729H251.759V265.983H255.013V262.729Z" fill="#F0F0F0"/>
<path d="M255.013 268.184H251.759V271.438H255.013V268.184Z" fill="#F0F0F0"/>
<path d="M255.013 273.639H251.759V276.893H255.013V273.639Z" fill="#F0F0F0"/>
<path d="M255.013 279.095H251.759V282.349H255.013V279.095Z" fill="#F0F0F0"/>
<path d="M255.013 284.548H251.759V287.802H255.013V284.548Z" fill="#F0F0F0"/>
<path d="M255.013 306.369H251.759V309.623H255.013V306.369Z" fill="#F0F0F0"/>
<path d="M249.845 246.365H246.591V249.619H249.845V246.365Z" fill="#F0F0F0"/>
<path d="M249.845 251.82H246.591V255.074H249.845V251.82Z" fill="#F0F0F0"/>
<path d="M249.845 257.275H246.591V260.529H249.845V257.275Z" fill="#F0F0F0"/>
<path d="M249.845 262.729H246.591V265.983H249.845V262.729Z" fill="#F0F0F0"/>
<path d="M249.845 268.184H246.591V271.438H249.845V268.184Z" fill="#F0F0F0"/>
<path d="M249.845 273.639H246.591V276.893H249.845V273.639Z" fill="#F0F0F0"/>
<path d="M249.845 279.095H246.591V282.349H249.845V279.095Z" fill="#F0F0F0"/>
<path d="M249.845 284.548H246.591V287.802H249.845V284.548Z" fill="#F0F0F0"/>
<path d="M244.679 246.365H241.425V249.619H244.679V246.365Z" fill="#F0F0F0"/>
<path d="M244.679 251.82H241.425V255.074H244.679V251.82Z" fill="#F0F0F0"/>
<path d="M244.679 257.275H241.425V260.529H244.679V257.275Z" fill="#F0F0F0"/>
<path d="M244.679 262.729H241.425V265.983H244.679V262.729Z" fill="#F0F0F0"/>
<path d="M244.679 268.184H241.425V271.438H244.679V268.184Z" fill="#F0F0F0"/>
<path d="M244.679 273.639H241.425V276.893H244.679V273.639Z" fill="#F0F0F0"/>
<path d="M244.679 284.548H241.425V287.802H244.679V284.548Z" fill="#F0F0F0"/>
<path d="M244.679 290.003H241.425V293.257H244.679V290.003Z" fill="#F0F0F0"/>
<path d="M244.679 306.369H241.425V309.623H244.679V306.369Z" fill="#F0F0F0"/>
<path d="M244.679 311.823H241.425V315.077H244.679V311.823Z" fill="#F0F0F0"/>
<path d="M244.679 317.278H241.425V320.532H244.679V317.278Z" fill="#F0F0F0"/>
<path d="M244.679 322.733H241.425V325.987H244.679V322.733Z" fill="#F0F0F0"/>
<path d="M244.679 328.188H241.425V331.442H244.679V328.188Z" fill="#F0F0F0"/>
<path d="M244.679 333.642H241.425V336.896H244.679V333.642Z" fill="#F0F0F0"/>
<path d="M244.679 339.097H241.425V342.351H244.679V339.097Z" fill="#F0F0F0"/>
<path d="M239.51 246.365H236.256V249.619H239.51V246.365Z" fill="#F0F0F0"/>
<path d="M239.51 251.82H236.256V255.074H239.51V251.82Z" fill="#F0F0F0"/>
<path d="M239.51 257.275H236.256V260.529H239.51V257.275Z" fill="#F0F0F0"/>
<path d="M239.51 262.729H236.256V265.983H239.51V262.729Z" fill="#F0F0F0"/>
<path d="M239.51 268.184H236.256V271.438H239.51V268.184Z" fill="#F0F0F0"/>
<path d="M239.51 273.639H236.256V276.893H239.51V273.639Z" fill="#F0F0F0"/>
<path d="M239.51 290.003H236.256V293.257H239.51V290.003Z" fill="#F0F0F0"/>
<path d="M239.51 295.458H236.256V298.712H239.51V295.458Z" fill="#F0F0F0"/>
<path d="M239.51 300.914H236.256V304.168H239.51V300.914Z" fill="#F0F0F0"/>
<path d="M239.51 306.369H236.256V309.623H239.51V306.369Z" fill="#F0F0F0"/>
<path d="M239.51 311.823H236.256V315.077H239.51V311.823Z" fill="#F0F0F0"/>
<path d="M239.51 317.278H236.256V320.532H239.51V317.278Z" fill="#F0F0F0"/>
<path d="M239.51 322.733H236.256V325.987H239.51V322.733Z" fill="#F0F0F0"/>
<path d="M239.51 328.188H236.256V331.442H239.51V328.188Z" fill="#F0F0F0"/>
<path d="M239.51 333.642H236.256V336.896H239.51V333.642Z" fill="#F0F0F0"/>
<path d="M239.51 339.097H236.256V342.351H239.51V339.097Z" fill="#F0F0F0"/>
<path d="M239.51 344.552H236.256V347.806H239.51V344.552Z" fill="#F0F0F0"/>
<path d="M239.51 355.463H236.256V358.717H239.51V355.463Z" fill="#F0F0F0"/>
<path d="M234.342 246.365H231.088V249.619H234.342V246.365Z" fill="#F0F0F0"/>
<path d="M234.342 251.82H231.088V255.074H234.342V251.82Z" fill="#F0F0F0"/>
<path d="M234.342 257.275H231.088V260.529H234.342V257.275Z" fill="#F0F0F0"/>
<path d="M234.342 262.729H231.088V265.983H234.342V262.729Z" fill="#F0F0F0"/>
<path d="M234.342 268.184H231.088V271.438H234.342V268.184Z" fill="#F0F0F0"/>
<path d="M234.342 273.639H231.088V276.893H234.342V273.639Z" fill="#F0F0F0"/>
<path d="M234.342 290.003H231.088V293.257H234.342V290.003Z" fill="#F0F0F0"/>
<path d="M234.342 295.458H231.088V298.712H234.342V295.458Z" fill="#F0F0F0"/>
<path d="M234.342 300.914H231.088V304.168H234.342V300.914Z" fill="#F0F0F0"/>
<path d="M234.342 306.369H231.088V309.623H234.342V306.369Z" fill="#F0F0F0"/>
<path d="M234.342 322.733H231.088V325.987H234.342V322.733Z" fill="#F0F0F0"/>
<path d="M234.342 328.188H231.088V331.442H234.342V328.188Z" fill="#F0F0F0"/>
<path d="M234.342 333.642H231.088V336.896H234.342V333.642Z" fill="#F0F0F0"/>
<path d="M234.342 339.097H231.088V342.351H234.342V339.097Z" fill="#F0F0F0"/>
<path d="M234.342 344.552H231.088V347.806H234.342V344.552Z" fill="#F0F0F0"/>
<path d="M234.342 355.463H231.088V358.717H234.342V355.463Z" fill="#F0F0F0"/>
<path d="M234.342 360.917H231.088V364.171H234.342V360.917Z" fill="#F0F0F0"/>
<path d="M187.448 297.086H184.194V300.339H187.448V297.086Z" fill="#F0F0F0"/>
<path d="M187.448 302.54H184.194V305.794H187.448V302.54Z" fill="#F0F0F0"/>
<path d="M187.448 307.995H184.194V311.249H187.448V307.995Z" fill="#F0F0F0"/>
<path d="M187.448 313.45H184.194V316.704H187.448V313.45Z" fill="#F0F0F0"/>
<path d="M187.448 318.906H184.194V322.16H187.448V318.906Z" fill="#F0F0F0"/>
<path d="M187.448 324.361H184.194V327.615H187.448V324.361Z" fill="#F0F0F0"/>
<path d="M187.448 329.815H184.194V333.069H187.448V329.815Z" fill="#F0F0F0"/>
<path d="M187.448 346.18H184.194V349.434H187.448V346.18Z" fill="#F0F0F0"/>
<path d="M187.448 351.634H184.194V354.888H187.448V351.634Z" fill="#F0F0F0"/>
<path d="M187.448 357.089H184.194V360.343H187.448V357.089Z" fill="#F0F0F0"/>
<path d="M182.281 297.086H179.027V300.339H182.281V297.086Z" fill="#F0F0F0"/>
<path d="M182.281 302.54H179.027V305.794H182.281V302.54Z" fill="#F0F0F0"/>
<path d="M182.281 307.995H179.027V311.249H182.281V307.995Z" fill="#F0F0F0"/>
<path d="M182.281 313.45H179.027V316.704H182.281V313.45Z" fill="#F0F0F0"/>
<path d="M182.281 318.906H179.027V322.16H182.281V318.906Z" fill="#F0F0F0"/>
<path d="M182.281 324.361H179.027V327.615H182.281V324.361Z" fill="#F0F0F0"/>
<path d="M182.281 329.815H179.027V333.069H182.281V329.815Z" fill="#F0F0F0"/>
<path d="M177.115 297.086H173.861V300.339H177.115V297.086Z" fill="#F0F0F0"/>
<path d="M177.115 302.54H173.861V305.794H177.115V302.54Z" fill="#F0F0F0"/>
<path d="M177.115 307.995H173.861V311.249H177.115V307.995Z" fill="#F0F0F0"/>
<path d="M177.115 313.45H173.861V316.704H177.115V313.45Z" fill="#F0F0F0"/>
<path d="M177.115 318.906H173.861V322.16H177.115V318.906Z" fill="#F0F0F0"/>
<path d="M177.115 324.361H173.861V327.615H177.115V324.361Z" fill="#F0F0F0"/>
<path d="M177.115 329.815H173.861V333.069H177.115V329.815Z" fill="#F0F0F0"/>
<path d="M171.943 297.086H168.689V300.339H171.943V297.086Z" fill="#F0F0F0"/>
<path d="M171.943 302.54H168.689V305.794H171.943V302.54Z" fill="#F0F0F0"/>
<path d="M171.943 307.995H168.689V311.249H171.943V307.995Z" fill="#F0F0F0"/>
<path d="M171.943 313.45H168.689V316.704H171.943V313.45Z" fill="#F0F0F0"/>
<path d="M171.943 318.906H168.689V322.16H171.943V318.906Z" fill="#F0F0F0"/>
<path d="M171.943 324.361H168.689V327.615H171.943V324.361Z" fill="#F0F0F0"/>
<path d="M171.943 329.815H168.689V333.069H171.943V329.815Z" fill="#F0F0F0"/>
<path d="M171.943 335.27H168.689V338.524H171.943V335.27Z" fill="#F0F0F0"/>
<path d="M171.943 340.725H168.689V343.979H171.943V340.725Z" fill="#F0F0F0"/>
<path d="M171.943 346.18H168.689V349.434H171.943V346.18Z" fill="#F0F0F0"/>
<path d="M171.943 351.634H168.689V354.888H171.943V351.634Z" fill="#F0F0F0"/>
<path d="M166.778 297.086H163.524V300.339H166.778V297.086Z" fill="#F0F0F0"/>
<path d="M166.778 302.54H163.524V305.794H166.778V302.54Z" fill="#F0F0F0"/>
<path d="M166.778 307.995H163.524V311.249H166.778V307.995Z" fill="#F0F0F0"/>
<path d="M166.778 313.45H163.524V316.704H166.778V313.45Z" fill="#F0F0F0"/>
<path d="M166.778 318.906H163.524V322.16H166.778V318.906Z" fill="#F0F0F0"/>
<path d="M166.778 324.361H163.524V327.615H166.778V324.361Z" fill="#F0F0F0"/>
<path d="M166.778 329.815H163.524V333.069H166.778V329.815Z" fill="#F0F0F0"/>
<path d="M166.778 335.27H163.524V338.524H166.778V335.27Z" fill="#F0F0F0"/>
<path d="M166.778 340.725H163.524V343.979H166.778V340.725Z" fill="#F0F0F0"/>
<path d="M166.778 346.18H163.524V349.434H166.778V346.18Z" fill="#F0F0F0"/>
<path d="M166.778 351.634H163.524V354.888H166.778V351.634Z" fill="#F0F0F0"/>
<path d="M166.778 357.089H163.524V360.343H166.778V357.089Z" fill="#F0F0F0"/>
<path d="M166.778 373.453H163.524V376.707H166.778V373.453Z" fill="#F0F0F0"/>
<path d="M166.778 378.908H163.524V382.162H166.778V378.908Z" fill="#F0F0F0"/>
<path d="M161.611 297.086H158.357V300.339H161.611V297.086Z" fill="#F0F0F0"/>
<path d="M161.611 302.54H158.357V305.794H161.611V302.54Z" fill="#F0F0F0"/>
<path d="M161.611 307.995H158.357V311.249H161.611V307.995Z" fill="#F0F0F0"/>
<path d="M161.611 324.361H158.357V327.615H161.611V324.361Z" fill="#F0F0F0"/>
<path d="M161.611 329.815H158.357V333.069H161.611V329.815Z" fill="#F0F0F0"/>
<path d="M161.611 335.27H158.357V338.524H161.611V335.27Z" fill="#F0F0F0"/>
<path d="M161.611 340.725H158.357V343.979H161.611V340.725Z" fill="#F0F0F0"/>
<path d="M161.611 346.18H158.357V349.434H161.611V346.18Z" fill="#F0F0F0"/>
<path d="M161.611 351.634H158.357V354.888H161.611V351.634Z" fill="#F0F0F0"/>
<path d="M161.611 357.089H158.357V360.343H161.611V357.089Z" fill="#F0F0F0"/>
<path d="M161.611 373.453H158.357V376.707H161.611V373.453Z" fill="#F0F0F0"/>
<path d="M161.611 378.908H158.357V382.162H161.611V378.908Z" fill="#F0F0F0"/>
<path d="M161.611 384.363H158.357V387.617H161.611V384.363Z" fill="#F0F0F0"/>
<path d="M107.446 264.357H104.192V267.611H107.446V264.357Z" fill="#F0F0F0"/>
<path d="M107.446 269.812H104.192V273.066H107.446V269.812Z" fill="#F0F0F0"/>
<path d="M107.446 275.266H104.192V278.52H107.446V275.266Z" fill="#F0F0F0"/>
<path d="M107.446 280.721H104.192V283.975H107.446V280.721Z" fill="#F0F0F0"/>
<path d="M107.446 286.176H104.192V289.43H107.446V286.176Z" fill="#F0F0F0"/>
<path d="M107.446 291.631H104.192V294.885H107.446V291.631Z" fill="#F0F0F0"/>
<path d="M107.446 297.086H104.192V300.339H107.446V297.086Z" fill="#F0F0F0"/>
<path d="M107.446 302.54H104.192V305.794H107.446V302.54Z" fill="#F0F0F0"/>
<path d="M107.446 307.995H104.192V311.249H107.446V307.995Z" fill="#F0F0F0"/>
<path d="M107.446 313.45H104.192V316.704H107.446V313.45Z" fill="#F0F0F0"/>
<path d="M107.446 318.906H104.192V322.16H107.446V318.906Z" fill="#F0F0F0"/>
<path d="M107.446 324.361H104.192V327.615H107.446V324.361Z" fill="#F0F0F0"/>
<path d="M107.446 329.815H104.192V333.069H107.446V329.815Z" fill="#F0F0F0"/>
<path d="M107.446 335.27H104.192V338.524H107.446V335.27Z" fill="#F0F0F0"/>
<path d="M107.446 340.725H104.192V343.979H107.446V340.725Z" fill="#F0F0F0"/>
<path d="M107.446 346.18H104.192V349.434H107.446V346.18Z" fill="#F0F0F0"/>
<path d="M107.446 351.634H104.192V354.888H107.446V351.634Z" fill="#F0F0F0"/>
<path d="M107.446 357.089H104.192V360.343H107.446V357.089Z" fill="#F0F0F0"/>
<path d="M107.446 362.544H104.192V365.798H107.446V362.544Z" fill="#F0F0F0"/>
<path d="M107.446 367.999H104.192V371.253H107.446V367.999Z" fill="#F0F0F0"/>
<path d="M107.446 373.453H104.192V376.707H107.446V373.453Z" fill="#F0F0F0"/>
<path d="M107.446 378.908H104.192V382.162H107.446V378.908Z" fill="#F0F0F0"/>
<path d="M107.446 384.363H104.192V387.617H107.446V384.363Z" fill="#F0F0F0"/>
<path d="M102.276 264.357H99.0225V267.611H102.276V264.357Z" fill="#F0F0F0"/>
<path d="M102.276 269.812H99.0225V273.066H102.276V269.812Z" fill="#F0F0F0"/>
<path d="M102.276 275.266H99.0225V278.52H102.276V275.266Z" fill="#F0F0F0"/>
<path d="M102.276 280.721H99.0225V283.975H102.276V280.721Z" fill="#F0F0F0"/>
<path d="M102.276 286.176H99.0225V289.43H102.276V286.176Z" fill="#F0F0F0"/>
<path d="M102.276 291.631H99.0225V294.885H102.276V291.631Z" fill="#F0F0F0"/>
<path d="M102.276 297.086H99.0225V300.339H102.276V297.086Z" fill="#F0F0F0"/>
<path d="M102.276 302.54H99.0225V305.794H102.276V302.54Z" fill="#F0F0F0"/>
<path d="M102.276 307.995H99.0225V311.249H102.276V307.995Z" fill="#F0F0F0"/>
<path d="M102.276 313.45H99.0225V316.704H102.276V313.45Z" fill="#F0F0F0"/>
<path d="M102.276 318.906H99.0225V322.16H102.276V318.906Z" fill="#F0F0F0"/>
<path d="M102.276 324.361H99.0225V327.615H102.276V324.361Z" fill="#F0F0F0"/>
<path d="M102.276 329.815H99.0225V333.069H102.276V329.815Z" fill="#F0F0F0"/>
<path d="M102.276 335.27H99.0225V338.524H102.276V335.27Z" fill="#F0F0F0"/>
<path d="M102.276 340.725H99.0225V343.979H102.276V340.725Z" fill="#F0F0F0"/>
<path d="M102.276 346.18H99.0225V349.434H102.276V346.18Z" fill="#F0F0F0"/>
<path d="M102.276 351.634H99.0225V354.888H102.276V351.634Z" fill="#F0F0F0"/>
<path d="M102.276 357.089H99.0225V360.343H102.276V357.089Z" fill="#F0F0F0"/>
<path d="M102.276 362.544H99.0225V365.798H102.276V362.544Z" fill="#F0F0F0"/>
<path d="M97.1095 264.357H93.8555V267.611H97.1095V264.357Z" fill="#F0F0F0"/>
<path d="M97.1095 269.812H93.8555V273.066H97.1095V269.812Z" fill="#F0F0F0"/>
<path d="M97.1095 275.266H93.8555V278.52H97.1095V275.266Z" fill="#F0F0F0"/>
<path d="M97.1095 280.721H93.8555V283.975H97.1095V280.721Z" fill="#F0F0F0"/>
<path d="M97.1095 286.176H93.8555V289.43H97.1095V286.176Z" fill="#F0F0F0"/>
<path d="M97.1095 291.631H93.8555V294.885H97.1095V291.631Z" fill="#F0F0F0"/>
<path d="M97.1095 297.086H93.8555V300.339H97.1095V297.086Z" fill="#F0F0F0"/>
<path d="M97.1095 302.54H93.8555V305.794H97.1095V302.54Z" fill="#F0F0F0"/>
<path d="M97.1095 307.995H93.8555V311.249H97.1095V307.995Z" fill="#F0F0F0"/>
<path d="M97.1095 313.45H93.8555V316.704H97.1095V313.45Z" fill="#F0F0F0"/>
<path d="M97.1095 318.906H93.8555V322.16H97.1095V318.906Z" fill="#F0F0F0"/>
<path d="M97.1095 324.361H93.8555V327.615H97.1095V324.361Z" fill="#F0F0F0"/>
<path d="M97.1095 329.815H93.8555V333.069H97.1095V329.815Z" fill="#F0F0F0"/>
<path d="M97.1095 335.27H93.8555V338.524H97.1095V335.27Z" fill="#F0F0F0"/>
<path d="M97.1095 340.725H93.8555V343.979H97.1095V340.725Z" fill="#F0F0F0"/>
<path d="M97.1095 346.18H93.8555V349.434H97.1095V346.18Z" fill="#F0F0F0"/>
<path d="M97.1095 351.634H93.8555V354.888H97.1095V351.634Z" fill="#F0F0F0"/>
<path d="M97.1095 357.089H93.8555V360.343H97.1095V357.089Z" fill="#F0F0F0"/>
<path d="M97.1095 362.544H93.8555V365.798H97.1095V362.544Z" fill="#F0F0F0"/>
<path d="M91.9425 264.357H88.6885V267.611H91.9425V264.357Z" fill="#F0F0F0"/>
<path d="M91.9425 269.812H88.6885V273.066H91.9425V269.812Z" fill="#F0F0F0"/>
<path d="M91.9425 275.266H88.6885V278.52H91.9425V275.266Z" fill="#F0F0F0"/>
<path d="M91.9425 280.721H88.6885V283.975H91.9425V280.721Z" fill="#F0F0F0"/>
<path d="M91.9425 286.176H88.6885V289.43H91.9425V286.176Z" fill="#F0F0F0"/>
<path d="M91.9425 291.631H88.6885V294.885H91.9425V291.631Z" fill="#F0F0F0"/>
<path d="M91.9425 297.086H88.6885V300.339H91.9425V297.086Z" fill="#F0F0F0"/>
<path d="M91.9425 302.54H88.6885V305.794H91.9425V302.54Z" fill="#F0F0F0"/>
<path d="M91.9425 307.995H88.6885V311.249H91.9425V307.995Z" fill="#F0F0F0"/>
<path d="M91.9425 313.45H88.6885V316.704H91.9425V313.45Z" fill="#F0F0F0"/>
<path d="M91.9425 318.906H88.6885V322.16H91.9425V318.906Z" fill="#F0F0F0"/>
<path d="M91.9425 324.361H88.6885V327.615H91.9425V324.361Z" fill="#F0F0F0"/>
<path d="M91.9425 329.815H88.6885V333.069H91.9425V329.815Z" fill="#F0F0F0"/>
<path d="M91.9425 335.27H88.6885V338.524H91.9425V335.27Z" fill="#F0F0F0"/>
<path d="M91.9425 340.725H88.6885V343.979H91.9425V340.725Z" fill="#F0F0F0"/>
<path d="M86.7725 264.357H83.5186V267.611H86.7725V264.357Z" fill="#F0F0F0"/>
<path d="M86.7725 269.812H83.5186V273.066H86.7725V269.812Z" fill="#F0F0F0"/>
<path d="M86.7725 275.266H83.5186V278.52H86.7725V275.266Z" fill="#F0F0F0"/>
<path d="M86.7725 280.721H83.5186V283.975H86.7725V280.721Z" fill="#F0F0F0"/>
<path d="M86.7725 286.176H83.5186V289.43H86.7725V286.176Z" fill="#F0F0F0"/>
<path d="M86.7725 291.631H83.5186V294.885H86.7725V291.631Z" fill="#F0F0F0"/>
<path d="M86.7725 297.086H83.5186V300.339H86.7725V297.086Z" fill="#F0F0F0"/>
<path d="M86.7725 302.54H83.5186V305.794H86.7725V302.54Z" fill="#F0F0F0"/>
<path d="M86.7725 307.995H83.5186V311.249H86.7725V307.995Z" fill="#F0F0F0"/>
<path d="M86.7725 313.45H83.5186V316.704H86.7725V313.45Z" fill="#F0F0F0"/>
<path d="M86.7725 318.906H83.5186V322.16H86.7725V318.906Z" fill="#F0F0F0"/>
<path d="M86.7725 324.361H83.5186V327.615H86.7725V324.361Z" fill="#F0F0F0"/>
<path d="M86.7725 329.815H83.5186V333.069H86.7725V329.815Z" fill="#F0F0F0"/>
<path d="M81.6055 264.357H78.3516V267.611H81.6055V264.357Z" fill="#F0F0F0"/>
<path d="M81.6055 269.812H78.3516V273.066H81.6055V269.812Z" fill="#F0F0F0"/>
<path d="M81.6055 275.266H78.3516V278.52H81.6055V275.266Z" fill="#F0F0F0"/>
<path d="M81.6055 280.721H78.3516V283.975H81.6055V280.721Z" fill="#F0F0F0"/>
<path d="M81.6055 286.176H78.3516V289.43H81.6055V286.176Z" fill="#F0F0F0"/>
<path d="M81.6055 291.631H78.3516V294.885H81.6055V291.631Z" fill="#F0F0F0"/>
<path d="M81.6055 297.086H78.3516V300.339H81.6055V297.086Z" fill="#F0F0F0"/>
<path d="M81.6055 302.54H78.3516V305.794H81.6055V302.54Z" fill="#F0F0F0"/>
<path d="M81.6055 307.995H78.3516V311.249H81.6055V307.995Z" fill="#F0F0F0"/>
<path d="M81.6055 313.45H78.3516V316.704H81.6055V313.45Z" fill="#F0F0F0"/>
<path d="M81.6055 318.906H78.3516V322.16H81.6055V318.906Z" fill="#F0F0F0"/>
<path d="M81.6055 324.361H78.3516V327.615H81.6055V324.361Z" fill="#F0F0F0"/>
<path d="M461.344 304.167H458.09V307.421H461.344V304.167Z" fill="#F0F0F0"/>
<path d="M461.344 309.623H458.09V312.877H461.344V309.623Z" fill="#F0F0F0"/>
<path d="M461.344 315.077H458.09V318.331H461.344V315.077Z" fill="#F0F0F0"/>
<path d="M461.344 320.532H458.09V323.786H461.344V320.532Z" fill="#F0F0F0"/>
<path d="M461.344 325.987H458.09V329.241H461.344V325.987Z" fill="#F0F0F0"/>
<path d="M461.344 331.442H458.09V334.696H461.344V331.442Z" fill="#F0F0F0"/>
<path d="M461.344 336.897H458.09V340.151H461.344V336.897Z" fill="#F0F0F0"/>
<path d="M461.344 342.351H458.09V345.605H461.344V342.351Z" fill="#F0F0F0"/>
<path d="M461.344 347.806H458.09V351.06H461.344V347.806Z" fill="#F0F0F0"/>
<path d="M461.344 353.261H458.09V356.515H461.344V353.261Z" fill="#F0F0F0"/>
<path d="M461.344 358.716H458.09V361.97H461.344V358.716Z" fill="#F0F0F0"/>
<path d="M461.344 364.17H458.09V367.424H461.344V364.17Z" fill="#F0F0F0"/>
<path d="M461.344 369.626H458.09V372.88H461.344V369.626Z" fill="#F0F0F0"/>
<path d="M461.344 375.081H458.09V378.335H461.344V375.081Z" fill="#F0F0F0"/>
<path d="M461.344 380.536H458.09V383.79H461.344V380.536Z" fill="#F0F0F0"/>
<path d="M461.344 385.991H458.09V389.245H461.344V385.991Z" fill="#F0F0F0"/>
<path d="M461.344 391.445H458.09V394.699H461.344V391.445Z" fill="#F0F0F0"/>
<path d="M461.344 396.9H458.09V400.154H461.344V396.9Z" fill="#F0F0F0"/>
<path d="M461.344 402.355H458.09V405.609H461.344V402.355Z" fill="#F0F0F0"/>
<path d="M461.344 407.81H458.09V411.064H461.344V407.81Z" fill="#F0F0F0"/>
<path d="M456.173 304.167H452.919V307.421H456.173V304.167Z" fill="#F0F0F0"/>
<path d="M456.173 309.623H452.919V312.877H456.173V309.623Z" fill="#F0F0F0"/>
<path d="M456.173 315.077H452.919V318.331H456.173V315.077Z" fill="#F0F0F0"/>
<path d="M456.173 320.532H452.919V323.786H456.173V320.532Z" fill="#F0F0F0"/>
<path d="M456.173 325.987H452.919V329.241H456.173V325.987Z" fill="#F0F0F0"/>
<path d="M456.173 331.442H452.919V334.696H456.173V331.442Z" fill="#F0F0F0"/>
<path d="M456.173 336.897H452.919V340.151H456.173V336.897Z" fill="#F0F0F0"/>
<path d="M456.173 342.351H452.919V345.605H456.173V342.351Z" fill="#F0F0F0"/>
<path d="M456.173 347.806H452.919V351.06H456.173V347.806Z" fill="#F0F0F0"/>
<path d="M456.173 353.261H452.919V356.515H456.173V353.261Z" fill="#F0F0F0"/>
<path d="M456.173 358.716H452.919V361.97H456.173V358.716Z" fill="#F0F0F0"/>
<path d="M456.173 364.17H452.919V367.424H456.173V364.17Z" fill="#F0F0F0"/>
<path d="M456.173 369.626H452.919V372.88H456.173V369.626Z" fill="#F0F0F0"/>
<path d="M456.173 375.081H452.919V378.335H456.173V375.081Z" fill="#F0F0F0"/>
<path d="M456.173 380.536H452.919V383.79H456.173V380.536Z" fill="#F0F0F0"/>
<path d="M456.173 385.991H452.919V389.245H456.173V385.991Z" fill="#F0F0F0"/>
<path d="M456.173 391.445H452.919V394.699H456.173V391.445Z" fill="#F0F0F0"/>
<path d="M456.173 396.9H452.919V400.154H456.173V396.9Z" fill="#F0F0F0"/>
<path d="M451.006 304.167H447.752V307.421H451.006V304.167Z" fill="#F0F0F0"/>
<path d="M451.006 309.623H447.752V312.877H451.006V309.623Z" fill="#F0F0F0"/>
<path d="M451.006 315.077H447.752V318.331H451.006V315.077Z" fill="#F0F0F0"/>
<path d="M451.006 320.532H447.752V323.786H451.006V320.532Z" fill="#F0F0F0"/>
<path d="M451.006 325.987H447.752V329.241H451.006V325.987Z" fill="#F0F0F0"/>
<path d="M451.006 331.442H447.752V334.696H451.006V331.442Z" fill="#F0F0F0"/>
<path d="M451.006 336.897H447.752V340.151H451.006V336.897Z" fill="#F0F0F0"/>
<path d="M451.006 342.351H447.752V345.605H451.006V342.351Z" fill="#F0F0F0"/>
<path d="M451.006 347.806H447.752V351.06H451.006V347.806Z" fill="#F0F0F0"/>
<path d="M451.006 353.261H447.752V356.515H451.006V353.261Z" fill="#F0F0F0"/>
<path d="M451.006 358.716H447.752V361.97H451.006V358.716Z" fill="#F0F0F0"/>
<path d="M451.006 364.17H447.752V367.424H451.006V364.17Z" fill="#F0F0F0"/>
<path d="M451.006 369.626H447.752V372.88H451.006V369.626Z" fill="#F0F0F0"/>
<path d="M451.006 375.081H447.752V378.335H451.006V375.081Z" fill="#F0F0F0"/>
<path d="M451.006 380.536H447.752V383.79H451.006V380.536Z" fill="#F0F0F0"/>
<path d="M451.006 385.991H447.752V389.245H451.006V385.991Z" fill="#F0F0F0"/>
<path d="M451.006 391.445H447.752V394.699H451.006V391.445Z" fill="#F0F0F0"/>
<path d="M451.006 396.9H447.752V400.154H451.006V396.9Z" fill="#F0F0F0"/>
<path d="M480.672 343.978H477.418V347.232H480.672V343.978Z" fill="#F0F0F0"/>
<path d="M480.672 349.434H477.418V352.688H480.672V349.434Z" fill="#F0F0F0"/>
<path d="M480.672 354.888H477.418V358.142H480.672V354.888Z" fill="#F0F0F0"/>
<path d="M480.672 360.343H477.418V363.597H480.672V360.343Z" fill="#F0F0F0"/>
<path d="M480.672 365.798H477.418V369.052H480.672V365.798Z" fill="#F0F0F0"/>
<path d="M480.672 371.253H477.418V374.507H480.672V371.253Z" fill="#F0F0F0"/>
<path d="M480.672 376.707H477.418V379.961H480.672V376.707Z" fill="#F0F0F0"/>
<path d="M480.672 382.162H477.418V385.416H480.672V382.162Z" fill="#F0F0F0"/>
<path d="M480.672 387.617H477.418V390.871H480.672V387.617Z" fill="#F0F0F0"/>
<path d="M480.672 393.072H477.418V396.326H480.672V393.072Z" fill="#F0F0F0"/>
<path d="M480.672 398.527H477.418V401.781H480.672V398.527Z" fill="#F0F0F0"/>
<path d="M480.672 403.981H477.418V407.235H480.672V403.981Z" fill="#F0F0F0"/>
<path d="M480.672 409.436H477.418V412.69H480.672V409.436Z" fill="#F0F0F0"/>
<path d="M475.506 343.978H472.252V347.232H475.506V343.978Z" fill="#F0F0F0"/>
<path d="M475.506 349.434H472.252V352.688H475.506V349.434Z" fill="#F0F0F0"/>
<path d="M475.506 354.888H472.252V358.142H475.506V354.888Z" fill="#F0F0F0"/>
<path d="M475.506 360.343H472.252V363.597H475.506V360.343Z" fill="#F0F0F0"/>
<path d="M475.506 365.798H472.252V369.052H475.506V365.798Z" fill="#F0F0F0"/>
<path d="M475.506 371.253H472.252V374.507H475.506V371.253Z" fill="#F0F0F0"/>
<path d="M475.506 376.707H472.252V379.961H475.506V376.707Z" fill="#F0F0F0"/>
<path d="M475.506 382.162H472.252V385.416H475.506V382.162Z" fill="#F0F0F0"/>
<path d="M475.506 387.617H472.252V390.871H475.506V387.617Z" fill="#F0F0F0"/>
<path d="M475.506 393.072H472.252V396.326H475.506V393.072Z" fill="#F0F0F0"/>
<path d="M475.506 398.527H472.252V401.781H475.506V398.527Z" fill="#F0F0F0"/>
<path d="M475.506 403.981H472.252V407.235H475.506V403.981Z" fill="#F0F0F0"/>
<path d="M475.506 409.436H472.252V412.69H475.506V409.436Z" fill="#F0F0F0"/>
<path d="M470.335 343.978H467.081V347.232H470.335V343.978Z" fill="#F0F0F0"/>
<path d="M470.335 349.434H467.081V352.688H470.335V349.434Z" fill="#F0F0F0"/>
<path d="M470.335 354.888H467.081V358.142H470.335V354.888Z" fill="#F0F0F0"/>
<path d="M470.335 360.343H467.081V363.597H470.335V360.343Z" fill="#F0F0F0"/>
<path d="M470.335 365.798H467.081V369.052H470.335V365.798Z" fill="#F0F0F0"/>
<path d="M470.335 371.253H467.081V374.507H470.335V371.253Z" fill="#F0F0F0"/>
<path d="M470.335 376.707H467.081V379.961H470.335V376.707Z" fill="#F0F0F0"/>
<path d="M470.335 382.162H467.081V385.416H470.335V382.162Z" fill="#F0F0F0"/>
<path d="M470.335 387.617H467.081V390.871H470.335V387.617Z" fill="#F0F0F0"/>
<path d="M470.335 393.072H467.081V396.326H470.335V393.072Z" fill="#F0F0F0"/>
<path d="M470.335 398.527H467.081V401.781H470.335V398.527Z" fill="#F0F0F0"/>
<path d="M470.335 403.981H467.081V407.235H470.335V403.981Z" fill="#F0F0F0"/>
<path d="M470.335 409.436H467.081V412.69H470.335V409.436Z" fill="#F0F0F0"/>
<path d="M470.335 414.892H467.081V418.146H470.335V414.892Z" fill="#F0F0F0"/>
<path d="M441.627 345.605H438.373V348.859H441.627V345.605Z" fill="#F0F0F0"/>
<path d="M441.627 351.06H438.373V354.314H441.627V351.06Z" fill="#F0F0F0"/>
<path d="M441.627 356.515H438.373V359.769H441.627V356.515Z" fill="#F0F0F0"/>
<path d="M441.627 361.969H438.373V365.223H441.627V361.969Z" fill="#F0F0F0"/>
<path d="M441.627 367.424H438.373V370.678H441.627V367.424Z" fill="#F0F0F0"/>
<path d="M441.627 372.879H438.373V376.133H441.627V372.879Z" fill="#F0F0F0"/>
<path d="M441.627 378.334H438.373V381.588H441.627V378.334Z" fill="#F0F0F0"/>
<path d="M441.627 383.789H438.373V387.043H441.627V383.789Z" fill="#F0F0F0"/>
<path d="M441.627 389.243H438.373V392.497H441.627V389.243Z" fill="#F0F0F0"/>
<path d="M441.627 394.699H438.373V397.953H441.627V394.699Z" fill="#F0F0F0"/>
<path d="M441.627 411.064H438.373V414.318H441.627V411.064Z" fill="#F0F0F0"/>
<path d="M436.46 345.605H433.206V348.859H436.46V345.605Z" fill="#F0F0F0"/>
<path d="M436.46 351.06H433.206V354.314H436.46V351.06Z" fill="#F0F0F0"/>
<path d="M436.46 356.515H433.206V359.769H436.46V356.515Z" fill="#F0F0F0"/>
<path d="M436.46 361.969H433.206V365.223H436.46V361.969Z" fill="#F0F0F0"/>
<path d="M436.46 367.424H433.206V370.678H436.46V367.424Z" fill="#F0F0F0"/>
<path d="M436.46 372.879H433.206V376.133H436.46V372.879Z" fill="#F0F0F0"/>
<path d="M436.46 378.334H433.206V381.588H436.46V378.334Z" fill="#F0F0F0"/>
<path d="M436.46 383.789H433.206V387.043H436.46V383.789Z" fill="#F0F0F0"/>
<path d="M436.46 389.243H433.206V392.497H436.46V389.243Z" fill="#F0F0F0"/>
<path d="M436.46 405.609H433.206V408.863H436.46V405.609Z" fill="#F0F0F0"/>
<path d="M436.46 411.064H433.206V414.318H436.46V411.064Z" fill="#F0F0F0"/>
<path d="M431.291 345.605H428.037V348.859H431.291V345.605Z" fill="#F0F0F0"/>
<path d="M431.291 351.06H428.037V354.314H431.291V351.06Z" fill="#F0F0F0"/>
<path d="M431.291 356.515H428.037V359.769H431.291V356.515Z" fill="#F0F0F0"/>
<path d="M431.291 361.969H428.037V365.223H431.291V361.969Z" fill="#F0F0F0"/>
<path d="M431.291 367.424H428.037V370.678H431.291V367.424Z" fill="#F0F0F0"/>
<path d="M431.291 372.879H428.037V376.133H431.291V372.879Z" fill="#F0F0F0"/>
<path d="M431.291 378.334H428.037V381.588H431.291V378.334Z" fill="#F0F0F0"/>
<path d="M431.291 383.789H428.037V387.043H431.291V383.789Z" fill="#F0F0F0"/>
<path d="M431.291 400.154H428.037V403.408H431.291V400.154Z" fill="#F0F0F0"/>
<path d="M431.291 405.609H428.037V408.863H431.291V405.609Z" fill="#F0F0F0"/>
<path d="M431.291 411.064H428.037V414.318H431.291V411.064Z" fill="#F0F0F0"/>
<path d="M383.25 262.729H379.996V265.983H383.25V262.729Z" fill="#F0F0F0"/>
<path d="M383.25 268.184H379.996V271.438H383.25V268.184Z" fill="#F0F0F0"/>
<path d="M383.25 273.639H379.996V276.893H383.25V273.639Z" fill="#F0F0F0"/>
<path d="M383.25 279.095H379.996V282.349H383.25V279.095Z" fill="#F0F0F0"/>
<path d="M383.25 284.548H379.996V287.802H383.25V284.548Z" fill="#F0F0F0"/>
<path d="M383.25 290.003H379.996V293.257H383.25V290.003Z" fill="#F0F0F0"/>
<path d="M383.25 295.458H379.996V298.712H383.25V295.458Z" fill="#F0F0F0"/>
<path d="M383.25 300.914H379.996V304.168H383.25V300.914Z" fill="#F0F0F0"/>
<path d="M383.25 306.369H379.996V309.623H383.25V306.369Z" fill="#F0F0F0"/>
<path d="M383.25 311.823H379.996V315.077H383.25V311.823Z" fill="#F0F0F0"/>
<path d="M383.25 317.278H379.996V320.532H383.25V317.278Z" fill="#F0F0F0"/>
<path d="M383.25 322.733H379.996V325.987H383.25V322.733Z" fill="#F0F0F0"/>
<path d="M383.25 328.188H379.996V331.442H383.25V328.188Z" fill="#F0F0F0"/>
<path d="M383.25 333.642H379.996V336.896H383.25V333.642Z" fill="#F0F0F0"/>
<path d="M383.25 339.097H379.996V342.351H383.25V339.097Z" fill="#F0F0F0"/>
<path d="M383.25 344.552H379.996V347.806H383.25V344.552Z" fill="#F0F0F0"/>
<path d="M383.25 350.007H379.996V353.261H383.25V350.007Z" fill="#F0F0F0"/>
<path d="M383.25 360.917H379.996V364.171H383.25V360.917Z" fill="#F0F0F0"/>
<path d="M383.25 366.372H379.996V369.626H383.25V366.372Z" fill="#F0F0F0"/>
<path d="M383.25 371.827H379.996V375.081H383.25V371.827Z" fill="#F0F0F0"/>
<path d="M383.25 377.282H379.996V380.536H383.25V377.282Z" fill="#F0F0F0"/>
<path d="M383.25 382.737H379.996V385.991H383.25V382.737Z" fill="#F0F0F0"/>
<path d="M378.083 262.729H374.829V265.983H378.083V262.729Z" fill="#F0F0F0"/>
<path d="M378.083 268.184H374.829V271.438H378.083V268.184Z" fill="#F0F0F0"/>
<path d="M378.083 273.639H374.829V276.893H378.083V273.639Z" fill="#F0F0F0"/>
<path d="M378.083 279.095H374.829V282.349H378.083V279.095Z" fill="#F0F0F0"/>
<path d="M378.083 284.548H374.829V287.802H378.083V284.548Z" fill="#F0F0F0"/>
<path d="M378.083 290.003H374.829V293.257H378.083V290.003Z" fill="#F0F0F0"/>
<path d="M378.083 295.458H374.829V298.712H378.083V295.458Z" fill="#F0F0F0"/>
<path d="M378.083 300.914H374.829V304.168H378.083V300.914Z" fill="#F0F0F0"/>
<path d="M378.083 306.369H374.829V309.623H378.083V306.369Z" fill="#F0F0F0"/>
<path d="M378.083 311.823H374.829V315.077H378.083V311.823Z" fill="#F0F0F0"/>
<path d="M378.083 317.278H374.829V320.532H378.083V317.278Z" fill="#F0F0F0"/>
<path d="M378.083 322.733H374.829V325.987H378.083V322.733Z" fill="#F0F0F0"/>
<path d="M378.083 328.188H374.829V331.442H378.083V328.188Z" fill="#F0F0F0"/>
<path d="M378.083 333.642H374.829V336.896H378.083V333.642Z" fill="#F0F0F0"/>
<path d="M378.083 339.097H374.829V342.351H378.083V339.097Z" fill="#F0F0F0"/>
<path d="M378.083 344.552H374.829V347.806H378.083V344.552Z" fill="#F0F0F0"/>
<path d="M378.083 377.282H374.829V380.536H378.083V377.282Z" fill="#F0F0F0"/>
<path d="M378.083 382.737H374.829V385.991H378.083V382.737Z" fill="#F0F0F0"/>
<path d="M372.916 262.729H369.662V265.983H372.916V262.729Z" fill="#F0F0F0"/>
<path d="M372.916 268.184H369.662V271.438H372.916V268.184Z" fill="#F0F0F0"/>
<path d="M372.916 273.639H369.662V276.893H372.916V273.639Z" fill="#F0F0F0"/>
<path d="M372.916 279.095H369.662V282.349H372.916V279.095Z" fill="#F0F0F0"/>
<path d="M372.916 284.548H369.662V287.802H372.916V284.548Z" fill="#F0F0F0"/>
<path d="M372.916 290.003H369.662V293.257H372.916V290.003Z" fill="#F0F0F0"/>
<path d="M372.916 295.458H369.662V298.712H372.916V295.458Z" fill="#F0F0F0"/>
<path d="M372.916 300.914H369.662V304.168H372.916V300.914Z" fill="#F0F0F0"/>
<path d="M372.916 306.369H369.662V309.623H372.916V306.369Z" fill="#F0F0F0"/>
<path d="M372.916 311.823H369.662V315.077H372.916V311.823Z" fill="#F0F0F0"/>
<path d="M372.916 317.278H369.662V320.532H372.916V317.278Z" fill="#F0F0F0"/>
<path d="M372.916 322.733H369.662V325.987H372.916V322.733Z" fill="#F0F0F0"/>
<path d="M372.916 328.188H369.662V331.442H372.916V328.188Z" fill="#F0F0F0"/>
<path d="M372.916 333.642H369.662V336.896H372.916V333.642Z" fill="#F0F0F0"/>
<path d="M372.916 339.097H369.662V342.351H372.916V339.097Z" fill="#F0F0F0"/>
<path d="M372.916 344.552H369.662V347.806H372.916V344.552Z" fill="#F0F0F0"/>
<path d="M372.916 355.463H369.662V358.717H372.916V355.463Z" fill="#F0F0F0"/>
<path d="M372.916 360.917H369.662V364.171H372.916V360.917Z" fill="#F0F0F0"/>
<path d="M372.916 366.372H369.662V369.626H372.916V366.372Z" fill="#F0F0F0"/>
<path d="M372.916 371.827H369.662V375.081H372.916V371.827Z" fill="#F0F0F0"/>
<path d="M372.916 382.737H369.662V385.991H372.916V382.737Z" fill="#F0F0F0"/>
<path d="M402.008 331.442H398.754V334.696H402.008V331.442Z" fill="#F0F0F0"/>
<path d="M402.008 336.897H398.754V340.151H402.008V336.897Z" fill="#F0F0F0"/>
<path d="M402.008 342.351H398.754V345.605H402.008V342.351Z" fill="#F0F0F0"/>
<path d="M402.008 347.806H398.754V351.06H402.008V347.806Z" fill="#F0F0F0"/>
<path d="M402.008 353.261H398.754V356.515H402.008V353.261Z" fill="#F0F0F0"/>
<path d="M402.008 358.716H398.754V361.97H402.008V358.716Z" fill="#F0F0F0"/>
<path d="M402.008 364.17H398.754V367.424H402.008V364.17Z" fill="#F0F0F0"/>
<path d="M402.008 375.081H398.754V378.335H402.008V375.081Z" fill="#F0F0F0"/>
<path d="M402.008 380.536H398.754V383.79H402.008V380.536Z" fill="#F0F0F0"/>
<path d="M402.008 385.991H398.754V389.245H402.008V385.991Z" fill="#F0F0F0"/>
<path d="M402.008 391.445H398.754V394.699H402.008V391.445Z" fill="#F0F0F0"/>
<path d="M402.008 396.9H398.754V400.154H402.008V396.9Z" fill="#F0F0F0"/>
<path d="M402.008 402.355H398.754V405.609H402.008V402.355Z" fill="#F0F0F0"/>
<path d="M402.008 407.81H398.754V411.064H402.008V407.81Z" fill="#F0F0F0"/>
<path d="M402.008 413.264H398.754V416.518H402.008V413.264Z" fill="#F0F0F0"/>
<path d="M396.84 331.442H393.586V334.696H396.84V331.442Z" fill="#F0F0F0"/>
<path d="M396.84 336.897H393.586V340.151H396.84V336.897Z" fill="#F0F0F0"/>
<path d="M396.84 342.351H393.586V345.605H396.84V342.351Z" fill="#F0F0F0"/>
<path d="M396.84 347.806H393.586V351.06H396.84V347.806Z" fill="#F0F0F0"/>
<path d="M396.84 353.261H393.586V356.515H396.84V353.261Z" fill="#F0F0F0"/>
<path d="M396.84 358.716H393.586V361.97H396.84V358.716Z" fill="#F0F0F0"/>
<path d="M396.84 375.081H393.586V378.335H396.84V375.081Z" fill="#F0F0F0"/>
<path d="M396.84 380.536H393.586V383.79H396.84V380.536Z" fill="#F0F0F0"/>
<path d="M396.84 385.991H393.586V389.245H396.84V385.991Z" fill="#F0F0F0"/>
<path d="M396.84 391.445H393.586V394.699H396.84V391.445Z" fill="#F0F0F0"/>
<path d="M396.84 396.9H393.586V400.154H396.84V396.9Z" fill="#F0F0F0"/>
<path d="M396.84 402.355H393.586V405.609H396.84V402.355Z" fill="#F0F0F0"/>
<path d="M396.84 407.81H393.586V411.064H396.84V407.81Z" fill="#F0F0F0"/>
<path d="M396.84 413.264H393.586V416.518H396.84V413.264Z" fill="#F0F0F0"/>
<path d="M391.671 331.442H388.417V334.696H391.671V331.442Z" fill="#F0F0F0"/>
<path d="M391.671 336.897H388.417V340.151H391.671V336.897Z" fill="#F0F0F0"/>
<path d="M391.671 342.351H388.417V345.605H391.671V342.351Z" fill="#F0F0F0"/>
<path d="M391.671 347.806H388.417V351.06H391.671V347.806Z" fill="#F0F0F0"/>
<path d="M391.671 353.261H388.417V356.515H391.671V353.261Z" fill="#F0F0F0"/>
<path d="M391.671 358.716H388.417V361.97H391.671V358.716Z" fill="#F0F0F0"/>
<path d="M391.671 369.626H388.417V372.88H391.671V369.626Z" fill="#F0F0F0"/>
<path d="M391.671 375.081H388.417V378.335H391.671V375.081Z" fill="#F0F0F0"/>
<path d="M391.671 380.536H388.417V383.79H391.671V380.536Z" fill="#F0F0F0"/>
<path d="M391.671 385.991H388.417V389.245H391.671V385.991Z" fill="#F0F0F0"/>
<path d="M391.671 391.445H388.417V394.699H391.671V391.445Z" fill="#F0F0F0"/>
<path d="M391.671 396.9H388.417V400.154H391.671V396.9Z" fill="#F0F0F0"/>
<path d="M391.671 402.355H388.417V405.609H391.671V402.355Z" fill="#F0F0F0"/>
<path d="M391.671 407.81H388.417V411.064H391.671V407.81Z" fill="#F0F0F0"/>
<path d="M391.671 413.264H388.417V416.518H391.671V413.264Z" fill="#F0F0F0"/>
<path d="M282.765 300.914H279.511V304.168H282.765V300.914Z" fill="#F0F0F0"/>
<path d="M282.765 306.369H279.511V309.623H282.765V306.369Z" fill="#F0F0F0"/>
<path d="M282.765 311.823H279.511V315.077H282.765V311.823Z" fill="#F0F0F0"/>
<path d="M282.765 317.278H279.511V320.532H282.765V317.278Z" fill="#F0F0F0"/>
<path d="M282.765 322.733H279.511V325.987H282.765V322.733Z" fill="#F0F0F0"/>
<path d="M282.765 328.188H279.511V331.442H282.765V328.188Z" fill="#F0F0F0"/>
<path d="M282.765 333.642H279.511V336.896H282.765V333.642Z" fill="#F0F0F0"/>
<path d="M282.765 339.097H279.511V342.351H282.765V339.097Z" fill="#F0F0F0"/>
<path d="M282.765 344.552H279.511V347.806H282.765V344.552Z" fill="#F0F0F0"/>
<path d="M282.765 350.007H279.511V353.261H282.765V350.007Z" fill="#F0F0F0"/>
<path d="M282.765 355.463H279.511V358.717H282.765V355.463Z" fill="#F0F0F0"/>
<path d="M282.765 360.917H279.511V364.171H282.765V360.917Z" fill="#F0F0F0"/>
<path d="M282.765 366.372H279.511V369.626H282.765V366.372Z" fill="#F0F0F0"/>
<path d="M282.765 377.282H279.511V380.536H282.765V377.282Z" fill="#F0F0F0"/>
<path d="M282.765 382.737H279.511V385.991H282.765V382.737Z" fill="#F0F0F0"/>
<path d="M282.765 388.191H279.511V391.445H282.765V388.191Z" fill="#F0F0F0"/>
<path d="M282.765 393.646H279.511V396.9H282.765V393.646Z" fill="#F0F0F0"/>
<path d="M282.765 404.556H279.511V407.81H282.765V404.556Z" fill="#F0F0F0"/>
<path d="M282.765 410.01H279.511V413.264H282.765V410.01Z" fill="#F0F0F0"/>
<path d="M282.765 415.466H279.511V418.72H282.765V415.466Z" fill="#F0F0F0"/>
<path d="M277.6 300.914H274.346V304.168H277.6V300.914Z" fill="#F0F0F0"/>
<path d="M277.6 306.369H274.346V309.623H277.6V306.369Z" fill="#F0F0F0"/>
<path d="M277.6 311.823H274.346V315.077H277.6V311.823Z" fill="#F0F0F0"/>
<path d="M277.6 317.278H274.346V320.532H277.6V317.278Z" fill="#F0F0F0"/>
<path d="M277.6 322.733H274.346V325.987H277.6V322.733Z" fill="#F0F0F0"/>
<path d="M277.6 328.188H274.346V331.442H277.6V328.188Z" fill="#F0F0F0"/>
<path d="M277.6 333.642H274.346V336.896H277.6V333.642Z" fill="#F0F0F0"/>
<path d="M277.6 339.097H274.346V342.351H277.6V339.097Z" fill="#F0F0F0"/>
<path d="M277.6 344.552H274.346V347.806H277.6V344.552Z" fill="#F0F0F0"/>
<path d="M277.6 350.007H274.346V353.261H277.6V350.007Z" fill="#F0F0F0"/>
<path d="M277.6 355.463H274.346V358.717H277.6V355.463Z" fill="#F0F0F0"/>
<path d="M277.6 360.917H274.346V364.171H277.6V360.917Z" fill="#F0F0F0"/>
<path d="M277.6 366.372H274.346V369.626H277.6V366.372Z" fill="#F0F0F0"/>
<path d="M277.6 382.737H274.346V385.991H277.6V382.737Z" fill="#F0F0F0"/>
<path d="M277.6 388.191H274.346V391.445H277.6V388.191Z" fill="#F0F0F0"/>
<path d="M277.6 399.101H274.346V402.355H277.6V399.101Z" fill="#F0F0F0"/>
<path d="M277.6 404.556H274.346V407.81H277.6V404.556Z" fill="#F0F0F0"/>
<path d="M277.6 410.01H274.346V413.264H277.6V410.01Z" fill="#F0F0F0"/>
<path d="M277.6 415.466H274.346V418.72H277.6V415.466Z" fill="#F0F0F0"/>
<path d="M272.429 300.914H269.175V304.168H272.429V300.914Z" fill="#F0F0F0"/>
<path d="M272.429 306.369H269.175V309.623H272.429V306.369Z" fill="#F0F0F0"/>
<path d="M272.429 311.823H269.175V315.077H272.429V311.823Z" fill="#F0F0F0"/>
<path d="M272.429 317.278H269.175V320.532H272.429V317.278Z" fill="#F0F0F0"/>
<path d="M272.429 322.733H269.175V325.987H272.429V322.733Z" fill="#F0F0F0"/>
<path d="M272.429 328.188H269.175V331.442H272.429V328.188Z" fill="#F0F0F0"/>
<path d="M272.429 333.642H269.175V336.896H272.429V333.642Z" fill="#F0F0F0"/>
<path d="M272.429 339.097H269.175V342.351H272.429V339.097Z" fill="#F0F0F0"/>
<path d="M272.429 344.552H269.175V347.806H272.429V344.552Z" fill="#F0F0F0"/>
<path d="M272.429 350.007H269.175V353.261H272.429V350.007Z" fill="#F0F0F0"/>
<path d="M272.429 355.463H269.175V358.717H272.429V355.463Z" fill="#F0F0F0"/>
<path d="M272.429 360.917H269.175V364.171H272.429V360.917Z" fill="#F0F0F0"/>
<path d="M272.429 366.372H269.175V369.626H272.429V366.372Z" fill="#F0F0F0"/>
<path d="M272.429 371.827H269.175V375.081H272.429V371.827Z" fill="#F0F0F0"/>
<path d="M272.429 382.737H269.175V385.991H272.429V382.737Z" fill="#F0F0F0"/>
<path d="M272.429 393.646H269.175V396.9H272.429V393.646Z" fill="#F0F0F0"/>
<path d="M272.429 399.101H269.175V402.355H272.429V399.101Z" fill="#F0F0F0"/>
<path d="M272.429 404.556H269.175V407.81H272.429V404.556Z" fill="#F0F0F0"/>
<path d="M272.429 410.01H269.175V413.264H272.429V410.01Z" fill="#F0F0F0"/>
<path d="M272.429 415.466H269.175V418.72H272.429V415.466Z" fill="#F0F0F0"/>
<path d="M303.82 332.016H300.566V335.27H303.82V332.016Z" fill="#F0F0F0"/>
<path d="M303.82 337.471H300.566V340.725H303.82V337.471Z" fill="#F0F0F0"/>
<path d="M303.82 342.926H300.566V346.18H303.82V342.926Z" fill="#F0F0F0"/>
<path d="M303.82 348.38H300.566V351.634H303.82V348.38Z" fill="#F0F0F0"/>
<path d="M303.82 353.835H300.566V357.089H303.82V353.835Z" fill="#F0F0F0"/>
<path d="M303.82 359.29H300.566V362.544H303.82V359.29Z" fill="#F0F0F0"/>
<path d="M303.82 375.654H300.566V378.908H303.82V375.654Z" fill="#F0F0F0"/>
<path d="M303.82 381.11H300.566V384.364H303.82V381.11Z" fill="#F0F0F0"/>
<path d="M303.82 386.565H300.566V389.819H303.82V386.565Z" fill="#F0F0F0"/>
<path d="M303.82 392.02H300.566V395.274H303.82V392.02Z" fill="#F0F0F0"/>
<path d="M303.82 397.474H300.566V400.728H303.82V397.474Z" fill="#F0F0F0"/>
<path d="M303.82 402.929H300.566V406.183H303.82V402.929Z" fill="#F0F0F0"/>
<path d="M303.82 408.384H300.566V411.638H303.82V408.384Z" fill="#F0F0F0"/>
<path d="M298.653 332.016H295.399V335.27H298.653V332.016Z" fill="#F0F0F0"/>
<path d="M298.653 337.471H295.399V340.725H298.653V337.471Z" fill="#F0F0F0"/>
<path d="M298.653 342.926H295.399V346.18H298.653V342.926Z" fill="#F0F0F0"/>
<path d="M298.653 348.38H295.399V351.634H298.653V348.38Z" fill="#F0F0F0"/>
<path d="M298.653 353.835H295.399V357.089H298.653V353.835Z" fill="#F0F0F0"/>
<path d="M298.653 359.29H295.399V362.544H298.653V359.29Z" fill="#F0F0F0"/>
<path d="M298.653 375.654H295.399V378.908H298.653V375.654Z" fill="#F0F0F0"/>
<path d="M298.653 381.11H295.399V384.364H298.653V381.11Z" fill="#F0F0F0"/>
<path d="M298.653 386.565H295.399V389.819H298.653V386.565Z" fill="#F0F0F0"/>
<path d="M298.653 392.02H295.399V395.274H298.653V392.02Z" fill="#F0F0F0"/>
<path d="M298.653 397.474H295.399V400.728H298.653V397.474Z" fill="#F0F0F0"/>
<path d="M298.653 402.929H295.399V406.183H298.653V402.929Z" fill="#F0F0F0"/>
<path d="M298.653 413.839H295.399V417.093H298.653V413.839Z" fill="#F0F0F0"/>
<path d="M126.967 307.995H123.713V311.249H126.967V307.995Z" fill="#F0F0F0"/>
<path d="M126.967 313.45H123.713V316.704H126.967V313.45Z" fill="#F0F0F0"/>
<path d="M126.967 318.906H123.713V322.16H126.967V318.906Z" fill="#F0F0F0"/>
<path d="M126.967 324.361H123.713V327.615H126.967V324.361Z" fill="#F0F0F0"/>
<path d="M126.967 329.815H123.713V333.069H126.967V329.815Z" fill="#F0F0F0"/>
<path d="M126.967 335.27H123.713V338.524H126.967V335.27Z" fill="#F0F0F0"/>
<path d="M126.967 340.725H123.713V343.979H126.967V340.725Z" fill="#F0F0F0"/>
<path d="M126.967 346.18H123.713V349.434H126.967V346.18Z" fill="#F0F0F0"/>
<path d="M126.967 351.634H123.713V354.888H126.967V351.634Z" fill="#F0F0F0"/>
<path d="M126.967 357.089H123.713V360.343H126.967V357.089Z" fill="#F0F0F0"/>
<path d="M126.967 362.544H123.713V365.798H126.967V362.544Z" fill="#F0F0F0"/>
<path d="M126.967 373.453H123.713V376.707H126.967V373.453Z" fill="#F0F0F0"/>
<path d="M126.967 378.908H123.713V382.162H126.967V378.908Z" fill="#F0F0F0"/>
<path d="M126.967 384.363H123.713V387.617H126.967V384.363Z" fill="#F0F0F0"/>
<path d="M126.967 389.818H123.713V393.072H126.967V389.818Z" fill="#F0F0F0"/>
<path d="M126.967 395.274H123.713V398.528H126.967V395.274Z" fill="#F0F0F0"/>
<path d="M126.967 400.728H123.713V403.982H126.967V400.728Z" fill="#F0F0F0"/>
<path d="M126.967 406.183H123.713V409.437H126.967V406.183Z" fill="#F0F0F0"/>
<path d="M126.967 411.638H123.713V414.892H126.967V411.638Z" fill="#F0F0F0"/>
<path d="M121.8 307.995H118.546V311.249H121.8V307.995Z" fill="#F0F0F0"/>
<path d="M121.8 313.45H118.546V316.704H121.8V313.45Z" fill="#F0F0F0"/>
<path d="M121.8 318.906H118.546V322.16H121.8V318.906Z" fill="#F0F0F0"/>
<path d="M121.8 324.361H118.546V327.615H121.8V324.361Z" fill="#F0F0F0"/>
<path d="M121.8 329.815H118.546V333.069H121.8V329.815Z" fill="#F0F0F0"/>
<path d="M121.8 335.27H118.546V338.524H121.8V335.27Z" fill="#F0F0F0"/>
<path d="M121.8 340.725H118.546V343.979H121.8V340.725Z" fill="#F0F0F0"/>
<path d="M121.8 346.18H118.546V349.434H121.8V346.18Z" fill="#F0F0F0"/>
<path d="M121.8 351.634H118.546V354.888H121.8V351.634Z" fill="#F0F0F0"/>
<path d="M121.8 357.089H118.546V360.343H121.8V357.089Z" fill="#F0F0F0"/>
<path d="M121.8 362.544H118.546V365.798H121.8V362.544Z" fill="#F0F0F0"/>
<path d="M121.8 367.999H118.546V371.253H121.8V367.999Z" fill="#F0F0F0"/>
<path d="M121.8 373.453H118.546V376.707H121.8V373.453Z" fill="#F0F0F0"/>
<path d="M121.8 378.908H118.546V382.162H121.8V378.908Z" fill="#F0F0F0"/>
<path d="M121.8 384.363H118.546V387.617H121.8V384.363Z" fill="#F0F0F0"/>
<path d="M121.8 389.818H118.546V393.072H121.8V389.818Z" fill="#F0F0F0"/>
<path d="M121.8 395.274H118.546V398.528H121.8V395.274Z" fill="#F0F0F0"/>
<path d="M121.8 400.728H118.546V403.982H121.8V400.728Z" fill="#F0F0F0"/>
<path d="M121.8 406.183H118.546V409.437H121.8V406.183Z" fill="#F0F0F0"/>
<path d="M121.8 411.638H118.546V414.892H121.8V411.638Z" fill="#F0F0F0"/>
<path d="M152.424 329.241H149.17V332.495H152.424V329.241Z" fill="#F0F0F0"/>
<path d="M152.424 334.696H149.17V337.95H152.424V334.696Z" fill="#F0F0F0"/>
<path d="M152.424 340.151H149.17V343.404H152.424V340.151Z" fill="#F0F0F0"/>
<path d="M152.424 345.605H149.17V348.859H152.424V345.605Z" fill="#F0F0F0"/>
<path d="M152.424 351.06H149.17V354.314H152.424V351.06Z" fill="#F0F0F0"/>
<path d="M152.424 356.515H149.17V359.769H152.424V356.515Z" fill="#F0F0F0"/>
<path d="M152.424 361.969H149.17V365.223H152.424V361.969Z" fill="#F0F0F0"/>
<path d="M152.424 367.424H149.17V370.678H152.424V367.424Z" fill="#F0F0F0"/>
<path d="M152.424 372.879H149.17V376.133H152.424V372.879Z" fill="#F0F0F0"/>
<path d="M152.424 378.334H149.17V381.588H152.424V378.334Z" fill="#F0F0F0"/>
<path d="M147.257 329.241H144.003V332.495H147.257V329.241Z" fill="#F0F0F0"/>
<path d="M147.257 334.696H144.003V337.95H147.257V334.696Z" fill="#F0F0F0"/>
<path d="M147.257 340.151H144.003V343.404H147.257V340.151Z" fill="#F0F0F0"/>
<path d="M147.257 345.605H144.003V348.859H147.257V345.605Z" fill="#F0F0F0"/>
<path d="M147.257 351.06H144.003V354.314H147.257V351.06Z" fill="#F0F0F0"/>
<path d="M147.257 356.515H144.003V359.769H147.257V356.515Z" fill="#F0F0F0"/>
<path d="M147.257 361.969H144.003V365.223H147.257V361.969Z" fill="#F0F0F0"/>
<path d="M147.257 367.424H144.003V370.678H147.257V367.424Z" fill="#F0F0F0"/>
<path d="M147.257 372.879H144.003V376.133H147.257V372.879Z" fill="#F0F0F0"/>
<path d="M281.001 480.579C401.361 480.579 498.932 474.88 498.932 467.851C498.932 460.823 401.361 455.124 281.001 455.124C160.64 455.124 63.0693 460.823 63.0693 467.851C63.0693 474.88 160.64 480.579 281.001 480.579Z" fill="#F5F5F5"/>
<path d="M275.911 264.263L277.802 266.604L98.2637 409.613L105.911 419.08L106.96 420.38L286.499 277.371L288.389 279.712L291.752 264.231L275.911 264.263Z" fill="#407BFF"/>
<path opacity="0.7" d="M275.911 264.263L277.802 266.604L98.2637 409.613L105.911 419.08L106.96 420.38L286.499 277.371L288.389 279.712L291.752 264.231L275.911 264.263Z" fill="white"/>
<path d="M71.8389 419.614C71.8389 416.35 74.4859 413.703 77.75 413.703C78.3401 413.703 78.91 413.792 79.4472 413.954C79.3607 413.361 79.3146 412.755 79.3146 412.139C79.3146 405.227 84.9189 399.623 91.8315 399.623C92.6194 399.623 93.3893 399.699 94.1368 399.838C96.0611 396.689 99.5185 394.58 103.479 394.58C109.473 394.58 114.335 399.397 114.424 405.368C114.485 405.367 114.544 405.36 114.606 405.36C120.175 405.36 124.689 409.873 124.689 415.443C124.689 421.011 120.175 425.526 114.606 425.526H77.5758L77.5836 425.517C74.396 425.429 71.8389 422.823 71.8389 419.614Z" fill="#407BFF"/>
<path opacity="0.8" d="M71.8389 419.614C71.8389 416.35 74.4859 413.703 77.75 413.703C78.3401 413.703 78.91 413.792 79.4472 413.954C79.3607 413.361 79.3146 412.755 79.3146 412.139C79.3146 405.227 84.9189 399.623 91.8315 399.623C92.6194 399.623 93.3893 399.699 94.1368 399.838C96.0611 396.689 99.5185 394.58 103.479 394.58C109.473 394.58 114.335 399.397 114.424 405.368C114.485 405.367 114.544 405.36 114.606 405.36C120.175 405.36 124.689 409.873 124.689 415.443C124.689 421.011 120.175 425.526 114.606 425.526H77.5758L77.5836 425.517C74.396 425.429 71.8389 422.823 71.8389 419.614Z" fill="white"/>
<path d="M448.199 354.858L452.683 360.41L369.23 427.821L387.362 450.269L389.85 453.35L473.303 385.938L477.788 391.489L485.761 354.784L448.199 354.858Z" fill="#407BFF"/>
<path opacity="0.5" d="M448.199 354.858L452.683 360.41L369.23 427.821L387.362 450.269L389.85 453.35L473.303 385.938L477.788 391.489L485.761 354.784L448.199 354.858Z" fill="white"/>
<path d="M403.079 425.396C399.711 420.023 393.754 416.438 386.945 416.438C380.023 416.438 373.981 420.142 370.647 425.666C369.771 425.421 368.852 425.28 367.899 425.28C362.264 425.28 357.695 429.848 357.695 435.484C357.695 435.488 357.696 435.493 357.696 435.497H352.317C349.515 435.497 347.222 437.79 347.222 440.592C347.222 443.394 349.515 445.687 352.317 445.687H370.881C374.261 450.997 380.184 454.53 386.945 454.53C392.276 454.53 397.089 452.334 400.546 448.804C400.868 448.83 401.191 448.854 401.519 448.854C408.028 448.854 413.305 443.577 413.305 437.067C413.305 431.088 408.849 426.161 403.079 425.396Z" fill="#407BFF"/>
<path opacity="0.8" d="M403.079 425.396C399.711 420.023 393.754 416.438 386.945 416.438C380.023 416.438 373.981 420.142 370.647 425.666C369.771 425.421 368.852 425.28 367.899 425.28C362.264 425.28 357.695 429.848 357.695 435.484C357.695 435.488 357.696 435.493 357.696 435.497H352.317C349.515 435.497 347.222 437.79 347.222 440.592C347.222 443.394 349.515 445.687 352.317 445.687H370.881C374.261 450.997 380.184 454.53 386.945 454.53C392.276 454.53 397.089 452.334 400.546 448.804C400.868 448.83 401.191 448.854 401.519 448.854C408.028 448.854 413.305 443.577 413.305 437.067C413.305 431.088 408.849 426.161 403.079 425.396Z" fill="white"/>
<path d="M277.788 197.321L276.167 195.613C275.731 195.154 275.091 194.949 274.47 195.068L272.045 195.533C271.253 195.685 270.649 196.331 270.552 197.132L269.31 207.292L273.07 208.734C277.649 206.742 277.411 200.694 277.411 200.694L278.07 199.49C278.457 198.783 278.343 197.906 277.788 197.321Z" fill="#FFB573"/>
<path d="M232.413 227.766C232.413 227.766 236.014 227.984 238.126 227.933C240.255 227.903 242.374 227.865 244.457 227.746C246.532 227.614 248.593 227.467 250.485 227.205C251.423 227.074 252.333 226.905 253.05 226.71C253.386 226.613 253.711 226.511 253.861 226.45C254.102 226.339 253.835 226.534 253.971 226.458C254.323 226.159 255.005 225.346 255.602 224.592C256.218 223.81 256.838 222.967 257.452 222.109C258.685 220.39 259.909 218.602 261.131 216.805L268.473 205.911L274.209 208.966C273.366 211.065 272.451 213.087 271.535 215.134C270.587 217.158 269.62 219.177 268.623 221.195C267.61 223.206 266.558 225.205 265.415 227.205C264.836 228.206 264.242 229.207 263.588 230.23C262.906 231.274 262.28 232.25 261.097 233.54C260.46 234.25 259.292 235.109 258.539 235.48C257.709 235.933 256.996 236.215 256.291 236.482C254.91 236.98 253.66 237.295 252.43 237.57C249.978 238.116 247.644 238.441 245.318 238.664C240.661 239.126 236.192 239.299 231.524 239.194L232.413 227.766Z" fill="#407BFF"/>
<path opacity="0.7" d="M274.203 208.971C273.36 211.061 272.449 213.085 271.539 215.13C270.583 217.154 269.617 219.177 268.616 221.2C267.605 223.201 266.56 225.201 265.413 227.202C264.84 228.202 264.244 229.203 263.581 230.226C262.906 231.271 262.277 232.249 261.097 233.541C260.456 234.25 259.287 235.104 258.534 235.475C257.702 235.936 256.994 236.217 256.286 236.486C254.904 236.981 253.656 237.296 252.431 237.565C249.98 238.116 247.643 238.442 245.316 238.667C244.316 238.768 243.326 238.847 242.349 238.925C238.74 239.184 235.189 239.274 231.524 239.195L231.704 236.835L232.412 227.764C232.412 227.764 236.009 227.989 238.122 227.933C240.258 227.899 242.371 227.865 244.462 227.742C246.53 227.618 248.598 227.472 250.486 227.202C251.419 227.078 252.33 226.91 253.049 226.708C253.386 226.618 253.712 226.516 253.858 226.449C254.106 226.337 253.836 226.539 253.971 226.46C254.319 226.157 255.005 225.347 255.601 224.594C256.219 223.808 256.837 222.965 257.444 222.11C258.68 220.391 259.905 218.603 261.131 216.805L268.47 205.914L274.203 208.971Z" fill="white"/>
<path opacity="0.1" d="M242.349 238.925C238.74 239.184 235.189 239.274 231.524 239.195L231.704 236.835L232.581 234.767C232.581 234.767 238.471 234.688 242.349 238.925Z" fill="black"/>
<path d="M172.298 429.402C172.298 429.402 162.122 422.402 162.746 417.699C162.808 417.237 162.537 416.829 162.048 416.755L153.422 415.45C153.02 415.389 152.589 415.572 152.351 415.907L147.255 423.049L149.544 423.877L150.773 423.015L151.351 424.531C163.777 429.025 169.194 430.836 171.933 430.951C172.69 429.983 172.298 429.402 172.298 429.402Z" fill="black"/>
<path d="M229.602 297.182C229.602 297.182 229.085 298.531 228.175 300.869C227.197 303.398 225.758 307.085 224.027 311.468C222.869 314.391 221.588 317.628 220.205 321.034C213.855 336.815 205.65 356.339 200.221 366.196C189.824 385.057 162.735 420.879 162.735 420.879L151.911 416.922C151.911 416.922 171.401 380.032 181.236 361.34C184.237 355.642 187.688 347.257 191.105 338.107C192.735 333.757 194.353 329.228 195.916 324.743C196.624 322.72 197.321 320.696 197.995 318.707C199.782 313.447 201.457 308.377 202.929 303.859C203.109 303.297 203.289 302.735 203.469 302.195C204.065 300.341 204.627 298.587 205.133 296.969C207.246 290.315 208.561 285.931 208.606 285.763C208.617 285.763 208.617 285.763 208.617 285.763L218.272 291.023L229.602 297.182Z" fill="#263238"/>
<path opacity="0.3" d="M228.178 300.869C227.2 303.398 225.761 307.085 224.03 311.468C222.872 314.391 221.591 317.628 220.209 321.034C211.374 322.81 202.382 324.012 195.919 324.743C196.627 322.72 197.324 320.697 197.998 318.707C199.786 313.447 201.46 308.377 202.933 303.859C203.113 303.297 203.292 302.735 203.472 302.195C204.068 300.341 204.63 298.587 205.136 296.969C211.632 297.857 220.321 299.183 228.178 300.869Z" fill="black"/>
<path d="M195.013 233.752C195.013 233.761 195.021 233.769 195.021 233.776C196.578 239.005 197.492 245.082 198.003 251.073C198.396 255.733 198.545 260.322 198.566 264.438C198.581 268.586 198.457 272.257 198.322 275.068C198.141 278.678 197.927 280.902 197.927 280.902L232.078 282.657C242.325 245.521 232.416 227.765 232.416 227.765C232.416 227.765 228.161 227.336 223.259 227.555C222.627 227.574 221.985 227.624 221.328 227.674C217.151 228.023 210.497 229.343 206.054 230.347C205.138 230.548 204.218 230.787 203.32 231.029C198.858 232.247 195.013 233.752 195.013 233.752Z" fill="#407BFF"/>
<path opacity="0.7" d="M232.076 282.66L197.929 280.907C197.929 280.907 198.143 278.681 198.323 275.062C198.368 274.006 198.413 272.803 198.458 271.499C198.525 269.397 198.57 267.014 198.57 264.44C198.559 263.193 198.536 261.9 198.502 260.574C198.502 260.36 198.491 260.147 198.491 259.933C198.435 257.831 198.334 255.651 198.188 253.436C198.12 252.65 198.064 251.863 197.997 251.076C197.952 250.458 197.896 249.828 197.839 249.21C197.671 247.637 197.491 246.063 197.266 244.512C197.21 244.085 197.142 243.658 197.075 243.242C196.974 242.534 196.861 241.848 196.738 241.151C196.277 238.588 195.715 236.093 195.029 233.766C195.029 233.766 195.018 233.755 195.007 233.755C195.007 233.755 198.862 232.249 203.324 231.024C204.212 230.788 205.134 230.552 206.045 230.349C210.496 229.349 217.15 228.023 221.32 227.674C221.983 227.629 222.624 227.573 223.264 227.562C228.154 227.337 232.414 227.764 232.414 227.764C232.414 227.764 242.327 245.512 232.076 282.66Z" fill="white"/>
<path d="M253.196 371.528C253.196 371.528 243.44 363.955 244.333 359.296C244.421 358.838 244.175 358.416 243.692 358.313L235.156 356.515C234.757 356.431 234.317 356.589 234.06 356.909L228.562 363.747L230.8 364.706L232.077 363.917L232.567 365.462C244.714 370.665 250.019 372.783 252.748 373.056C253.554 372.131 253.196 371.528 253.196 371.528Z" fill="black"/>
<path d="M214.258 311.672C214.77 311.699 215.056 311.7 215.056 311.7L255.997 317.651L232.692 356.314L244.361 360.756C244.361 360.756 286.559 315.257 277.132 304.883C269.379 296.35 231.389 291.16 231.389 291.16L232.635 282.254L197.496 275.336C182.473 308.219 209.229 311.364 214.258 311.672Z" fill="#263238"/>
<path d="M197.079 278.832L196.334 278.688L197.015 276.32L197.678 276.448L197.079 278.832Z" fill="#263238"/>
<path d="M224.719 284.181L209.717 281.278L210.302 278.896L225.243 281.794L224.719 284.181Z" fill="#263238"/>
<path d="M226.402 282.018L232.744 283.248L232.322 285.652L225.9 284.409L226.402 282.018Z" fill="#263238"/>
<path d="M198.835 276.673L209.15 278.673L208.541 281.051L198.26 279.061L198.835 276.673Z" fill="#263238"/>
<g opacity="0.2">
<path d="M197.079 278.832L196.334 278.688L197.015 276.32L197.678 276.448L197.079 278.832Z" fill="white"/>
<path d="M224.719 284.181L209.717 281.278L210.302 278.896L225.243 281.794L224.719 284.181Z" fill="white"/>
<path d="M226.402 282.018L232.744 283.248L232.322 285.652L225.9 284.409L226.402 282.018Z" fill="white"/>
<path d="M198.835 276.673L209.15 278.673L208.541 281.051L198.26 279.061L198.835 276.673Z" fill="white"/>
</g>
<path d="M220.556 281.355L220.217 282.805C220.164 283.036 219.939 283.184 219.706 283.142L215.95 282.476C215.696 282.431 215.533 282.179 215.596 281.93L215.972 280.425C216.029 280.195 216.256 280.05 216.489 280.095L220.206 280.816C220.455 280.865 220.614 281.109 220.556 281.355Z" stroke="white" stroke-width="1.95902" stroke-miterlimit="10"/>
<path d="M217.443 281.473L216.297 281.272" stroke="white" stroke-width="1.95902" stroke-miterlimit="10" stroke-linecap="round" stroke-linejoin="round"/>
<path d="M209.59 214.853L218.51 222.246C217.638 225.866 219.152 229.203 220.91 229.821C220.91 229.821 222.213 232.924 219.705 233.447C214.621 234.507 208.821 229.583 208.821 229.583C211.51 226.692 210.538 219.472 209.59 214.853Z" fill="#EBB376"/>
<path opacity="0.2" d="M213.226 217.869L218.505 222.242C218.296 223.098 218.134 223.966 218.081 224.808C216.1 224.558 213.365 222.438 213.139 220.375C213.026 219.344 213.061 218.353 213.226 217.869Z" fill="black"/>
<path d="M217.464 200.243C219.622 201.588 222.546 205.645 218.919 206.621C215.291 207.595 213.753 197.931 217.464 200.243Z" fill="#263238"/>
<path d="M206.323 214.106C210.097 219.083 212.054 222.192 216.437 223.083C223.031 224.424 227.826 217.708 225.608 211.686C223.612 206.265 217.776 199.037 211.344 200.408C205.004 201.762 202.548 209.129 206.323 214.106Z" fill="#FFB573"/>
<path d="M207.439 208.688L202.905 203.398C202.905 203.398 196.917 207.804 199.636 210.472C197.842 214.69 204.966 220.577 211.193 219.368C211.914 215.563 206.367 209.065 206.367 209.065C206.71 208.962 207.071 208.83 207.439 208.688Z" fill="#263238"/>
<path d="M207.2 219.766C208.504 220.826 210.175 221.176 211.545 221.002C213.606 220.74 213.845 218.687 212.61 217.15C211.498 215.767 209.086 214.236 207.336 215.272C205.613 216.295 205.708 218.554 207.2 219.766Z" fill="#FFB573"/>
<path d="M215.127 210.23C215.408 210.652 215.86 210.844 216.134 210.657C216.41 210.47 216.404 209.976 216.123 209.553C215.842 209.131 215.39 208.939 215.116 209.126C214.841 209.313 214.846 209.806 215.127 210.23Z" fill="#263238"/>
<path d="M219.883 206.996C220.164 207.419 220.616 207.61 220.89 207.423C221.165 207.237 221.16 206.742 220.879 206.319C220.598 205.897 220.146 205.706 219.871 205.892C219.596 206.079 219.601 206.574 219.883 206.996Z" fill="#263238"/>
<path d="M218.511 208.235C218.511 208.235 221.054 209.916 222.876 210.334C222.582 211.494 221.104 212.034 221.104 212.034L218.511 208.235Z" fill="#ED893E"/>
<path d="M217.188 214.899C217.003 214.999 216.816 215.116 216.627 215.254C216.561 215.302 216.545 215.397 216.594 215.463C216.642 215.531 216.736 215.544 216.8 215.497C218.608 214.183 220.352 214.835 220.369 214.842C220.446 214.872 220.532 214.831 220.561 214.755C220.59 214.677 220.553 214.591 220.477 214.561C220.407 214.534 218.902 213.972 217.188 214.899Z" fill="#263238"/>
<path d="M211.873 208.841C211.976 208.846 212.08 208.797 212.141 208.702C212.864 207.577 213.963 207.549 213.974 207.549C214.14 207.547 214.272 207.411 214.272 207.247C214.271 207.083 214.136 206.95 213.972 206.952C213.914 206.952 212.536 206.987 211.639 208.384C211.549 208.524 211.589 208.708 211.728 208.797C211.773 208.824 211.822 208.838 211.873 208.841Z" fill="#263238"/>
<path d="M219.936 203.159C219.953 203.105 219.955 203.045 219.938 202.986C219.893 202.826 219.728 202.733 219.571 202.777C217.984 203.216 217.572 204.527 217.546 204.583C217.498 204.74 217.586 204.909 217.743 204.959C217.899 205.009 218.066 204.923 218.115 204.767C218.13 204.712 218.459 203.707 219.734 203.354C219.834 203.326 219.907 203.25 219.936 203.159Z" fill="#263238"/>
<path d="M206.368 209.064C206.368 209.064 218.235 204.078 218.962 198.386C219.689 192.694 214.675 195.027 214.675 195.027C214.675 195.027 216.996 194.868 216.769 196.559C216.769 196.559 212.761 193.824 208.942 196.174C208.942 196.174 210.726 196.139 211.666 197.463C211.666 197.463 208.039 198.171 203.969 201.188C199.9 204.205 192.591 215.006 206.368 209.064Z" fill="#263238"/>
<path opacity="0.3" d="M231.388 291.16L212.045 288.939C212.045 288.939 219.703 287.681 231.813 288.125L231.388 291.16Z" fill="black"/>
<path opacity="0.1" d="M198.187 253.436C198.12 252.65 198.063 251.863 197.996 251.076C197.951 250.458 197.895 249.828 197.839 249.21C197.67 247.636 197.49 246.063 197.265 244.512C197.209 244.085 197.142 243.657 197.074 243.242C197.591 242.826 198.164 242.444 198.771 242.106C198.771 242.106 199.873 247.783 198.187 253.436Z" fill="black"/>
<path d="M165.953 281.051L162.592 288.939L169.87 290.738C169.87 290.738 172.994 285.554 169.944 281.601L165.953 281.051Z" fill="#EBB376"/>
<path d="M163.116 295.02L168.861 295.062L169.87 290.738L162.592 288.939L163.116 295.02Z" fill="#EBB376"/>
<path d="M198.678 239.211C199.178 244.158 197.49 246.168 197.49 246.168C197.49 246.168 192.699 249.179 190.621 250.721C188.854 252.053 187.122 253.405 185.48 254.759C184.668 255.44 183.885 256.129 183.166 256.812C182.456 257.486 181.791 258.189 181.37 258.733C181.183 258.949 180.994 259.302 180.793 259.617C180.588 259.948 180.374 260.442 180.153 260.842C179.714 261.749 179.277 262.708 178.864 263.715C178.033 265.723 177.247 267.817 176.5 269.941C174.943 274.166 173.493 278.523 172.001 282.806L165.362 281.228C166.038 276.565 166.949 272.019 168.001 267.415C168.557 265.126 169.172 262.833 169.877 260.501C170.228 259.337 170.627 258.151 171.077 256.935C171.345 256.296 171.561 255.719 171.897 255.035C172.251 254.341 172.577 253.662 173.065 252.944C173.964 251.6 174.847 250.586 175.735 249.608C176.623 248.641 177.514 247.75 178.412 246.89C180.199 245.174 182.033 243.61 183.891 242.105C187.612 239.081 191.348 236.318 195.351 233.648C195.351 233.648 198.225 234.734 198.678 239.211Z" fill="#407BFF"/>
<path opacity="0.7" d="M198.678 239.211C199.178 244.158 197.49 246.168 197.49 246.168C197.49 246.168 192.699 249.179 190.621 250.721C188.854 252.053 187.122 253.405 185.48 254.759C184.668 255.44 183.885 256.129 183.166 256.812C182.456 257.486 181.791 258.189 181.37 258.733C181.183 258.949 180.994 259.302 180.793 259.617C180.588 259.948 180.374 260.442 180.153 260.842C179.714 261.749 179.277 262.708 178.864 263.715C178.033 265.723 177.247 267.817 176.5 269.941C174.943 274.166 173.493 278.523 172.001 282.806L165.362 281.228C166.038 276.565 166.949 272.019 168.001 267.415C168.557 265.126 169.172 262.833 169.877 260.501C170.228 259.337 170.627 258.151 171.077 256.935C171.345 256.296 171.561 255.719 171.897 255.035C172.251 254.341 172.577 253.662 173.065 252.944C173.964 251.6 174.847 250.586 175.735 249.608C176.623 248.641 177.514 247.75 178.412 246.89C180.199 245.174 182.033 243.61 183.891 242.105C187.612 239.081 191.348 236.318 195.351 233.648C195.351 233.648 198.225 234.734 198.678 239.211Z" fill="white"/>
<path d="M213.773 232.579L216.272 236.506C216.272 236.506 207.558 247.067 190.881 250.551L189.769 253.946L193.315 254.874C193.315 254.874 211.327 250.213 218.514 236.702L222.226 232.567L217.851 231.098L213.773 232.579Z" fill="#407BFF"/>
<path d="M205.698 230.215L209.759 226.662L217.851 231.099L218.786 226.247L223.058 228.705L224.281 234.98L218.32 232.401L212.984 237.159L205.698 230.215Z" fill="#407BFF"/>
<path opacity="0.6" d="M205.698 230.215L209.759 226.662L217.851 231.099L218.786 226.247L223.058 228.705L224.281 234.98L218.32 232.401L212.984 237.159L205.698 230.215Z" fill="white"/>
<path d="M317.182 159.914C317.182 159.914 309.625 169.289 301.955 168.51C294.284 167.732 290.364 170.845 290.364 170.845L289.615 174.587L293.728 174.031C293.728 174.031 293.728 171.066 301.732 171.4C309.736 171.734 315.738 164.853 318.073 161.734L317.182 159.914Z" fill="#407BFF"/>
<path d="M371.475 144.33L371.316 143.593C371.235 143.301 371.279 143.263 371.002 142.534C370.563 141.395 369.823 140.456 369.17 139.868C367.817 138.659 366.703 138.232 365.732 137.848C363.809 137.167 362.277 136.953 360.76 136.767C359.259 136.596 357.836 136.522 356.434 136.485C353.636 136.404 350.94 136.543 348.267 136.711C342.907 137.065 337.751 137.698 332.45 138.614L334.379 149.687C339.226 148.915 344.279 148.208 349.17 147.701C351.622 147.452 354.067 147.299 356.413 147.224C357.582 147.193 358.733 147.198 359.793 147.263C360.538 147.307 361.275 147.391 361.828 147.487C361.863 147.868 361.878 148.285 361.864 148.728C361.793 150.638 361.315 152.875 360.661 155.104C359.342 159.581 357.273 164.231 355.13 168.575L360.464 172.133C363.872 167.823 366.676 163.346 368.998 158.196C370.108 155.6 371.089 152.859 371.534 149.644C371.749 148.032 371.825 146.275 371.475 144.33Z" fill="#407BFF"/>
<path opacity="0.7" d="M371.532 149.646C371.172 152.299 370.43 154.636 369.565 156.828C369.385 157.289 369.194 157.75 369.003 158.2C366.676 163.347 363.866 167.821 360.46 172.126L355.133 168.574C357.268 164.224 359.336 159.582 360.663 155.097C361.112 153.557 361.483 152.006 361.685 150.568C361.787 149.927 361.843 149.309 361.865 148.724C361.877 148.286 361.865 147.87 361.832 147.488C361.281 147.387 360.539 147.308 359.797 147.263C358.729 147.196 357.583 147.196 356.414 147.218C356.324 147.218 356.245 147.229 356.155 147.229C353.885 147.308 351.536 147.465 349.164 147.701C344.421 148.196 339.543 148.87 334.833 149.623C334.676 149.646 334.53 149.668 334.383 149.691L332.45 138.608C337.755 137.698 342.903 137.068 348.265 136.709C350.94 136.54 353.638 136.405 356.436 136.484C357.841 136.518 359.258 136.596 360.764 136.765C362.281 136.956 363.81 137.17 365.732 137.844C366.698 138.226 367.811 138.653 369.171 139.867C369.823 140.452 370.565 141.396 371.003 142.531C371.273 143.262 371.239 143.295 371.318 143.588L371.475 144.329C371.824 146.274 371.745 148.027 371.532 149.646Z" fill="white"/>
<path opacity="0.1" d="M356.156 147.229C353.886 147.308 351.537 147.465 349.165 147.701C344.422 148.196 339.544 148.87 334.834 149.623C336.554 145.397 338.318 141.126 338.318 141.126C338.318 141.126 346.186 141.879 356.156 147.229Z" fill="black"/>
<path opacity="0.1" d="M369.566 156.828C369.386 157.289 369.195 157.75 369.004 158.2C366.677 163.347 363.867 167.821 360.462 172.126L355.134 168.574C357.269 164.224 359.338 159.582 360.664 155.097C361.113 153.557 361.484 152.006 361.687 150.568C364.283 152.31 366.936 154.378 369.566 156.828Z" fill="black"/>
<path d="M297.731 146.557C298.038 146.946 298.08 147.424 297.826 147.624C297.572 147.825 297.117 147.672 296.81 147.283C296.503 146.895 296.461 146.417 296.715 146.217C296.969 146.017 297.424 146.168 297.731 146.557Z" fill="#263238"/>
<path d="M298.117 147.396C298.117 147.396 299.004 150.336 298.886 152.186C300.081 152.285 301.017 151.068 301.017 151.068L298.117 147.396Z" fill="#DE5753"/>
<path d="M297.448 143.275C297.493 143.221 297.52 143.15 297.516 143.074C297.51 142.913 297.374 142.79 297.213 142.796C295.606 142.867 294.911 144.015 294.881 144.065C294.798 144.204 294.845 144.382 294.983 144.463C295.121 144.544 295.3 144.497 295.381 144.362C295.403 144.324 295.956 143.435 297.239 143.377C297.323 143.374 297.397 143.335 297.448 143.275Z" fill="#263238"/>
<path d="M308.926 140.544C312.639 143.22 319.751 147.455 323.786 145.85C323.786 145.85 327.413 148.869 323.929 156.453C320.097 164.792 317.958 158.536 317.958 158.536C318.963 153.486 315.533 152.05 311.997 151.386L308.926 140.544Z" fill="#E4897B"/>
<path d="M310.043 135.495C313.52 140.499 315.809 143.252 315.333 147.605C314.619 154.154 307.001 156.622 302.098 152.757C297.685 149.278 292.741 141.679 295.912 136.089C299.037 130.583 306.565 130.49 310.043 135.495Z" fill="#E4897B"/>
<path d="M315.627 143.754C315.106 146.59 305.561 150.47 301.229 144.355C301.229 144.355 295.793 144.311 292.523 141.035C289.254 137.759 289.955 134.204 292.885 132.271C295.468 130.567 302.145 118.014 309.921 126.973C318.362 126.629 316.278 140.215 315.627 143.754Z" fill="#263238"/>
<path d="M299.501 130.92C299.501 130.92 294.488 130.677 291.598 132.975C288.708 135.272 289.523 142.32 290.635 143.651C291.746 144.98 292.932 144.98 292.932 144.98C292.932 144.98 291.228 144.097 291.228 142.796C291.228 142.796 291.969 144.535 295.378 144.98C295.378 144.98 294.406 144.204 294.559 143.221C294.559 143.221 296.405 145.612 300.672 143.221C304.936 140.83 299.501 130.92 299.501 130.92Z" fill="#263238"/>
<path d="M303.767 143.302C304.688 144.606 305.048 146.238 304.965 147.56C304.841 149.547 303.178 149.703 301.869 148.45C300.692 147.322 299.338 144.927 300.107 143.27C300.867 141.636 302.713 141.812 303.767 143.302Z" fill="#E4897B"/>
<path d="M313.743 159.914C313.743 159.914 312.809 148.597 320.198 142.242L328.997 143.048C328.997 143.048 323.927 155.422 313.743 159.914Z" fill="#407BFF"/>
<path opacity="0.6" d="M313.743 159.914C313.743 159.914 312.809 148.597 320.198 142.242L328.997 143.048C328.997 143.048 323.927 155.422 313.743 159.914Z" fill="white"/>
<path d="M339.111 185.367C339.111 185.367 325.804 172.301 311.094 163.155C311.094 163.155 320.894 140.152 333.3 138.098C333.3 138.098 365.372 147.784 374.677 174.031L339.111 185.367Z" fill="#407BFF"/>
<path d="M340.805 265.065L335.062 267.501L328.849 254.448L334.59 252.011L340.805 265.065Z" fill="#E4897B"/>
<path d="M374.679 174.031L371.292 209.961C369.43 211.339 366.464 212.41 362.884 213.245C355.874 214.877 346.52 215.618 338.442 216.051C329.369 216.545 321.918 216.64 321.244 217.161C319.666 218.389 339.643 259.648 339.643 259.648L330.108 260.837C330.108 260.837 305.05 226.469 301.806 214.529C300.611 210.122 299.407 204.602 307.5 199.444C314.624 194.903 341.153 191.495 341.153 191.495L339.112 185.366L374.679 174.031Z" fill="#263238"/>
<path opacity="0.2" d="M362.884 213.245C355.874 214.877 346.52 215.618 338.441 216.051C337.348 202.792 344.02 190.07 344.02 190.07L353.508 187.635L362.884 213.245Z" fill="black"/>
<path d="M424.413 259.773L425.429 265.927L411.278 268.892L410.263 262.738L424.413 259.773Z" fill="#E4897B"/>
<path d="M425.734 266.153C425.692 266.108 425.627 266.094 425.57 266.117C425.512 266.141 425.476 266.197 425.479 266.259C425.482 266.366 425.567 268.873 426.352 269.608C426.513 269.759 426.695 269.832 426.892 269.825C427.243 269.814 427.388 269.641 427.448 269.497C427.618 269.088 427.306 268.372 426.887 267.69C426.495 267.056 426.01 266.45 425.734 266.153ZM425.799 266.676C426.546 267.577 427.366 268.925 427.175 269.383C427.15 269.443 427.093 269.523 426.881 269.531C426.764 269.534 426.657 269.489 426.553 269.392C426.489 269.332 426.43 269.255 426.374 269.167C425.992 268.546 425.85 267.324 425.799 266.676Z" fill="#407BFF"/>
<path d="M425.683 266.117C425.634 266.097 425.578 266.104 425.536 266.135C425.479 266.179 424.137 267.203 423.999 268.22C423.957 268.53 424.028 268.809 424.212 269.051C424.461 269.374 424.697 269.367 424.853 269.303C425.513 269.029 425.88 267.052 425.773 266.234C425.769 266.213 425.762 266.194 425.752 266.176C425.735 266.151 425.712 266.129 425.683 266.117ZM424.291 268.261C424.382 267.593 425.122 266.876 425.497 266.551C425.507 267.447 425.135 268.865 424.74 269.029C424.707 269.043 424.609 269.083 424.447 268.871C424.429 268.847 424.412 268.823 424.397 268.798C424.299 268.638 424.264 268.462 424.291 268.261Z" fill="#407BFF"/>
<path d="M424.663 266.069L421.091 260.269C420.957 260.052 420.992 259.771 421.175 259.594L425.249 255.637C425.672 255.227 426.364 255.313 426.665 255.819C427.918 257.933 429.657 261.032 431.276 263.661C433.17 266.737 434.973 269.288 437.194 272.894C438.537 275.074 436.705 277.037 435.944 276.247C432.477 272.652 430.289 269.319 425.865 267.093C425.384 266.851 424.946 266.527 424.663 266.069Z" fill="#263238"/>
<path d="M374.681 174.031C374.681 174.031 386.106 203.404 366.83 214.801C366.83 214.801 366.585 248.74 371.457 252.718C377.386 257.558 420.811 260.021 420.811 260.021L420.433 270.804C420.433 270.804 373.945 274.609 359.87 269.56C343.389 263.647 339.719 185.877 339.719 185.877L374.681 174.031Z" fill="#263238"/>
<path opacity="0.2" d="M361.469 192.062L368.408 189.963C368.408 189.963 369.363 195.933 369.349 199.129L366.131 201.893L363.086 200.923C363.086 200.923 362.254 194.541 361.469 192.062Z" fill="black"/>
<path d="M341.401 185.39L342.299 188.245L339.733 189.041L338.829 186.211L341.401 185.39Z" fill="#263238"/>
<path d="M353.244 181.591L354.21 184.553L343.583 187.847L342.645 184.988L353.244 181.591Z" fill="#263238"/>
<path d="M366.47 177.352L367.434 180.451L355.554 184.131L354.611 181.153L366.47 177.352Z" fill="#263238"/>
<path d="M376.134 177.749L368.818 180.018L368.81 180.019L367.829 176.914L375.091 174.586L376.134 177.749Z" fill="#263238"/>
<g opacity="0.2">
<path d="M341.401 185.39L342.299 188.245L339.733 189.041L338.829 186.211L341.401 185.39Z" fill="white"/>
<path d="M353.244 181.591L354.21 184.553L343.583 187.847L342.645 184.988L353.244 181.591Z" fill="white"/>
<path d="M366.47 177.352L367.434 180.451L355.554 184.131L354.611 181.153L366.47 177.352Z" fill="white"/>
<path d="M376.134 177.749L368.818 180.018L368.81 180.019L367.829 176.914L375.091 174.586L376.134 177.749Z" fill="white"/>
</g>
<path d="M333.296 265.678C333.356 265.664 333.402 265.615 333.41 265.554C333.419 265.493 333.389 265.434 333.335 265.403C333.241 265.353 331.033 264.163 330.001 264.469C329.789 264.532 329.634 264.653 329.541 264.826C329.374 265.135 329.45 265.348 329.544 265.472C329.812 265.825 330.588 265.917 331.388 265.898C332.134 265.881 332.901 265.766 333.296 265.678ZM332.812 265.471C331.656 265.662 330.081 265.69 329.78 265.294C329.741 265.243 329.702 265.153 329.802 264.967C329.858 264.864 329.95 264.794 330.086 264.754C330.172 264.729 330.267 264.716 330.371 264.713C331.099 264.695 332.226 265.188 332.812 265.471Z" fill="#407BFF"/>
<path d="M333.356 265.652C333.397 265.62 333.42 265.569 333.413 265.517C333.404 265.446 333.196 263.77 332.388 263.137C332.14 262.944 331.865 262.865 331.563 262.904C331.158 262.954 331.046 263.163 331.022 263.33C330.924 264.038 332.447 265.351 333.208 265.671C333.227 265.679 333.249 265.683 333.269 265.682C333.299 265.681 333.33 265.671 333.356 265.652ZM332.206 263.37C332.737 263.785 332.982 264.785 333.075 265.273C332.296 264.83 331.258 263.794 331.317 263.369C331.321 263.334 331.336 263.23 331.601 263.196C331.63 263.193 331.66 263.19 331.69 263.189C331.875 263.186 332.046 263.244 332.206 263.37Z" fill="#407BFF"/>
<path d="M333.913 264.797L340.722 264.636C340.977 264.63 341.202 264.801 341.262 265.05L342.626 270.563C342.767 271.134 342.344 271.689 341.755 271.693C339.298 271.71 335.745 271.65 332.657 271.723C329.047 271.808 325.933 272.079 321.7 272.179C319.141 272.24 318.369 269.668 319.434 269.408C324.288 268.226 328.268 268.017 332.421 265.318C332.874 265.025 333.375 264.809 333.913 264.797Z" fill="#263238"/>
<path opacity="0.7" d="M374.678 174.037L339.115 185.367C339.115 185.367 332.843 179.219 324.155 172.396C322.502 171.103 320.771 169.788 318.973 168.484C316.444 166.641 313.791 164.831 311.094 163.157C311.094 163.157 320.895 140.148 333.304 138.103C333.304 138.103 365.372 147.78 374.678 174.037Z" fill="white"/>
<path opacity="0.1" d="M324.154 172.396C322.502 171.103 320.771 169.788 318.973 168.484L319.67 166.382C319.67 166.382 322.659 168.9 324.154 172.396Z" fill="black"/>
<path d="M272.77 195.865L270.318 196.449C269.707 196.596 269.243 197.095 269.143 197.715L268.589 201.129C268.472 201.849 268.871 202.554 269.548 202.825L271.34 203.54C271.34 203.54 276.513 207.271 280.886 204.861L278.997 199.858L275.299 196.512C274.614 195.893 273.668 195.651 272.77 195.865Z" fill="#E4897B"/>
<path d="M317.403 164.064C320.546 165.95 320.82 169.839 320.82 169.839C320.82 169.839 318.351 176.539 316.918 179.873C315.944 182.135 314.934 184.406 313.758 186.664C312.543 188.941 311.375 191.173 309.391 193.639L309.005 194.106L308.544 194.601C308.266 194.914 307.855 195.286 307.455 195.631C307.285 195.791 306.974 196.009 306.712 196.192C306.457 196.367 306.102 196.603 305.998 196.643L305.047 197.136C303.81 197.76 302.651 198.247 301.487 198.725C299.178 199.672 296.891 200.495 294.599 201.283C289.999 202.821 285.423 204.227 280.726 205.411L278.496 199.4C282.71 197.241 287.005 195.196 291.197 193.089C293.297 192.048 295.388 191 297.395 189.944C298.384 189.41 299.37 188.863 300.221 188.346L300.825 187.964C300.988 187.871 300.864 187.915 300.852 187.922C300.828 187.925 300.775 187.99 300.812 187.935C300.847 187.874 300.884 187.855 300.986 187.708L301.121 187.539L301.283 187.302C302.192 185.98 303.223 183.958 304.112 181.976C305.003 179.947 305.895 177.854 306.715 175.708C308.347 171.435 309.915 166.978 311.376 162.661C311.374 162.662 314.068 162.063 317.403 164.064Z" fill="#407BFF"/>
<path opacity="0.7" d="M317.403 164.064C320.546 165.95 320.82 169.839 320.82 169.839C320.82 169.839 318.351 176.539 316.918 179.873C315.944 182.135 314.934 184.406 313.758 186.664C312.543 188.941 311.375 191.173 309.391 193.639L309.005 194.106L308.544 194.601C308.266 194.914 307.855 195.286 307.455 195.631C307.285 195.791 306.974 196.009 306.712 196.192C306.457 196.367 306.102 196.603 305.998 196.643L305.047 197.136C303.81 197.76 302.651 198.247 301.487 198.725C299.178 199.672 296.891 200.495 294.599 201.283C289.999 202.821 285.423 204.227 280.726 205.411L278.496 199.4C282.71 197.241 287.005 195.196 291.197 193.089C293.297 192.048 295.388 191 297.395 189.944C298.384 189.41 299.37 188.863 300.221 188.346L300.825 187.964C300.988 187.871 300.864 187.915 300.852 187.922C300.828 187.925 300.775 187.99 300.812 187.935C300.847 187.874 300.884 187.855 300.986 187.708L301.121 187.539L301.283 187.302C302.192 185.98 303.223 183.958 304.112 181.976C305.003 179.947 305.895 177.854 306.715 175.708C308.347 171.435 309.915 166.978 311.376 162.661C311.374 162.662 314.068 162.063 317.403 164.064Z" fill="white"/>
<path d="M111.845 462.319H301.669L402.129 381.17L406.534 386.624H431.278L456.484 270.592L431.731 270.641L431.742 270.592L313.002 270.828L327.178 288.376L111.845 462.319Z" fill="#407BFF"/>
<path opacity="0.2" d="M111.845 462.319H276.927L392.359 369.076L406.534 386.624L431.742 270.592L313.003 270.828L327.178 288.376L111.845 462.319Z" fill="white"/>
<path d="M107.982 455.622H244.277C244.213 455.046 244.174 454.46 244.174 453.867C244.174 445.115 251.269 438.022 260.019 438.022C260.214 438.022 260.403 438.044 260.596 438.051C262.582 432.722 267.701 428.92 273.721 428.92C281.463 428.92 287.74 435.196 287.74 442.938C287.74 442.949 287.738 442.959 287.738 442.97C294.603 443.29 300.102 448.767 300.46 455.622H301.097C304.972 455.622 308.142 458.792 308.142 462.668C308.142 466.542 304.973 469.712 301.097 469.712H107.982C104.107 469.712 100.938 466.542 100.938 462.668C100.938 458.792 104.107 455.622 107.982 455.622Z" fill="#407BFF"/>
<path opacity="0.7" d="M107.982 455.622H244.277C244.213 455.046 244.174 454.46 244.174 453.867C244.174 445.115 251.269 438.022 260.019 438.022C260.214 438.022 260.403 438.044 260.596 438.051C262.582 432.722 267.701 428.92 273.721 428.92C281.463 428.92 287.74 435.196 287.74 442.938C287.74 442.949 287.738 442.959 287.738 442.97C294.603 443.29 300.102 448.767 300.46 455.622H301.097C304.972 455.622 308.142 458.792 308.142 462.668C308.142 466.542 304.973 469.712 301.097 469.712H107.982C104.107 469.712 100.938 466.542 100.938 462.668C100.938 458.792 104.107 455.622 107.982 455.622Z" fill="white"/>
</svg>
