<svg width="451" height="400" viewBox="0 0 451 400" fill="none" xmlns="http://www.w3.org/2000/svg">
<path d="M254.136 160.856C254.136 160.856 251.594 157.06 250.669 154.344C250.518 153.913 250.411 153.508 250.362 153.151C249.992 150.543 252.265 146.066 252.265 146.066C252.265 146.066 252.913 146.372 253.846 146.919C254.858 147.513 256.206 148.383 257.415 149.435C259.735 151.455 254.136 160.856 254.136 160.856Z" fill="#E4B69D"/>
<path d="M254.137 160.855C254.137 160.855 251.595 157.059 250.67 154.343C251.279 151.951 252.471 149.368 253.847 146.919C254.859 147.514 256.207 148.384 257.416 149.436C259.736 151.455 254.137 160.855 254.137 160.855Z" fill="#E4B69D"/>
<path d="M265.988 142.971L260.497 151.408C260.497 151.408 256.691 149.025 253.76 147.076C253.222 146.719 252.716 146.376 252.266 146.067C252.266 146.067 251.093 148.505 250.59 150.404C250.454 150.914 250.37 151.387 250.368 151.763C250.368 151.763 243.677 147.903 242.866 143.133C242.061 138.366 246.236 133.926 250.724 135.099C252.756 135.623 256.078 137.293 259.106 138.955C262.762 140.965 265.988 142.971 265.988 142.971Z" fill="#0071BC"/>
<path opacity="0.3" d="M265.989 142.971L260.497 151.409C260.497 151.409 256.691 149.025 253.761 147.076C255.502 143.954 257.551 141.03 259.106 138.956C262.762 140.965 265.989 142.971 265.989 142.971Z" fill="#0071BC"/>
<path d="M264.094 158.158L255.042 164.369L253.923 162.79C253.923 162.79 253.112 161.294 252.74 159.062C252.366 156.826 252.438 153.856 254.216 150.916C256.614 146.949 259.099 142.33 261.243 139.745C262.273 138.498 263.22 137.73 264.049 137.72C266.603 137.696 268.801 141.079 268.801 141.079C268.801 141.079 272.991 138.902 275.733 142.495C278.48 146.09 264.094 158.158 264.094 158.158Z" fill="#E4B69D"/>
<path d="M264.094 158.157L255.042 164.369L253.923 162.789C253.923 162.789 253.112 161.293 252.74 159.062C255.934 156.696 264.852 149.914 269.464 144.659C269.464 144.659 267.831 143.389 266.864 144.126C266.864 144.126 264.474 139.129 261.244 139.744C262.274 138.497 263.221 137.728 264.05 137.718C266.603 137.695 268.801 141.077 268.801 141.077C268.801 141.077 272.992 138.9 275.734 142.493C278.48 146.09 264.094 158.157 264.094 158.157Z" fill="#E4B69D"/>
<path opacity="0.5" d="M252.266 146.067C252.266 146.067 251.093 148.505 250.59 150.404C243.989 146.126 246.137 142.436 247.223 142.984C248.323 143.542 252.266 146.067 252.266 146.067Z" fill="#0071BC"/>
<path d="M283.571 134.949L278.454 139.845L274.447 143.682L271.88 142.01L260.174 134.373C259.8 134.125 259.711 133.703 259.836 133.359C259.948 133.04 260.236 132.79 260.641 132.791C263.971 132.783 270.153 132.985 278.472 134.151C280.094 134.376 281.798 134.642 283.571 134.949Z" fill="#E6E6E6"/>
<path d="M283.571 134.949L278.454 139.845C271.534 135.659 263.512 133.958 259.836 133.359C259.948 133.04 260.236 132.79 260.64 132.791C264.62 132.782 272.67 133.068 283.571 134.949Z" fill="#E6E6E6"/>
<path d="M283.569 134.949L278.452 139.845L274.445 143.682L271.878 142.01C273.678 140.233 276.464 137.259 278.47 134.152C280.092 134.376 281.796 134.641 283.569 134.949Z" fill="#E6E6E6"/>
<path d="M277.33 75.6274C277.492 75.9657 277.615 76.304 277.689 76.6455C278.109 78.4779 277.308 80.3341 275.779 82.0917C274.798 83.2226 271.98 84.8695 269.601 86.1381C267.599 87.2158 265.906 88.0225 265.906 88.0225L259.948 79.1035C259.948 79.1035 260.973 77.9228 262.454 76.5241C264.298 74.7828 266.847 72.6989 268.99 72.1437C269.404 72.031 269.806 71.9833 270.181 72.0028C274.071 72.2099 276.278 73.4719 277.33 75.6274Z" fill="#D5938A"/>
<path d="M280.244 78.8874C279.976 79.6432 279.609 80.4249 279.142 81.2186C275.89 86.7168 272.396 86.8924 270.529 86.6647C270.234 86.63 269.914 86.4403 269.602 86.1378C268.263 84.8638 266.938 81.5525 267.25 79.0089C267.25 79.0089 267.255 79.0002 267.253 78.9959C267.336 78.3432 267.525 77.7371 267.853 77.2351C269.259 75.0752 271.927 76.385 273.363 78.3323C273.87 79.0197 274.223 79.7874 274.312 80.5051C274.38 80.4119 275.229 79.1856 274.848 77.5506C274.736 77.08 274.524 76.5791 274.162 76.063C273.014 74.416 270.334 74.1146 267.733 75.2531C266.556 75.7713 265.392 76.5845 264.392 77.7035C262.579 79.7375 262.33 78.2206 262.457 76.5238C262.553 75.2205 262.869 73.8099 262.869 73.8099L267.492 69.4805C267.492 69.4805 269.16 68.9774 271.395 68.8603C272.923 68.7855 274.716 68.8929 276.415 69.474C279.998 70.6927 281.828 74.3922 280.244 78.8874Z" fill="#E4B69D"/>
<path d="M280.243 78.8874C279.975 79.6432 279.609 80.4249 279.142 81.2186C275.89 86.7168 272.395 86.8924 270.528 86.6647C270.233 86.63 269.914 86.4403 269.601 86.1378C267.599 87.2155 265.906 88.0222 265.906 88.0222L259.948 79.1032C259.948 79.1032 260.973 77.9225 262.454 76.5238C262.55 75.2205 262.866 73.8099 262.866 73.8099L267.489 69.4805C267.489 69.4805 269.158 68.9774 271.392 68.8604C270.367 69.9565 269.584 71.0679 268.99 72.1434C268.399 73.2168 267.998 74.2642 267.73 75.2531C267.348 76.6474 267.237 77.9257 267.252 78.9959C267.254 79.0002 267.248 79.0089 267.248 79.0089C267.285 80.9638 267.739 82.2193 267.739 82.2193C267.739 82.2193 270.477 79.9739 273.361 78.3323C273.856 78.0461 274.359 77.7826 274.847 77.5506C275.871 77.0627 276.862 76.7157 277.689 76.6452C278.415 76.5791 279.017 76.7266 279.413 77.1765C279.873 77.6948 280.127 78.2835 280.243 78.8874Z" fill="#E4B69D"/>
<path d="M277.28 56.2377C273.509 61.6687 268.706 69.4503 266.309 73.3894C265.307 75.0331 264.973 76.9945 265.386 78.8778C265.827 80.8978 266.485 83.3731 267.208 84.3836C267.208 84.3836 275.568 77.3599 277.825 78.1373C281.831 79.5164 278.324 84.865 273.95 88.1047C269.576 91.3434 263.673 95.3854 263.673 95.3854L262.17 97.2579L257.015 103.671L250.021 95.0938L254.83 88.6327L255.524 87.7003C255.524 87.7003 256.614 77.593 258.636 74.299C262.725 67.6385 275.065 47.7762 278.356 46.7874C281.647 45.8029 282.531 48.6859 277.28 56.2377Z" fill="#E4B69D"/>
<path d="M262.17 97.258L257.014 103.671L250.021 95.0927L254.829 88.6328L262.17 97.258Z" fill="#E4B69D"/>
<path d="M256.907 108.053L254.15 111.748L239.49 131.377L238.707 133.635L235.764 137.325L224.911 154.41L217.097 166.706L199.66 165.331L197.463 164.021L197.445 164.009L197.509 163.919L203.862 155.185L226.853 123.573L226.963 120.545L229.18 119.973L244.398 99.7906L245.803 97.9268L256.907 108.053Z" fill="white"/>
<path opacity="0.7" d="M224.914 154.411L217.101 166.707L199.664 165.331L197.468 164.021L197.513 163.919L203.868 155.185L206.611 156.107C206.609 156.107 216.214 154.41 224.914 154.411Z" fill="#9EBECA"/>
<path d="M179.714 191.858C179.714 191.858 176.546 188.469 174.195 184.857C172.381 182.063 171.049 179.137 172.047 177.534C172.51 176.789 173.028 176.023 173.668 175.402C176.209 172.943 180.694 172.726 191.388 184.968C191.482 185.075 191.577 185.182 191.67 185.289C191.774 185.412 191.883 185.533 191.989 185.65C195.038 189.14 197.672 192.124 199.916 194.648C207.224 202.868 210.419 206.229 210.419 206.229L184.274 199.283L179.714 191.858Z" fill="#0071BC"/>
<path opacity="0.5" d="M191.989 185.65L193.751 198.29L183.58 196.301C183.58 196.301 181.985 184.923 178.524 179.522C177.095 177.298 175.294 176.068 173.668 175.403C176.209 172.944 180.694 172.727 191.388 184.969C191.587 185.198 191.788 185.425 191.989 185.65Z" fill="#0071BC"/>
<path opacity="0.3" d="M183.987 198.812L179.714 191.858C179.714 191.858 176.545 188.469 174.195 184.857C176.699 185.494 183.939 186.984 191.671 185.289C191.775 185.413 191.883 185.533 191.989 185.65C195.038 189.14 197.673 192.124 199.916 194.648L183.987 198.812Z" fill="#0071BC"/>
<path d="M248.818 165.158C248.818 165.158 246.737 167.079 241.075 171.393C237.893 173.814 233.583 176.991 227.877 181.011C220.096 186.491 209.797 191.053 201.33 194.279C197.78 195.631 194.551 196.745 191.961 197.598C191.957 197.601 191.957 197.601 191.957 197.601C188.134 198.859 185.709 199.537 185.709 199.537C185.709 199.537 185.635 198.566 185.518 197.063C185.296 194.346 184.945 189.881 184.647 186.279C184.547 185.062 184.451 183.945 184.371 183.028C184.03 179.147 184.752 174.736 185.124 172.827C185.238 172.217 185.323 171.864 185.323 171.864L186.304 170.216L186.509 169.874L186.861 169.282L197.998 161.194L202.083 158.224C202.083 158.224 215.41 158.415 223.11 158.23C228.075 158.109 237.342 161.029 243.284 163.116C246.551 164.261 248.818 165.158 248.818 165.158Z" fill="white"/>
<path opacity="0.7" d="M200.103 192.679C200.685 193.275 201.091 193.805 201.329 194.277C197.779 195.629 194.549 196.744 191.96 197.597C191.956 197.599 191.956 197.599 191.956 197.599C189.874 197.504 187.655 197.304 185.518 197.061C185.225 193.423 184.69 186.655 184.371 183.027C184.03 179.145 184.752 174.735 185.124 172.825C185.238 172.216 185.323 171.862 185.323 171.862L186.304 170.214L186.509 169.873L189.35 169.172C189.35 169.172 190.975 183.374 200.103 192.679Z" fill="#9EBECA"/>
<path opacity="0.5" d="M189.661 178.924C189.661 178.924 190.212 172.193 196.651 170.652C203.091 169.11 239.417 173.207 239.417 173.207L225.105 187.827L189.661 178.924Z" fill="#9EBECA"/>
<path opacity="0.5" d="M248.819 165.158C248.819 165.158 246.738 167.079 241.076 171.393C235.451 169.47 226.904 166.619 220.649 164.855C210.51 161.995 199.893 162.98 199.893 162.98L197.54 162.153L198.001 161.194L202.086 158.224C202.086 158.224 215.413 158.415 223.113 158.23C230.809 158.042 248.819 165.158 248.819 165.158Z" fill="#9EBECA"/>
<path d="M199.313 190.467C199.313 190.467 189.611 185.776 189.321 181.834C189.03 177.893 190.16 170.949 200.633 172.041C211.105 173.134 231.813 176.319 231.813 176.319C231.813 176.319 219.019 185.318 213.047 187.852C207.075 190.386 201.382 191.753 201.382 191.753L199.313 190.467Z" fill="white"/>
<path d="M204.438 158.697L195.322 162.595L193.145 161.586L195.505 159.408L198.446 156.696L200.511 157.383L204.438 158.697Z" fill="white"/>
<path opacity="0.7" d="M204.438 158.696L195.322 162.594L193.145 161.586L195.505 159.408L197.82 158.524L198.549 158.786L200.511 157.382L204.438 158.696Z" fill="#9EBECA"/>
<path d="M195.296 161.969L190.385 166.691L186.492 167.521C184.901 166.106 183.25 164.798 181.673 163.63C177.071 160.208 173.105 157.991 173.105 157.991L178.413 153.451L186.389 153.948L192.877 159.791L195.296 161.969Z" fill="#E4B69D"/>
<path d="M192.877 159.791C188.829 162.858 184.461 163.553 181.673 163.63C177.071 160.208 173.105 157.991 173.105 157.991L178.413 153.451L186.389 153.948L192.877 159.791Z" fill="#E4B69D"/>
<path opacity="0.5" d="M256.909 108.053L254.152 111.748L244.4 99.7906L245.806 97.9268L256.909 108.053Z" fill="#9EBECA"/>
<path d="M244.654 98.2816L257.269 110.72L263.646 101.911L251.481 89.5122L244.654 98.2816Z" fill="white"/>
<path opacity="0.7" d="M210.989 167.239L185.125 172.827C185.239 172.217 185.323 171.864 185.323 171.864L186.305 170.216L204.045 160.143L210.989 167.239Z" fill="#9EBECA"/>
<path d="M201.56 115.302C202.681 123.613 193.312 117.563 186.6 112.3C182.975 109.458 180.123 106.84 180.123 106.84L191.84 96.0747C191.84 96.0747 195.275 98.8395 198.125 104.345C199.627 107.239 200.965 110.89 201.56 115.302Z" fill="#07558D"/>
<path opacity="0.5" d="M198.125 104.345C194.34 107.519 190.421 110.143 186.6 112.3C182.975 109.458 180.123 106.84 180.123 106.84L191.84 96.0747C191.84 96.0747 195.275 98.8395 198.125 104.345Z" fill="#0071BC"/>
<path d="M206.107 121.449C211.732 136.339 206.704 152.035 194.876 156.503C193.567 156.997 192.229 157.332 190.883 157.52C180.025 159.024 168.277 150.87 163.276 137.628C161.242 132.244 160.601 126.752 161.172 121.729C161.311 120.522 161.516 119.338 161.788 118.196C163.531 110.918 167.981 105.04 174.507 102.576C176.233 101.924 178.01 101.559 179.801 101.436C181.875 100.021 184.644 98.5046 188.053 97.4604C188.053 97.4604 192.352 99.5108 195.424 106.506C195.459 106.587 195.496 106.67 195.531 106.75C199.996 110.246 203.782 115.295 206.107 121.449Z" fill="#E4B69D"/>
<path d="M195.425 106.504C180.972 117.506 165.386 120.96 161.174 121.729C162.18 112.858 166.956 105.429 174.509 102.575C176.234 101.923 178.012 101.558 179.803 101.435C181.877 100.02 184.646 98.5036 188.055 97.4595C188.055 97.4595 192.353 99.5098 195.425 106.504Z" fill="#E4B69D"/>
<path d="M181.853 157.927C181.853 157.927 192.421 163.575 201.398 152.652C201.398 152.652 192.722 158.791 185.292 154.67L181.853 157.927Z" fill="#333333"/>
<path d="M182.934 120.567C184.511 122.425 185.036 124.571 184.107 125.359C183.178 126.147 181.146 125.281 179.569 123.423C177.993 121.564 177.467 119.418 178.395 118.63C179.324 117.841 181.356 118.708 182.934 120.567Z" fill="#231F20"/>
<path d="M194.987 111.166C195.954 112.589 196.161 114.133 195.451 114.616C194.739 115.1 193.379 114.339 192.411 112.917C191.444 111.495 191.237 109.95 191.947 109.466C192.66 108.983 194.019 109.744 194.987 111.166Z" fill="#231F20"/>
<path d="M173.221 118.689C173.221 118.689 173.342 115.105 177.713 114.191" stroke="#231F20" stroke-width="5.42122" stroke-miterlimit="10" stroke-linecap="round"/>
<path d="M187.629 108.824C187.629 108.824 187.864 105.935 190.914 105.814" stroke="#231F20" stroke-width="5.42122" stroke-miterlimit="10" stroke-linecap="round"/>
<path d="M204.125 136.843C203.515 137.679 202.733 138.461 201.742 139.167C197.685 142.071 193.76 141.09 190.904 139.463C189.87 138.875 188.977 138.199 188.276 137.588C187.13 136.608 186.466 135.798 186.466 135.798C195.293 134.974 200.365 129.275 202.7 125.729C203.796 124.068 204.288 122.878 204.288 122.878C204.288 122.878 208.381 131.029 204.125 136.843Z" fill="#6A4642"/>
<path d="M204.125 136.845C203.515 137.676 202.733 138.462 201.743 139.168C197.682 142.068 193.757 141.093 190.905 139.463C191.708 138.381 193.4 136.738 196.078 137.142C196.078 137.142 199.081 132.528 204.125 136.845Z" fill="#F28FB3"/>
<path d="M203.51 127.544C198.429 135.3 190.89 137.164 188.276 137.588C187.13 136.608 186.466 135.798 186.466 135.798C195.293 134.974 200.365 129.275 202.7 125.729L203.51 127.544Z" fill="white"/>
<path d="M198.134 119.333C199.31 120.579 198.512 123.244 196.35 125.286C194.19 127.327 191.483 127.972 190.306 126.727C189.129 125.481 189.927 122.816 192.089 120.774C194.251 118.733 196.958 118.087 198.134 119.333Z" fill="#D5938A"/>
<path d="M190.883 157.52C180.025 159.024 168.277 150.87 163.276 137.628C161.242 132.244 160.601 126.752 161.172 121.729C161.311 120.522 161.516 119.338 161.788 118.196L165.007 117.854C165.007 117.854 163.014 119.771 167.121 124.818C171.227 129.865 189.708 151.734 191.186 154.28C191.723 155.211 191.45 156.39 190.883 157.52Z" fill="#E4B69D"/>
<path d="M164.989 124.598C166.354 128.212 184.097 149.811 186.734 152.504C186.917 152.689 187.074 152.872 187.209 153.05C187.412 153.311 187.563 153.565 187.667 153.813C187.702 153.895 187.731 153.978 187.755 154.059C187.769 154.111 187.782 154.158 187.796 154.209C187.937 154.802 187.798 155.367 187.426 155.917C187.398 155.963 187.362 156.008 187.33 156.056C187.3 156.099 187.265 156.143 187.227 156.194C187.154 156.288 187.075 156.381 186.985 156.472C186.9 156.561 186.811 156.652 186.711 156.746C186.66 156.79 186.612 156.84 186.561 156.885C186.353 157.072 186.122 157.258 185.873 157.445C185.748 157.539 185.618 157.634 185.485 157.732C185.35 157.829 185.206 157.925 185.061 158.021C184.99 158.069 184.916 158.118 184.836 158.167C184.687 158.265 184.533 158.365 184.374 158.466C183.833 158.8 183.241 159.152 182.604 159.517C181.902 159.922 180.866 160.163 179.61 160.291C178.654 160.389 177.566 160.416 176.415 160.396C167.296 159.518 158.228 154.923 151.51 147.111C150.749 146.234 150.023 145.313 149.329 144.354C137.447 127.9 139.787 105.913 154.561 95.24C162.248 89.6865 171.794 88.2965 180.852 90.5615C186 91.8463 190.988 94.313 195.393 97.866C170.286 105.386 163.684 121.144 164.989 124.598Z" fill="#0071BC"/>
<path opacity="0.3" d="M164.988 124.598C166.353 128.212 184.095 149.811 186.732 152.504C186.915 152.689 187.073 152.872 187.207 153.05C187.48 153.402 187.657 153.734 187.753 154.059C187.768 154.111 187.781 154.158 187.795 154.209C187.93 154.8 187.791 155.363 187.425 155.916C187.397 155.963 187.361 156.007 187.328 156.056C187.298 156.099 187.263 156.143 187.225 156.194C187.151 156.284 187.071 156.376 186.984 156.472C186.898 156.56 186.809 156.652 186.709 156.746C186.658 156.79 186.611 156.84 186.56 156.885C186.352 157.072 186.121 157.258 185.871 157.445C185.747 157.538 185.616 157.634 185.483 157.731C185.343 157.826 185.202 157.92 185.059 158.021C184.989 158.069 184.915 158.117 184.835 158.167C184.685 158.265 184.53 158.36 184.372 158.461L184.374 158.465C183.833 158.799 183.241 159.152 182.603 159.517C181.902 159.922 180.865 160.163 179.61 160.291C178.653 160.389 177.566 160.416 176.414 160.395C167.296 159.518 158.227 154.923 151.509 147.111C154.114 148.006 157.48 148.794 160.043 148.1C161.067 147.823 161.554 147.168 161.691 146.313C149.866 132.994 147.3 116.995 155.767 104.353C162.851 93.7751 173.147 90.9734 180.851 90.5625C185.999 91.8473 190.988 94.314 195.393 97.8671C170.284 105.386 163.682 121.144 164.988 124.598Z" fill="#0071BC"/>
<path d="M200.572 95.3029C196.715 98.8603 185.26 108.579 166.264 117.638C165.55 117.981 164.843 117.244 165.256 116.585C165.358 116.417 165.469 116.246 165.585 116.062C168.711 111.13 176.002 100.66 183.788 96.6842C183.788 96.6842 192.262 94.4864 199.295 93.9942C199.532 93.9768 199.768 93.9606 200.003 93.9497C200.758 93.9074 201.127 94.7878 200.572 95.3029Z" fill="#29ABE2"/>
<path opacity="0.3" d="M200.572 95.3029C196.715 98.8603 185.26 108.579 166.264 117.638C165.55 117.981 164.843 117.244 165.256 116.586C165.358 116.417 165.469 116.246 165.585 116.062C169.872 114.013 181.561 108.076 193.79 98.831C196.648 96.6701 198.375 95.1066 199.296 93.9931C199.533 93.9758 199.769 93.9595 200.004 93.9487C200.758 93.9075 201.127 94.7879 200.572 95.3029Z" fill="white"/>
<path opacity="0.7" d="M248.82 165.158C248.82 165.158 246.74 167.079 241.078 171.393C237.896 173.814 233.586 176.991 227.879 181.01C220.099 186.491 209.8 191.053 201.333 194.278C197.783 195.63 194.553 196.745 191.964 197.598C191.959 197.6 191.959 197.6 191.959 197.6C188.136 198.859 185.711 199.537 185.711 199.537C185.711 199.537 185.637 198.565 185.52 197.063C185.299 194.345 184.948 189.881 184.649 186.279C192.278 186.267 213.312 184 243.286 163.114C246.553 164.261 248.82 165.158 248.82 165.158Z" fill="#9EBECA"/>
<path d="M114.58 343.674L119.343 338.095L124.108 332.521C124.108 332.521 119.801 336.49 112.337 340.416C104.867 344.344 94.2396 348.224 81.6006 348.043L87.1823 343.403L92.7672 338.769C92.7672 338.769 87.7038 339.982 80.1553 341.237C72.6024 342.495 52.3477 343.991 52.3477 343.991C52.3477 343.991 62.8334 326.597 67.3666 320.427C71.8955 314.26 75.2653 310.29 75.2653 310.29L68.6081 313.18L61.9476 316.064C67.4956 304.705 75.7576 296.976 82.636 292.088C89.5101 287.202 94.9975 285.153 94.9975 285.153L87.8718 286.887L80.7429 288.615C90.1531 279.064 98.7999 275.073 105.571 273.62C106.594 273.397 107.575 273.235 108.505 273.118C112.92 272.574 116.289 273.091 118.211 273.559L144.936 317.046C144.485 318.973 143.425 322.213 140.945 325.906C139.809 327.598 138.375 329.383 136.566 331.184C132.018 335.709 125.098 340.31 114.58 343.674Z" fill="#FCEE21"/>
<path d="M142.004 312.272L121.149 278.335C119.813 277.869 117.491 277.278 114.521 277.41C109.738 277.623 103.284 279.71 96.5939 287.206L101.335 286.36L106.077 285.514C106.077 285.514 102.47 286.696 98.0955 289.902C93.7206 293.107 88.578 298.336 85.5053 306.43L89.8564 304.697L94.2074 302.963C94.2074 302.963 92.1604 305.702 89.4574 310.002C86.7544 314.302 80.6978 326.571 80.6978 326.571C80.6978 326.571 94.3798 326.71 99.4378 326.24C104.496 325.772 107.864 325.182 107.864 325.182L104.352 328.281L100.84 331.38C109.449 332.295 116.437 330.068 121.272 327.613C126.108 325.158 128.793 322.475 128.793 322.475L125.897 326.323L123.001 330.171C132.71 327.588 137.487 322.772 139.838 318.602C141.295 316.013 141.818 313.675 142.004 312.272Z" fill="#FBB03B"/>
<path d="M130.454 307.825L119.898 290.649C119.239 290.403 118.095 290.084 116.642 290.121C114.302 290.18 111.159 291.159 107.956 294.841L110.27 294.465L112.585 294.088C112.585 294.088 110.83 294.643 108.718 296.203C106.606 297.762 104.138 300.326 102.713 304.342L104.827 303.518L106.942 302.694C106.942 302.694 105.966 304.043 104.684 306.167C103.403 308.291 100.557 314.365 100.557 314.365C100.557 314.365 107.262 314.57 109.735 314.385C112.208 314.201 113.853 313.94 113.853 313.94L112.162 315.454L110.472 316.969C114.7 317.512 118.101 316.468 120.446 315.289C122.791 314.109 124.079 312.794 124.079 312.794L122.698 314.689L121.317 316.584C126.048 315.389 128.342 313.029 129.452 310.967C130.144 309.688 130.377 308.524 130.454 307.825Z" fill="#F7931E"/>
<path opacity="0.5" d="M136.571 331.185C122.921 311.033 110.52 284.618 105.576 273.62C106.598 273.397 107.579 273.235 108.51 273.118C112.925 272.574 116.293 273.091 118.216 273.559L144.94 317.046C144.489 318.973 143.43 322.213 140.949 325.906C139.814 327.599 138.38 329.384 136.571 331.185Z" fill="#F7931E"/>
<path d="M130.645 387.355C127.714 389.029 124.888 388.319 123.629 386.547C122.701 385.233 122.628 383.345 124.001 381.391C132.119 369.875 142.596 353.88 149.775 338.754C154.594 328.617 157.931 318.867 158.077 311.12C175.468 300.51 192.559 294.814 206.023 291.744C214.302 289.863 221.211 288.981 225.971 288.558C229.631 288.242 232.015 288.2 232.787 288.195C232.963 288.192 233.056 288.192 233.056 288.192C233.007 288.287 232.961 288.385 232.912 288.48C230.66 293.041 227.298 299.544 223.074 306.798C218.521 314.615 212.964 323.299 206.724 331.365C200.765 339.059 194.18 346.183 187.233 351.448C170.96 363.797 147.136 377.975 130.645 387.355Z" fill="#0071BC"/>
<path opacity="0.5" d="M130.645 387.355C127.713 389.029 124.887 388.319 123.628 386.547C205.099 335.422 205.794 301.242 205.794 301.242L206.022 291.745C220.666 288.42 231.014 288.204 232.786 288.196C232.825 288.293 232.868 288.386 232.912 288.481C225.919 302.66 208.198 335.55 187.231 351.449C170.959 363.797 147.135 377.975 130.645 387.355Z" fill="#0071BC"/>
<path opacity="0.5" d="M206.722 331.367C191.613 335.475 166.675 341.082 149.773 338.755C154.593 328.618 157.93 318.868 158.075 311.121C175.467 300.511 192.558 294.815 206.022 291.745C214.301 289.864 221.21 288.981 225.97 288.559L223.073 306.799C218.521 314.616 212.964 323.3 206.722 331.367Z" fill="#0071BC"/>
<path d="M391.775 140.49C389.931 146.327 386.643 155.883 381.635 167.585C380.585 170.027 379.462 172.574 378.258 175.201C377.033 177.885 375.717 180.655 374.319 183.491C358.037 216.578 330.292 258.861 286.82 285.577C242.391 312.88 197.364 328.749 162.472 331.601C158.835 331.898 155.311 332.052 151.915 332.065C146.561 332.082 141.604 329.266 138.802 324.707L108.607 275.573C108.192 274.896 107.828 274.193 107.531 273.479C105.785 269.352 105.896 264.614 107.967 260.552C108.636 259.236 109.346 257.914 110.087 256.578C111.05 254.844 112.076 253.101 113.149 251.343C124.832 232.305 143.099 211.983 166.339 192.678C166.549 192.503 166.761 192.328 166.971 192.153C169.406 190.134 171.895 188.127 174.444 186.134C181.982 190.098 196.933 188.076 214.446 181.114C219.534 179.095 224.839 176.659 230.238 173.83C234.066 171.83 237.941 169.63 241.823 167.246C258.63 156.917 272.251 145.121 280.487 134.575C283.609 133.958 286.715 133.402 289.79 132.904C291.239 132.674 292.682 132.451 294.118 132.245C313.639 129.42 332.044 128.905 347.589 129.393C348.463 129.419 349.317 129.45 350.162 129.483C353.049 129.594 355.826 129.741 358.481 129.91C371.184 130.728 381.194 132.112 387.235 133.104C388.75 133.349 390.016 134.162 390.865 135.277C391.955 136.697 392.369 138.618 391.775 140.49Z" fill="#29ABE2"/>
<path opacity="0.5" d="M294.118 132.245C285.471 148.946 261.993 171.96 227.615 187.518C192.101 203.586 172.293 195.172 166.972 192.153C169.407 190.134 171.895 188.127 174.444 186.134C185.719 192.064 213.591 184.596 241.823 167.246C258.629 156.917 272.251 145.121 280.487 134.575C283.608 133.958 286.715 133.402 289.79 132.904C291.239 132.673 292.682 132.451 294.118 132.245Z" fill="#5991A6"/>
<path opacity="0.5" d="M230.157 179.325C226.843 187.8 204.358 207.3 204.358 207.3L188.118 208.002L192.005 201.068L214.45 181.115C219.538 179.097 224.843 176.66 230.242 173.832C231.015 174.895 231.223 176.603 230.157 179.325Z" fill="#5991A6"/>
<path d="M162.47 331.6C158.836 331.899 155.311 332.053 151.913 332.065C146.562 332.083 141.603 329.265 138.802 324.708L108.608 275.574C105.808 271.017 105.534 265.319 107.966 260.553C109.512 257.527 111.242 254.452 113.15 251.344L162.47 331.6Z" fill="#CCCCCC"/>
<path opacity="0.5" d="M391.775 140.49C389.931 146.327 386.643 155.883 381.635 167.585C380.585 170.027 379.463 172.574 378.258 175.201C377.033 177.885 375.718 180.654 374.319 183.491C358.037 216.578 330.292 258.861 286.82 285.577C242.391 312.88 197.364 328.749 162.472 331.601C158.835 331.898 155.311 332.052 151.915 332.065C146.561 332.082 141.604 329.265 138.803 324.707L128.75 308.349C170.825 297.834 301.104 256.775 390.866 135.274C391.955 136.697 392.369 138.618 391.775 140.49Z" fill="#5991A6"/>
<path opacity="0.5" d="M129.435 264.516C129.435 264.516 118.264 270.727 107.531 273.476C105.786 269.351 105.895 264.612 107.965 260.553C108.636 259.238 109.344 257.914 110.086 256.576C117.794 258.183 126.173 260.712 129.435 264.516Z" fill="#5991A6"/>
<path d="M129.435 264.515C112.051 256.129 74.6373 259.761 51.3499 263.171C48.5569 263.579 46.7462 262.217 46.2648 260.345C45.7845 258.5 46.5944 256.161 49.0318 254.55C64.8499 244.075 88.2609 229.227 106.628 220.286C130.449 208.683 168.145 207.801 183.762 207.98C183.762 207.98 173.683 228.394 150.866 248.56C144.682 254.037 137.553 259.492 129.435 264.515Z" fill="#0071BC"/>
<path opacity="0.5" d="M129.435 264.516C112.052 256.129 74.6377 259.761 51.3502 263.171C48.5572 263.579 46.7465 262.217 46.2651 260.346C85.9821 240.247 132.009 245.251 150.865 248.56C144.682 254.038 137.553 259.492 129.435 264.516Z" fill="#0071BC"/>
<path opacity="0.5" d="M374.318 183.493C359.94 159.287 351.199 138.608 347.59 129.393C348.459 129.42 349.316 129.448 350.162 129.483C353.046 129.594 355.825 129.743 358.48 129.91L381.633 167.586C380.582 170.031 379.459 172.577 378.257 175.2C377.03 177.886 375.717 180.657 374.318 183.493Z" fill="#5991A6"/>
<path d="M378.261 175.199L350.166 129.482C366.82 130.134 379.934 131.907 387.237 133.101C390.692 133.666 392.835 137.155 391.779 140.491C389.544 147.545 385.203 160.047 378.261 175.199Z" fill="#CCCCCC"/>
<path d="M289.791 132.905C280.957 147.044 265.442 161.999 245.575 174.209C215.285 192.823 183.877 199.522 166.341 192.678C168.978 190.478 171.68 188.301 174.446 186.135C185.721 192.064 213.593 184.596 241.824 167.246C258.631 156.918 272.252 145.121 280.488 134.576C283.609 133.959 286.716 133.402 289.791 132.905Z" fill="#CCCCCC"/>
<path d="M369.709 141.138C365.724 140.71 362.647 138.925 362.838 137.154C363.028 135.382 366.413 134.292 370.4 134.721C374.386 135.149 377.463 136.934 377.272 138.705C377.081 140.478 373.695 141.568 369.709 141.138Z" fill="white"/>
<path d="M204.971 158.531C204.971 158.531 215.069 155.545 220.891 159.164C226.714 162.783 238.49 173.16 213.348 194.198L202.941 203.151L188.351 204.067L193.051 193.223C193.051 193.223 201.009 189.375 208.599 180.923C216.139 172.526 221.989 162.182 204.9 162.267L204.971 158.531Z" fill="#1A1A1A"/>
<path d="M198.057 162.189L199.037 159.739L202.357 157.628L206.182 158.19C206.182 158.19 206.057 161.108 204.955 162.78L202.021 164.015L198.057 162.189Z" fill="#333333"/>
<path d="M183.558 165.062L184.189 169.787L185.322 171.862L206.015 165.893L197.793 159.794L185.484 166.577L183.558 165.062Z" fill="white"/>
<path d="M24.9654 345.128C24.651 348.707 21.4948 351.354 17.9157 351.04C14.3366 350.725 11.6899 347.569 12.0044 343.99C12.3188 340.411 15.475 337.764 19.0541 338.079C22.6321 338.393 25.2788 341.549 24.9654 345.128Z" fill="white"/>
<path d="M31.3868 311.111C39.4521 309.721 44.8631 302.055 43.4727 293.99C42.0822 285.925 34.4168 280.514 26.3516 281.904C18.2863 283.294 12.8752 290.96 14.2657 299.025C15.6561 307.09 23.3215 312.501 31.3868 311.111Z" fill="white"/>
<path d="M78.6073 370.517C78.101 376.283 73.0159 380.547 67.2499 380.041C61.4839 379.534 57.2195 374.449 57.7259 368.683C58.2322 362.917 63.3173 358.653 69.0833 359.159C74.8493 359.666 79.1137 364.751 78.6073 370.517Z" fill="white"/>
<path d="M100.249 394.456C102.841 393.413 104.098 390.466 103.055 387.873C102.013 385.28 99.0655 384.023 96.4726 385.066C93.8798 386.109 92.6231 389.056 93.6658 391.649C94.7085 394.242 97.6557 395.498 100.249 394.456Z" fill="white"/>
<path d="M191.161 386.897C190.811 390.874 187.305 393.815 183.328 393.466C179.351 393.117 176.41 389.61 176.76 385.633C177.109 381.656 180.615 378.716 184.592 379.065C188.568 379.414 191.509 382.92 191.161 386.897Z" fill="white"/>
<path d="M27.8437 376.244C27.8892 377.215 27.1389 378.04 26.1664 378.086C25.1949 378.131 24.3698 377.38 24.3242 376.409C24.2787 375.437 25.0301 374.612 26.0016 374.566C26.9741 374.521 27.7982 375.272 27.8437 376.244Z" fill="white"/>
<path d="M52.5698 353.783C52.6153 354.754 51.8639 355.579 50.8924 355.625C49.921 355.67 49.0958 354.919 49.0503 353.947C49.0048 352.975 49.7562 352.151 50.7276 352.105C51.7002 352.06 52.5242 352.81 52.5698 353.783Z" fill="white"/>
<path d="M3.87933 319.434C3.92487 320.406 3.17349 321.23 2.202 321.276C1.22944 321.321 0.405414 320.57 0.359875 319.598C0.314337 318.627 1.06572 317.802 2.0372 317.756C3.00868 317.711 3.83379 318.461 3.87933 319.434Z" fill="white"/>
<path d="M56.3671 298.79C56.4127 299.761 55.6624 300.586 54.6898 300.632C53.7183 300.677 52.8932 299.926 52.8477 298.954C52.8021 297.983 53.5535 297.158 54.525 297.112C55.4965 297.067 56.3216 297.817 56.3671 298.79Z" fill="white"/>
<path d="M122.916 352.245C122.961 353.218 122.21 354.042 121.239 354.087C120.267 354.133 119.442 353.382 119.396 352.41C119.351 351.439 120.102 350.613 121.074 350.568C122.045 350.522 122.87 351.274 122.916 352.245Z" fill="white"/>
<path d="M117.164 362.691C117.21 363.662 116.459 364.487 115.487 364.533C114.516 364.578 113.691 363.827 113.645 362.856C113.599 361.883 114.35 361.059 115.322 361.013C116.294 360.968 117.119 361.719 117.164 362.691Z" fill="white"/>
<path d="M164.243 382.869C164.288 383.842 163.537 384.666 162.565 384.712C161.594 384.757 160.769 384.006 160.723 383.034C160.678 382.063 161.428 381.238 162.4 381.192C163.372 381.147 164.197 381.897 164.243 382.869Z" fill="white"/>
<path d="M169.558 397.816C169.604 398.789 168.852 399.613 167.881 399.658C166.909 399.704 166.084 398.953 166.039 397.981C165.993 397.009 166.744 396.184 167.716 396.139C168.687 396.093 169.513 396.845 169.558 397.816Z" fill="white"/>
<path d="M53.2275 364.878C53.273 365.849 52.5216 366.674 51.5501 366.72C50.5787 366.765 49.7536 366.014 49.708 365.042C49.6625 364.07 50.4139 363.246 51.3853 363.2C52.3568 363.154 53.1819 363.905 53.2275 364.878Z" fill="white"/>
<path d="M129.265 61.375C132.266 77.4803 120.24 92.3573 103.863 92.7975C90.9802 93.1444 79.5327 83.8904 77.1712 71.221C74.17 55.1156 86.1965 40.2387 102.573 39.7985C115.456 39.4515 126.903 48.7056 129.265 61.375Z" fill="#29ABE2"/>
<g opacity="0.5">
<path d="M125.826 61.531C128.804 75.908 117.976 89.3028 103.294 89.4036C92.4286 89.4785 82.8103 81.7023 80.606 71.0636C77.6276 56.6855 88.4549 43.2918 103.138 43.191C114.003 43.1162 123.621 50.8913 125.826 61.531Z" fill="#5991A6"/>
</g>
<path opacity="0.5" d="M119.617 75.6249L118.645 75.7279L116.23 52.936L113.965 53.1757L111.583 53.4283L113.999 76.2202L111.709 76.4631L109.621 56.7537L107.324 56.9965L104.974 57.2459L107.062 76.9553L104.892 77.1852L103.116 60.4195L100.844 60.6602L98.4661 60.9117L100.242 77.6785L98.0726 77.9084L96.7346 65.2758L94.4328 65.5198L92.0843 65.7692L93.4222 78.4006L93.355 78.4082L90.9404 55.6152L90.0361 55.7117L92.4508 78.5036L92.5093 79.049L92.5473 79.4079L93.5187 79.3049L95.8672 79.0555L98.168 78.8115L100.339 78.5817L102.716 78.3301L104.989 78.0894L107.159 77.8596V77.8607L109.509 77.6124L111.806 77.3684V77.3673L114.094 77.1244V77.1266L116.475 76.874L118.742 76.6344V76.6322L119.713 76.5292L119.617 75.6249Z" fill="#5991A6"/>
<path d="M117.959 75.7901L90.7935 78.6694L90.8892 79.5729L118.055 76.6936L117.959 75.7901Z" fill="white"/>
<path d="M89.2819 55.7817L88.3784 55.8774L90.852 79.2145L91.7555 79.1187L89.2819 55.7817Z" fill="white"/>
<path d="M95.0769 65.4427L90.4268 65.9355L91.8614 79.4709L96.5116 78.978L95.0769 65.4427Z" fill="#FCEE21"/>
<path opacity="0.5" d="M95.0679 65.4536L92.7671 65.6973L94.2004 79.2327L96.5012 78.989L95.0679 65.4536Z" fill="#FBB03B"/>
<path d="M101.451 60.5964L96.8013 61.0889L98.6724 78.759L103.323 78.2666L101.451 60.5964Z" fill="#39B54A"/>
<path opacity="0.5" d="M101.452 60.5962L99.1792 60.8369L101.05 78.5071L103.323 78.2664L101.452 60.5962Z" fill="#39B54A"/>
<path d="M107.965 56.9196L103.318 57.4121L105.503 78.0268L110.15 77.5342L107.965 56.9196Z" fill="#FCEE21"/>
<path d="M114.575 53.1017L109.928 53.5942L112.44 77.2914L117.087 76.7989L114.575 53.1017Z" fill="#39B54A"/>
<path opacity="0.5" d="M107.963 56.9192L105.667 57.1626L107.852 77.7773L110.148 77.5339L107.963 56.9192Z" fill="#FBB03B"/>
<path opacity="0.5" d="M114.569 53.1012L112.304 53.3413L114.816 77.0385L117.081 76.7984L114.569 53.1012Z" fill="#39B54A"/>
<path d="M268.327 22.1123C271.328 38.2176 259.302 53.0946 242.925 53.5348C230.042 53.8817 218.595 44.6266 216.233 31.9583C213.232 15.8529 225.258 0.976011 241.635 0.535808C254.518 0.188849 265.965 9.44288 268.327 22.1123Z" fill="#29ABE2"/>
<g opacity="0.5">
<path d="M264.89 22.2683C267.868 36.6454 257.041 50.0401 242.358 50.1409C231.493 50.2158 221.874 42.4406 219.67 31.8009C216.692 17.4228 227.519 4.0291 242.202 3.92827C253.067 3.85346 262.685 11.6297 264.89 22.2683Z" fill="#5991A6"/>
</g>
<path opacity="0.5" d="M259.054 23.9619C259.032 23.8502 259.008 23.7407 258.984 23.6301C258.902 23.268 258.81 22.9113 258.703 22.561C258.687 22.5068 258.672 22.4504 258.655 22.3952C258.528 22.0005 258.382 21.6156 258.224 21.2383C258.182 21.1396 258.138 21.0442 258.095 20.9466C257.957 20.6387 257.808 20.3362 257.65 20.0402C257.609 19.9643 257.572 19.8873 257.53 19.8125C257.333 19.4623 257.122 19.1218 256.898 18.7922C256.842 18.7109 256.784 18.6328 256.727 18.5526C256.54 18.288 256.343 18.0321 256.14 17.7817C256.075 17.7015 256.011 17.6201 255.943 17.5421C255.686 17.2417 255.42 16.9522 255.139 16.6747C255.079 16.6161 255.016 16.5619 254.957 16.5034C254.72 16.2778 254.478 16.061 254.227 15.8528C254.139 15.7802 254.052 15.7064 253.962 15.636C253.653 15.392 253.338 15.1567 253.011 14.9388C252.965 14.9084 252.917 14.8824 252.872 14.8531C252.579 14.6634 252.278 14.4856 251.971 14.3175C251.867 14.2601 251.763 14.2048 251.657 14.1506C251.339 13.9857 251.014 13.8318 250.683 13.6908C250.64 13.6735 250.6 13.6518 250.558 13.6345C250.555 13.6334 250.551 13.6312 250.547 13.6301C250.547 13.6301 250.549 13.6312 250.551 13.6323C249.444 13.1769 248.267 12.8733 247.05 12.7128C247.074 12.7128 247.097 12.7096 247.121 12.7085C247.003 12.6922 246.882 12.6836 246.764 12.6706C246.653 12.6575 246.541 12.6445 246.428 12.6348C246.041 12.6012 245.651 12.5827 245.256 12.5806C245.163 12.5806 245.07 12.5827 244.976 12.5838C244.551 12.5903 244.124 12.6088 243.694 12.6543C235.922 13.4772 230.289 20.4446 231.112 28.2165C231.163 28.6935 231.237 29.163 231.333 29.6227C231.381 29.8526 231.449 30.0738 231.508 30.2993C231.566 30.5227 231.615 30.7503 231.683 30.9683C231.77 31.2469 231.879 31.5136 231.982 31.7836C232.041 31.9398 232.092 32.0991 232.156 32.252C232.274 32.5307 232.411 32.7974 232.545 33.0652C232.607 33.1877 232.658 33.3157 232.722 33.4349C232.719 33.4263 232.717 33.4165 232.712 33.4067C233.979 35.7671 235.888 37.6993 238.183 39.0101C238.163 39.0014 238.141 38.9949 238.122 38.9863C238.188 39.0242 238.257 39.0557 238.324 39.0936C238.489 39.1847 238.655 39.2714 238.824 39.3571C239.032 39.4622 239.245 39.5609 239.459 39.6563C239.622 39.729 239.785 39.8027 239.952 39.8699C240.232 39.9816 240.516 40.0803 240.803 40.1746C240.929 40.2158 241.052 40.2613 241.179 40.2982C241.546 40.4066 241.919 40.4988 242.297 40.5779C242.442 40.6083 242.59 40.63 242.736 40.656C243.014 40.7048 243.294 40.7471 243.577 40.7796C243.734 40.797 243.89 40.8121 244.048 40.8251C244.342 40.849 244.638 40.8609 244.936 40.8663C245.076 40.8685 245.214 40.875 245.355 40.8729C245.792 40.8674 246.231 40.8468 246.674 40.8002C250.56 40.3882 253.912 38.4409 256.188 35.6251C257.043 34.569 257.745 33.3905 258.268 32.1252C259.14 30.0163 259.513 27.6667 259.256 25.238C259.209 24.8043 259.137 24.3804 259.054 23.9619Z" fill="#5991A6"/>
<path d="M256.352 25.5437C257.174 33.3156 251.542 40.283 243.77 41.1059C235.998 41.9288 229.031 36.2962 228.208 28.5243C227.385 20.7525 233.017 13.7851 240.789 12.9622C248.561 12.1392 255.529 17.7719 256.352 25.5437Z" fill="#FFD917"/>
<path opacity="0.5" d="M228.962 30.0545C228.066 21.5887 234.201 13.999 242.667 13.1023C243.188 13.047 243.704 13.0199 244.216 13.0167C243.103 12.8638 241.955 12.8389 240.789 12.9625C233.017 13.7854 227.385 20.7528 228.208 28.5246C228.407 30.4112 228.972 32.1699 229.82 33.7431C229.393 32.5786 229.099 31.3448 228.962 30.0545Z" fill="white"/>
<path d="M247.644 13.937C251.432 16.1228 254.159 20.0261 254.655 24.7068C255.478 32.4787 249.845 39.446 242.073 40.269C239.658 40.5249 237.32 40.1562 235.22 39.2942C237.72 40.7363 240.681 41.4335 243.771 41.106C251.543 40.2831 257.176 33.3157 256.353 25.5439C255.786 20.1888 252.3 15.8485 247.644 13.937Z" fill="#FAC21D"/>
<path d="M253.226 25.8759C253.866 31.9205 249.486 37.3396 243.44 37.9804C237.395 38.6201 231.976 34.2397 231.335 28.1951C230.696 22.1504 235.076 16.7313 241.121 16.0905C247.167 15.4498 252.586 19.8312 253.226 25.8759Z" fill="#F8AB30"/>
<path opacity="0.7" d="M247.095 28.8204C246.922 27.194 245.818 26.2757 243.538 25.9992C241.887 25.7899 241.3 25.4213 241.21 24.5723C241.124 23.7516 241.698 23.307 242.504 23.2214C243.558 23.1097 244.197 23.693 244.423 24.7057L246.487 24.4867C246.136 22.9622 245.165 21.8259 243.373 21.6926L243.213 20.1812L241.158 20.3991L241.323 21.9517C239.934 22.4407 238.956 23.5553 239.114 25.0462C239.312 26.9056 240.69 27.4846 242.807 27.7644C244.338 27.9573 244.918 28.3986 245.008 29.2487C245.091 30.0239 244.411 30.5997 243.488 30.6972C242.464 30.8057 241.554 30.3243 241.217 29.2357L239.152 29.4547C239.49 31.1635 240.682 32.0656 242.409 32.2108L242.573 33.7591L244.628 33.5412L244.471 32.0547C246.08 31.6297 247.268 30.462 247.095 28.8204Z" fill="#F8AB30"/>
<path opacity="0.7" d="M232.285 28.0929C231.662 22.2076 235.799 16.9165 241.598 16.0513C241.44 16.061 241.281 16.073 241.122 16.0892C235.077 16.7289 230.696 22.1491 231.335 28.1937C231.975 34.2384 237.395 38.6198 243.44 37.979C243.599 37.9617 243.757 37.94 243.914 37.9172C238.063 38.2859 232.909 33.9793 232.285 28.0929Z" fill="#F8AB30"/>
<path d="M246.48 28.8854C246.308 27.259 245.204 26.3406 242.924 26.0642C241.273 25.8549 240.686 25.4862 240.596 24.6373C240.509 23.8165 241.084 23.372 241.889 23.2863C242.943 23.1746 243.583 23.758 243.809 24.7706L245.873 24.5516C245.522 23.0272 244.55 21.8909 242.76 21.7575L242.6 20.2461L240.545 20.464L240.71 22.0167C239.321 22.5057 238.343 23.6203 238.501 25.1111C238.699 26.9706 240.077 27.5496 242.194 27.8293C243.725 28.0223 244.305 28.4636 244.395 29.3136C244.478 30.0889 243.798 30.6646 242.875 30.7622C241.85 30.8706 240.941 30.3892 240.604 29.3006L238.539 29.5196C238.876 31.2284 240.069 32.1305 241.796 32.2758L241.96 33.8241L244.015 33.6062L243.857 32.1197C245.464 31.6946 246.654 30.5269 246.48 28.8854Z" fill="#FFD917"/>
<path d="M75.8589 176.149C83.8162 190.468 77.134 208.393 61.7442 214.008C49.6376 218.426 35.8449 213.283 29.5845 202.019C21.6261 187.699 28.3094 169.773 43.6992 164.158C55.8058 159.742 69.5985 164.884 75.8589 176.149Z" fill="#29ABE2"/>
<g opacity="0.5">
<path d="M72.6514 177.388C80.0394 190.077 74.0229 206.215 60.1305 210.97C49.8508 214.49 38.2624 210.169 32.7956 200.78C25.4076 188.091 31.424 171.952 45.3165 167.196C55.5951 163.678 67.1846 167.999 72.6514 177.388Z" fill="#5991A6"/>
</g>
<path opacity="0.5" d="M65.469 178.774C65.1882 178.742 64.8998 178.756 64.6136 178.803L61.5527 172.104C61.4183 171.811 61.08 171.691 60.7938 171.821L60.3026 172.046L59.085 172.602C59.085 172.602 58.9831 172.729 58.7912 172.949C58.686 173.068 58.5613 173.222 58.4106 173.398C56.408 175.763 50.2549 182.812 45.2186 186.461L45.1199 186.244C45.0028 185.987 44.7036 185.875 44.4466 185.994L39.9286 188.058C39.6792 188.172 39.5675 188.471 39.6846 188.728L39.9156 189.234L39.226 189.549L38.0084 190.105C37.605 190.289 37.4294 190.76 37.6137 191.163L39.226 194.691L40.3319 197.112L42.276 196.224L42.9655 195.909L43.1997 196.423C43.3168 196.68 43.6161 196.792 43.8655 196.678L43.9858 196.622C44.2189 196.78 44.5138 196.979 44.8391 197.199C45.6393 197.747 46.6184 198.417 47.154 198.81C47.9249 199.372 49.5762 201.765 50.3547 202.925C50.5813 203.266 51.0095 203.407 51.3858 203.261C51.4107 203.258 51.4335 203.248 51.4552 203.238L51.5354 203.202C51.9832 202.997 52.1784 202.473 51.9734 202.026L48.917 195.336L48.5364 194.503C48.6773 194.357 48.724 194.137 48.634 193.94L48.5353 193.723C48.7966 193.662 49.059 193.602 49.3311 193.545C49.3799 193.536 49.4265 193.525 49.4743 193.515C49.8147 193.447 50.1649 193.383 50.5206 193.321C50.603 193.307 50.6854 193.292 50.7688 193.279C51.1039 193.223 51.4454 193.171 51.7902 193.121C51.9008 193.105 52.0114 193.09 52.1231 193.074C52.4538 193.028 52.7888 192.985 53.126 192.945C53.2529 192.929 53.3808 192.914 53.5087 192.9C53.8351 192.863 54.1636 192.828 54.4932 192.794C54.6374 192.78 54.7816 192.766 54.9258 192.753C55.2392 192.723 55.5536 192.695 55.867 192.669C56.022 192.656 56.176 192.644 56.3299 192.632C56.5912 192.612 56.8515 192.593 57.1106 192.575C57.3123 192.561 57.5129 192.548 57.7134 192.535C57.9552 192.52 58.197 192.506 58.4366 192.491C58.634 192.481 58.8302 192.47 59.0254 192.46C59.2769 192.447 59.5274 192.435 59.7757 192.424C59.9188 192.418 60.063 192.411 60.2039 192.406C60.5075 192.394 60.8068 192.383 61.1006 192.372C61.2242 192.368 61.3467 192.363 61.4682 192.36C61.7772 192.35 62.0819 192.342 62.3779 192.335C62.4668 192.333 62.5546 192.331 62.6424 192.329C62.9633 192.321 63.2767 192.316 63.577 192.311C63.6193 192.31 63.6605 192.31 63.7028 192.309C65.1069 192.289 66.2725 192.293 67.0455 192.302C67.2765 192.303 67.4749 192.309 67.6332 192.308C67.9259 192.307 68.0875 192.314 68.0875 192.314L69.3051 191.757L69.7963 191.533C70.0825 191.403 70.2094 191.06 70.0792 190.774L67.7004 185.566L67.0195 184.074C67.2418 183.889 67.4413 183.679 67.5985 183.44C68.1623 182.598 68.2913 181.502 67.8381 180.511C67.3914 179.526 66.4785 178.906 65.469 178.774Z" fill="#5991A6"/>
<path d="M66.6104 181.073C67.0626 182.063 66.9346 183.159 66.3708 184.002C66.1876 184.281 65.9556 184.529 65.6845 184.732L63.2417 179.384C63.5724 179.313 63.9118 179.3 64.2392 179.336C65.2486 179.47 66.1616 180.09 66.6104 181.073Z" fill="white"/>
<path opacity="0.5" d="M64.2392 179.336L66.3708 184.002C66.1876 184.28 65.9556 184.529 65.6845 184.731L63.2417 179.384C63.5724 179.313 63.9118 179.299 64.2392 179.336Z" fill="#999999"/>
<path d="M47.1114 194.635L50.7437 202.587C50.9486 203.035 50.7523 203.559 50.3056 203.762L50.2254 203.799C50.2037 203.809 50.1809 203.819 50.156 203.822C49.7787 203.967 49.3515 203.826 49.1249 203.486C48.3464 202.326 46.6951 199.933 45.9242 199.371C45.3897 198.978 44.4095 198.308 43.6093 197.76C42.8655 197.258 42.2627 196.85 42.2627 196.85L47.1114 194.635Z" fill="white"/>
<path d="M39.037 189.636L42.087 196.31L39.101 197.674L36.3827 191.725C36.1984 191.322 36.3741 190.851 36.7774 190.667L39.037 189.636Z" fill="white"/>
<path d="M60.3209 172.667L68.8496 191.336C68.9797 191.622 68.8529 191.963 68.5666 192.095L66.8579 192.875C66.8579 192.875 66.6952 192.87 66.4036 192.87C66.2453 192.872 66.0468 192.864 65.8159 192.863C62.6705 192.829 53.0663 192.863 47.0238 194.347L43.7559 187.195C48.8334 183.599 55.1469 176.361 57.1799 173.961C57.3306 173.786 57.4553 173.631 57.5605 173.512C57.7524 173.291 57.8543 173.165 57.8543 173.165L59.5631 172.384C59.8482 172.254 60.1865 172.374 60.3209 172.667Z" fill="white"/>
<path opacity="0.5" d="M40.977 193.894L37.9917 195.258L39.0972 197.678L42.0825 196.314L40.977 193.894Z" fill="#999999"/>
<path opacity="0.5" d="M66.4726 186.127L68.8515 191.335C68.9816 191.621 68.8547 191.962 68.5685 192.094L66.8597 192.874C66.8597 192.874 66.6971 192.869 66.4054 192.869C64.1003 192.831 53.5148 192.755 47.0245 194.347L45.8481 191.772C49.6907 190.266 58.4514 187.105 66.4726 186.127Z" fill="#999999"/>
<path opacity="0.5" d="M39.0302 189.644L37.9888 190.12L41.0382 196.796L42.0797 196.32L39.0302 189.644Z" fill="#999999"/>
<path opacity="0.5" d="M59.0735 172.608L68.0782 192.318L66.8606 192.874C66.8606 192.874 66.698 192.869 66.4063 192.869C66.248 192.871 66.0496 192.863 65.8186 192.862L57.1826 173.959C57.3333 173.785 57.458 173.63 57.5632 173.51C57.7551 173.289 57.857 173.164 57.857 173.164L59.0735 172.608Z" fill="#999999"/>
<path d="M60.3225 172.667L68.8512 191.336C68.9813 191.622 68.8544 191.963 68.5682 192.095L66.8594 192.875C66.8594 192.875 66.6968 192.87 66.4051 192.87L57.562 173.512C57.7539 173.291 57.8558 173.165 57.8558 173.165L59.5646 172.384C59.8498 172.254 60.1881 172.374 60.3225 172.667Z" fill="#29ABE2"/>
<path opacity="0.5" d="M66.4719 186.127L68.8508 191.335C68.9809 191.621 68.854 191.962 68.5678 192.094L66.859 192.874C66.859 192.874 66.6964 192.869 66.4047 192.869L63.5293 186.575C64.5127 186.401 65.4972 186.245 66.4719 186.127Z" fill="#106688"/>
<path opacity="0.5" d="M47.1117 194.635L50.744 202.587C50.9489 203.035 50.7526 203.559 50.3059 203.762L50.2257 203.799C50.204 203.809 50.1812 203.819 50.1563 203.822L46.1587 195.071L47.1117 194.635Z" fill="#999999"/>
<path opacity="0.5" d="M47.1114 194.635L47.6883 195.897L43.6093 197.76C42.8655 197.258 42.2627 196.85 42.2627 196.85L47.1114 194.635Z" fill="#999999"/>
<path d="M43.8877 186.807L47.4028 194.502C47.5199 194.759 47.4082 195.058 47.1523 195.175L42.6332 197.239C42.3838 197.353 42.0846 197.242 41.9675 196.985L38.4524 189.29C38.3353 189.033 38.4469 188.734 38.6963 188.62L43.2155 186.555C43.4713 186.438 43.7706 186.55 43.8877 186.807Z" fill="#29ABE2"/>
<path opacity="0.5" d="M46.1084 191.67L47.4019 194.501C47.519 194.758 47.4073 195.057 47.1514 195.174L42.6323 197.239C42.3829 197.352 42.0837 197.241 41.9666 196.984L40.6265 194.05L43.8467 192.579C43.8467 192.579 44.6848 192.223 46.1084 191.67Z" fill="#106688"/>
<path d="M404.071 309.178C407.072 325.283 395.046 340.16 378.669 340.601C365.786 340.946 354.339 331.692 351.977 319.024C348.976 302.919 361.003 288.042 377.379 287.602C390.262 287.253 401.71 296.509 404.071 309.178Z" fill="#29ABE2"/>
<g opacity="0.5">
<path d="M400.634 309.334C403.612 323.711 392.784 337.106 378.102 337.207C367.237 337.282 357.618 329.505 355.414 318.867C352.436 304.489 363.263 291.095 377.946 290.994C388.811 290.919 398.429 298.695 400.634 309.334Z" fill="#5991A6"/>
</g>
<path opacity="0.5" d="M391.063 306.479C391.027 306.138 390.971 305.804 390.905 305.473C390.884 305.371 390.859 305.272 390.835 305.171C390.782 304.94 390.722 304.712 390.656 304.488C390.624 304.38 390.591 304.274 390.556 304.168C390.479 303.936 390.394 303.709 390.302 303.485C390.269 303.404 390.239 303.322 390.204 303.243C390.074 302.947 389.933 302.657 389.779 302.377C389.745 302.315 389.707 302.257 389.672 302.197C389.546 301.978 389.414 301.762 389.273 301.554C389.211 301.463 389.147 301.374 389.083 301.284C388.956 301.106 388.824 300.933 388.687 300.764C388.618 300.679 388.55 300.593 388.478 300.511C388.313 300.319 388.141 300.134 387.963 299.956C387.916 299.908 387.873 299.858 387.825 299.811C387.602 299.593 387.369 299.387 387.128 299.19C387.05 299.126 386.968 299.066 386.887 299.004C386.715 298.87 386.542 298.741 386.362 298.619C386.263 298.551 386.163 298.486 386.062 298.421C385.884 298.307 385.702 298.201 385.519 298.098C385.423 298.044 385.328 297.989 385.23 297.938C384.954 297.795 384.674 297.66 384.387 297.541C384.333 297.518 384.278 297.502 384.223 297.48C383.981 297.384 383.735 297.295 383.485 297.217C383.373 297.181 383.26 297.152 383.147 297.119C383.034 297.088 382.923 297.051 382.808 297.023C382.818 297.028 382.827 297.036 382.837 297.042C381.631 296.742 380.358 296.631 379.05 296.77C373.052 297.405 368.705 302.783 369.34 308.781C369.353 308.907 369.371 309.031 369.389 309.154H369.387C369.387 309.154 369.96 315.259 375.773 319.379C375.773 319.379 377.358 320.295 377.946 323.49C377.474 323.606 377.138 324.043 377.191 324.539C377.233 324.938 377.512 325.254 377.871 325.371C377.767 325.432 377.671 325.509 377.595 325.602C377.527 325.687 377.473 325.783 377.436 325.885C377.385 326.023 377.364 326.174 377.38 326.328C377.422 326.726 377.701 327.041 378.058 327.159C377.995 327.196 377.946 327.249 377.892 327.299C377.858 327.332 377.813 327.353 377.784 327.39C377.716 327.475 377.662 327.571 377.625 327.673L377.634 327.672C377.582 327.811 377.552 327.958 377.569 328.115C377.627 328.657 378.116 329.052 378.657 328.995L379.337 328.923C379.399 329.01 379.466 329.108 379.541 329.222C379.701 329.474 379.876 329.779 379.988 330.073C380.057 330.249 380.233 330.359 380.423 330.338L381.016 330.275C381.155 330.559 381.387 330.966 381.567 330.946C381.666 330.936 381.9 330.911 382.159 330.884C382.619 330.835 383.158 330.777 383.158 330.777C383.417 330.75 383.651 330.725 383.75 330.714C383.93 330.695 384.071 330.249 384.147 329.942L384.738 329.88C384.927 329.86 385.08 329.715 385.109 329.528C385.157 329.217 385.263 328.882 385.368 328.603C385.416 328.475 385.463 328.365 385.504 328.267L386.184 328.196C386.725 328.138 387.121 327.649 387.063 327.108C387.047 326.951 386.986 326.813 386.906 326.689L386.916 326.688C386.861 326.601 386.791 326.527 386.714 326.461C386.694 326.445 386.673 326.434 386.652 326.419C386.578 326.366 386.499 326.323 386.414 326.292C386.403 326.287 386.395 326.28 386.384 326.277C386.489 326.216 386.584 326.139 386.659 326.046C386.817 325.847 386.903 325.589 386.873 325.32C386.86 325.198 386.819 325.085 386.765 324.98C386.756 324.964 386.75 324.946 386.741 324.93C386.736 324.92 386.732 324.909 386.726 324.9C386.672 324.814 386.602 324.739 386.525 324.674C386.505 324.656 386.481 324.644 386.458 324.627C386.386 324.577 386.309 324.535 386.227 324.505C386.215 324.501 386.205 324.491 386.193 324.488C386.52 324.297 386.725 323.929 386.684 323.531C386.632 323.038 386.215 322.683 385.734 322.665C385.637 319.417 386.997 318.188 386.997 318.188C391.817 312.943 391.1 306.853 391.1 306.853L391.09 306.855C391.084 306.729 391.076 306.604 391.063 306.479Z" fill="#5991A6"/>
<path d="M388.261 307.154C388.252 307.029 388.244 306.905 388.231 306.779C387.595 300.781 382.217 296.433 376.219 297.068C370.221 297.704 365.874 303.081 366.509 309.08C366.522 309.205 366.54 309.329 366.558 309.452H366.556C366.556 309.452 367.129 315.557 372.942 319.677C372.942 319.677 374.832 320.759 375.25 324.71L377.647 324.456L380.567 324.147L382.964 323.894C382.546 319.943 384.167 318.489 384.167 318.489C388.987 313.243 388.27 307.154 388.27 307.154H388.261Z" fill="#D1EEFC"/>
<path d="M378.088 324.062L377.5 324.092C377.409 322.316 377.084 318.514 376.458 315.847L375.778 315.915C374.878 315.839 374.338 314.872 374.151 314.065C374.001 313.426 374.011 312.641 374.486 312.356C374.714 312.218 375.112 312.163 375.709 312.683C376.157 313.072 376.557 313.917 376.904 315.209L379.351 314.95C379.419 313.614 379.633 312.703 379.99 312.228C380.465 311.596 380.866 311.566 381.117 311.654C381.641 311.834 381.814 312.599 381.802 313.255C381.787 314.082 381.463 315.142 380.598 315.404L380.544 315.415L379.92 315.481C379.867 318.219 380.345 322.005 380.628 323.761L380.047 323.856C380.044 323.832 379.659 321.437 379.454 318.84C379.354 317.571 379.313 316.472 379.33 315.544L377.048 315.786C377.259 316.689 377.45 317.773 377.618 319.034C377.961 321.615 378.087 324.038 378.088 324.062ZM379.94 314.887L380.45 314.833C380.96 314.657 381.201 313.913 381.213 313.243C381.223 312.646 381.049 312.252 380.924 312.21C380.873 312.192 380.711 312.248 380.459 312.582C380.152 312.989 379.996 313.83 379.94 314.887ZM375.802 315.325L376.313 315.271C376.036 314.249 375.708 313.46 375.323 313.126C375.006 312.852 374.835 312.831 374.789 312.859C374.677 312.928 374.588 313.348 374.724 313.931C374.876 314.582 375.268 315.26 375.802 315.325Z" fill="#808080"/>
<path d="M380.215 330.014L380.208 329.957L379.712 330.039L379.21 330.063L379.216 330.12L378.063 330.31C378.063 330.31 378.461 331.276 378.736 331.247C378.834 331.236 379.069 331.211 379.328 331.184C379.787 331.135 380.326 331.078 380.326 331.078C380.585 331.051 380.82 331.026 380.918 331.015C381.193 330.986 381.379 329.958 381.379 329.958L380.215 330.014Z" fill="#231F20"/>
<path d="M382.811 328.266C382.811 328.266 382.674 328.54 382.538 328.905C382.433 329.185 382.326 329.519 382.278 329.83C382.249 330.016 382.096 330.161 381.908 330.181L377.592 330.639C377.404 330.658 377.226 330.549 377.158 330.373C377.046 330.079 376.871 329.775 376.71 329.523C376.497 329.194 376.309 328.956 376.309 328.956L382.811 328.266Z" fill="#A3A6A8"/>
<path opacity="0.5" d="M382.81 328.266C382.81 328.266 382.674 328.54 382.537 328.905C382.433 329.185 382.325 329.519 382.278 329.83C382.248 330.016 382.096 330.161 381.907 330.181L380.258 330.356C380.315 329.669 380.509 328.798 380.509 328.798L380.981 328.459L382.81 328.266Z" fill="#A3A6A8"/>
<path opacity="0.5" d="M382.811 328.266C382.811 328.266 382.674 328.54 382.538 328.905L376.71 329.523C376.497 329.194 376.309 328.956 376.309 328.956L382.811 328.266Z" fill="#A3A6A8"/>
<path opacity="0.3" d="M388.261 307.154C388.252 307.029 388.244 306.904 388.231 306.779C387.732 302.076 384.319 298.389 379.976 297.321C383.011 299.172 385.182 302.363 385.585 306.171C385.599 306.307 385.608 306.443 385.618 306.577L385.628 306.576C385.628 306.576 386.405 313.167 381.188 318.845C381.188 318.845 379.563 320.304 379.844 324.223L380.567 324.146L382.965 323.892C382.546 319.941 384.167 318.487 384.167 318.487C388.988 313.242 388.27 307.153 388.27 307.153L388.261 307.154Z" fill="#7E9DA7"/>
<path d="M383.354 328.496L375.826 329.294C375.285 329.352 374.795 328.956 374.739 328.415C374.681 327.874 375.077 327.385 375.618 327.327L383.146 326.529C383.687 326.472 384.177 326.868 384.234 327.409C384.291 327.95 383.895 328.44 383.354 328.496Z" fill="#E6E7E8"/>
<path opacity="0.5" d="M383.147 326.529L380.303 326.831C380.656 326.999 380.918 327.34 380.962 327.755C381.006 328.171 380.822 328.559 380.512 328.799L383.356 328.497C383.897 328.44 384.293 327.951 384.235 327.41C384.177 326.867 383.688 326.472 383.147 326.529Z" fill="#A3A6A8"/>
<path opacity="0.5" d="M384.086 326.988L374.793 327.972C374.83 327.869 374.884 327.773 374.952 327.689C375.113 327.493 375.347 327.355 375.616 327.327L383.145 326.529C383.532 326.488 383.891 326.679 384.086 326.988Z" fill="#A3A6A8"/>
<path d="M384.047 325.62C384.075 325.889 383.991 326.147 383.831 326.346C383.673 326.542 383.439 326.68 383.168 326.708L375.639 327.506C375.099 327.563 374.609 327.168 374.551 326.627C374.535 326.473 374.557 326.322 374.607 326.184C374.643 326.081 374.698 325.985 374.766 325.901C374.926 325.705 375.161 325.567 375.429 325.539L382.958 324.741C383.344 324.7 383.704 324.891 383.899 325.2C383.978 325.323 384.031 325.467 384.047 325.62Z" fill="#E6E7E8"/>
<path opacity="0.5" d="M382.955 324.741L380.111 325.043C380.465 325.211 380.726 325.552 380.771 325.967C380.814 326.383 380.63 326.771 380.321 327.009L383.165 326.708C383.706 326.65 384.101 326.162 384.044 325.62C383.985 325.079 383.496 324.684 382.955 324.741Z" fill="#A3A6A8"/>
<path opacity="0.5" d="M383.898 325.2L374.604 326.184C374.641 326.081 374.696 325.985 374.764 325.901C374.924 325.705 375.159 325.567 375.427 325.539L382.956 324.741C383.344 324.7 383.703 324.891 383.898 325.2Z" fill="#A3A6A8"/>
<path d="M382.974 324.922L375.447 325.72C374.906 325.777 374.415 325.382 374.359 324.84C374.302 324.299 374.697 323.81 375.238 323.753L382.766 322.955C383.307 322.898 383.796 323.293 383.854 323.834C383.911 324.374 383.515 324.864 382.974 324.922Z" fill="#E6E7E8"/>
<path opacity="0.5" d="M382.768 322.952L379.924 323.254C380.277 323.422 380.539 323.763 380.583 324.179C380.627 324.594 380.442 324.982 380.133 325.221L382.977 324.919C383.518 324.862 383.914 324.373 383.856 323.832C383.799 323.291 383.309 322.895 382.768 322.952Z" fill="#A3A6A8"/>
<path d="M373.339 305.198C372.371 306.745 370.747 307.475 369.712 306.828C368.676 306.18 368.621 304.4 369.589 302.853C370.557 301.306 372.181 300.576 373.217 301.223C374.252 301.87 374.308 303.65 373.339 305.198Z" fill="white"/>
<path d="M449.952 206.579C452.953 222.684 440.927 237.561 424.55 238.002C411.667 238.347 400.22 229.093 397.858 216.425C394.857 200.32 406.883 185.443 423.26 185.003C436.144 184.656 447.591 193.91 449.952 206.579Z" fill="#29ABE2"/>
<g opacity="0.5">
<path d="M446.513 206.736C449.492 221.113 438.664 234.508 423.982 234.609C413.117 234.684 403.498 226.908 401.294 216.269C398.316 201.891 409.144 188.497 423.826 188.396C434.692 188.32 444.31 196.096 446.513 206.736Z" fill="#5991A6"/>
</g>
<path opacity="0.5" d="M436.429 197.935C436.333 197.857 436.234 197.783 436.136 197.71C436.154 197.725 436.168 197.742 436.185 197.757C432.097 194.658 426.26 195.338 423.012 199.356C419.881 203.228 420.283 208.804 423.793 212.201L422.845 213.374L422.271 212.91C422.145 212.808 421.962 212.828 421.86 212.954L421.203 213.766C421.121 213.868 421.137 213.999 421.206 214.102L420.852 214.54L412.69 224.636C412.101 225.365 412.181 226.416 412.85 227.048C412.883 227.079 412.917 227.109 412.953 227.138L413.008 227.183C413.772 227.8 414.892 227.681 415.51 226.918L424.027 216.383C424.141 216.429 424.274 216.418 424.356 216.316L425.013 215.504C425.115 215.378 425.096 215.195 424.97 215.094L424.396 214.631L424.942 213.955L425.363 213.433C429.397 215.968 434.779 215.149 437.847 211.352C441.163 207.255 440.527 201.247 436.429 197.935Z" fill="#5991A6"/>
<path d="M423.102 215.493L413.711 227.108C413.094 227.871 411.974 227.992 411.21 227.374L411.155 227.329C411.119 227.301 411.084 227.271 411.052 227.239C410.382 226.607 410.302 225.557 410.891 224.828L420.282 213.212L423.102 215.493Z" fill="#754C28"/>
<path opacity="0.5" d="M423.103 215.493L413.712 227.108C413.095 227.872 411.975 227.992 411.211 227.374L411.156 227.329C411.12 227.301 411.085 227.271 411.053 227.239C411.907 227.553 412.96 226.122 412.96 226.122L422.165 214.735L423.103 215.493Z" fill="#754C28"/>
<path opacity="0.5" d="M420.264 213.217L419.036 214.736L421.857 217.017L423.086 215.498L420.264 213.217Z" fill="#754C28"/>
<path d="M422.334 211.982L420.287 214.515L421.84 215.77L423.887 213.238L422.334 211.982Z" fill="#A6A8AB"/>
<path opacity="0.5" d="M422.316 211.995L421.575 212.912C421.776 213.099 421.984 213.279 422.201 213.455C422.508 213.703 422.823 213.933 423.146 214.145L423.869 213.251L422.316 211.995Z" fill="#A3A6A8"/>
<path opacity="0.5" d="M436.038 209.428C433.205 214.709 426.079 215.464 422.202 210.894C420.035 208.341 419.641 204.61 421.224 201.66C424.057 196.379 431.183 195.624 435.06 200.194C437.226 202.747 437.621 206.478 436.038 209.428Z" fill="white"/>
<path opacity="0.5" d="M434.673 199.769C434.284 199.362 433.863 199.003 433.419 198.693C436.056 201.736 436.221 206.321 433.6 209.562C430.982 212.8 426.469 213.602 422.942 211.665C426.158 214.66 431.191 214.662 434.408 211.586C437.743 208.395 437.863 203.105 434.673 199.769Z" fill="#ADCBDA"/>
<path d="M434.627 198.125C430.529 194.813 424.522 195.449 421.209 199.547C417.897 203.644 418.533 209.652 422.631 212.964C426.728 216.277 432.736 215.64 436.048 211.543C439.361 207.445 438.724 201.437 434.627 198.125ZM423.805 211.512C420.509 208.848 419.997 204.016 422.661 200.72C425.325 197.424 430.158 196.912 433.454 199.576C436.75 202.24 437.261 207.072 434.597 210.369C431.932 213.665 427.101 214.176 423.805 211.512Z" fill="#E6E7E8"/>
<g opacity="0.5">
<path d="M433.159 199.351C433.068 199.27 432.974 199.19 432.879 199.112C429.582 196.448 424.751 196.96 422.086 200.256C419.422 203.552 419.934 208.384 423.23 211.048C423.326 211.126 423.424 211.201 423.523 211.273C420.481 208.566 420.074 203.919 422.661 200.72C425.247 197.52 429.876 196.944 433.159 199.351Z" fill="#A3A6A8"/>
<path d="M434.624 198.125C434.527 198.047 434.43 197.974 434.331 197.901C438.172 201.257 438.706 207.078 435.471 211.079C432.237 215.08 426.433 215.779 422.347 212.725C422.439 212.806 422.532 212.886 422.628 212.964C426.725 216.277 432.733 215.64 436.045 211.543C439.357 207.445 438.721 201.437 434.624 198.125Z" fill="#A3A6A8"/>
</g>
<path opacity="0.5" d="M428.726 201.507C427.591 201.628 426.609 201.145 426.533 200.429C426.457 199.714 427.316 199.036 428.452 198.916C429.587 198.796 430.57 199.278 430.646 199.994C430.72 200.709 429.862 201.387 428.726 201.507Z" fill="white"/>
<path opacity="0.3" d="M423.809 211.512C420.513 208.848 420.001 204.016 422.665 200.72C425.329 197.423 430.162 196.912 433.458 199.576C436.754 202.24 437.265 207.072 434.601 210.368C431.936 213.664 427.105 214.176 423.809 211.512Z" fill="#A3A6A8"/>
<path d="M423.215 215.693L422.558 216.505C422.456 216.631 422.273 216.65 422.147 216.548L419.448 214.366C419.322 214.264 419.302 214.081 419.404 213.955L420.061 213.143C420.163 213.017 420.346 212.998 420.472 213.099L423.172 215.282C423.298 215.384 423.317 215.567 423.215 215.693Z" fill="#E6E7E8"/>
<path opacity="0.5" d="M423.217 215.693L422.56 216.505C422.458 216.631 422.274 216.651 422.149 216.549L421.271 215.84L422.295 214.573L423.172 215.282C423.299 215.384 423.319 215.567 423.217 215.693Z" fill="#A3A6A8"/>
<path d="M305.503 356.493C308.504 372.599 296.477 387.476 280.101 387.916C267.218 388.263 255.77 379.008 253.409 366.339C250.408 350.234 262.434 335.357 278.811 334.917C291.694 334.57 303.141 343.824 305.503 356.493Z" fill="#29ABE2"/>
<g opacity="0.5">
<path d="M302.065 356.651C305.044 371.028 294.215 384.423 279.534 384.524C268.668 384.598 259.05 376.823 256.846 366.184C253.867 351.805 264.695 338.412 279.377 338.311C290.243 338.235 299.861 346.011 302.065 356.651Z" fill="#5991A6"/>
</g>
<g opacity="0.5">
<path d="M285.059 359.214L284.012 358.691L283.214 358.293C283.214 358.235 283.208 358.176 283.206 358.118V358.117C283.196 357.685 283.153 357.26 283.076 356.843C283.072 356.82 283.067 356.797 283.062 356.774C283.027 356.59 282.989 356.407 282.941 356.227C282.887 356.018 282.824 355.814 282.752 355.611L284.182 354.125L282.739 351.841L280.783 352.495C280.145 351.86 279.398 351.327 278.562 350.926L278.523 348.864L277.519 348.637L275.887 348.268L274.965 350.114C274.038 350.117 273.134 350.277 272.285 350.576L270.799 349.145L268.515 350.589L269.169 352.545C268.534 353.183 268.001 353.931 267.6 354.766L265.538 354.805L264.942 357.441L266.788 358.363C266.791 359.29 266.951 360.194 267.25 361.043L265.82 362.528L266.734 363.975L267.263 364.813L269.219 364.159C269.857 364.793 270.604 365.327 271.44 365.728L271.479 367.79L274.115 368.385L275.037 366.54C275.254 366.539 275.469 366.529 275.683 366.511C275.84 366.498 275.995 366.475 276.151 366.453C276.2 366.446 276.25 366.442 276.299 366.434C276.495 366.402 276.688 366.362 276.88 366.317C276.884 366.316 276.889 366.314 276.893 366.313C277.173 366.247 277.449 366.171 277.718 366.077L278.378 366.712L278.603 366.929L279.203 367.507L281.488 366.064L280.834 364.108C280.992 363.949 281.145 363.782 281.291 363.609C281.436 363.437 281.575 363.257 281.706 363.072C281.968 362.701 282.202 362.305 282.403 361.886L284.465 361.847L285.059 359.214ZM273.884 363.272C273.04 363.081 272.294 362.69 271.683 362.16C271.525 362.022 271.378 361.873 271.239 361.719C271.209 361.687 271.182 361.653 271.154 361.621C271.043 361.492 270.94 361.357 270.844 361.219C270.82 361.184 270.794 361.15 270.771 361.114C270.659 360.943 270.554 360.765 270.462 360.582C270.454 360.566 270.447 360.547 270.44 360.531C270.359 360.366 270.29 360.196 270.228 360.023C270.21 359.972 270.193 359.921 270.177 359.87C270.125 359.708 270.082 359.542 270.046 359.375C270.038 359.34 270.029 359.306 270.022 359.27C269.984 359.071 269.959 358.867 269.946 358.662C269.943 358.613 269.944 358.564 269.942 358.514C269.936 358.352 269.939 358.189 269.948 358.024C269.952 357.965 269.955 357.906 269.961 357.847C269.982 357.636 270.011 357.426 270.058 357.214V357.213C270.328 356.018 270.999 355.019 271.897 354.324C273.051 353.429 274.582 353.039 276.118 353.386C276.323 353.433 276.521 353.492 276.714 353.563C276.732 353.569 276.751 353.578 276.769 353.584C276.954 353.655 277.134 353.733 277.307 353.821C279.321 354.849 280.467 357.139 279.946 359.445C279.328 362.175 276.615 363.889 273.884 363.272Z" fill="#5991A6"/>
<path d="M277.759 358.004C277.758 357.99 277.754 357.976 277.753 357.961C277.74 357.843 277.729 357.724 277.703 357.603C277.584 357.052 277.265 356.548 276.82 356.204C276.721 356.128 276.618 356.066 276.516 356.004C276.504 355.997 276.492 355.988 276.48 355.981C276.408 355.937 276.335 355.9 276.261 355.865C276.218 355.843 276.177 355.816 276.132 355.796C276.106 355.785 276.08 355.78 276.054 355.77C275.972 355.738 275.89 355.712 275.808 355.687C275.755 355.672 275.703 355.654 275.65 355.642C275.542 355.616 275.435 355.599 275.328 355.587C275.311 355.585 275.294 355.58 275.278 355.578C275.278 355.578 275.28 355.58 275.282 355.582C273.501 355.399 271.854 356.966 272.305 359.058C272.424 359.608 272.743 360.113 273.189 360.457C273.389 360.612 273.596 360.727 273.807 360.825C273.831 360.837 273.851 360.855 273.876 360.866C273.907 360.88 273.94 360.889 273.972 360.901C274.018 360.919 274.064 360.934 274.109 360.951C274.2 360.981 274.291 361.007 274.383 361.028C274.426 361.037 274.468 361.048 274.51 361.056C274.631 361.078 274.751 361.093 274.871 361.098C274.882 361.098 274.893 361.101 274.904 361.101C275.034 361.107 275.163 361.1 275.29 361.087C275.329 361.083 275.366 361.075 275.405 361.07C275.494 361.057 275.583 361.041 275.669 361.019C275.712 361.008 275.754 360.996 275.796 360.984C275.881 360.959 275.964 360.929 276.046 360.895C276.081 360.88 276.118 360.867 276.154 360.851C276.268 360.799 276.378 360.741 276.485 360.675L276.487 360.674C276.592 360.608 276.692 360.532 276.787 360.452C276.817 360.427 276.845 360.399 276.874 360.373C276.939 360.313 277.001 360.251 277.06 360.186C277.09 360.154 277.118 360.121 277.146 360.087C277.202 360.017 277.256 359.945 277.305 359.87C277.327 359.837 277.35 359.807 277.37 359.773C277.437 359.664 277.498 359.55 277.549 359.431C277.554 359.421 277.556 359.411 277.56 359.401C277.607 359.291 277.645 359.175 277.677 359.055C277.688 359.014 277.696 358.972 277.706 358.931C277.726 358.839 277.742 358.745 277.754 358.649C277.76 358.601 277.765 358.553 277.768 358.505C277.771 358.47 277.777 358.437 277.778 358.403C277.78 358.354 277.773 358.305 277.772 358.256C277.768 358.17 277.766 358.088 277.759 358.004Z" fill="#5991A6"/>
<path d="M285.676 354.792L284.898 355.601L285.394 356.388L285.534 356.611L285.683 356.845L286.748 356.489C287.095 356.834 287.502 357.125 287.957 357.342L287.978 358.465L289.413 358.789L289.914 357.785C290.151 357.784 290.385 357.762 290.614 357.723C290.737 357.703 290.855 357.667 290.975 357.636C291.064 357.614 291.156 357.599 291.244 357.572L291.24 357.568C291.283 357.554 291.33 357.548 291.372 357.533L292.181 358.312L293.423 357.527L293.068 356.462C293.412 356.115 293.703 355.707 293.921 355.253L295.043 355.231L295.367 353.797L294.797 353.513L294.363 353.296C294.363 353.264 294.356 353.232 294.355 353.198L294.359 353.201C294.357 353.104 294.338 353.011 294.33 352.914C294.318 352.782 294.313 352.649 294.29 352.519C294.248 352.286 294.19 352.058 294.112 351.838L294.89 351.029L294.105 349.786L293.843 349.874L293.042 350.142C292.695 349.797 292.287 349.507 291.833 349.289L291.811 348.166L291.265 348.043L290.377 347.842L289.876 348.846C289.371 348.848 288.879 348.935 288.417 349.098L287.608 348.319L286.366 349.104L286.722 350.169C286.377 350.516 286.086 350.923 285.868 351.378L284.746 351.4L284.422 352.834L285.426 353.335C285.427 353.839 285.514 354.33 285.676 354.792ZM292.584 353.922C292.249 355.407 290.772 356.34 289.287 356.004C288.759 355.885 288.305 355.616 287.949 355.26C287.921 355.231 287.89 355.204 287.863 355.175C287.76 355.062 287.667 354.942 287.584 354.814C287.563 354.783 287.547 354.75 287.528 354.717C287.464 354.61 287.409 354.5 287.36 354.385C287.344 354.346 287.327 354.308 287.311 354.268C287.257 354.122 287.213 353.973 287.185 353.819C287.18 353.796 287.179 353.771 287.176 353.748C287.154 353.613 287.144 353.474 287.143 353.334C287.143 353.291 287.143 353.247 287.144 353.203C287.151 353.039 287.167 352.875 287.204 352.709V352.708C287.27 352.416 287.392 352.151 287.538 351.907C287.856 351.377 288.33 350.966 288.893 350.746C289.388 350.553 289.944 350.5 290.501 350.626C290.719 350.674 290.921 350.755 291.113 350.85C292.228 351.4 292.87 352.654 292.584 353.922Z" fill="#5991A6"/>
<path d="M290.792 352.094C290.741 352.059 290.687 352.045 290.635 352.017C290.592 351.992 290.555 351.956 290.508 351.936C290.467 351.918 290.426 351.908 290.384 351.894C290.363 351.887 290.342 351.879 290.32 351.872C290.228 351.846 290.136 351.826 290.044 351.817C290.049 351.821 290.054 351.827 290.059 351.831C289.108 351.726 288.222 352.527 288.41 353.629C288.472 353.993 288.69 354.327 288.996 354.535C289.03 354.559 289.068 354.568 289.104 354.588C289.161 354.625 289.217 354.665 289.281 354.694C289.312 354.708 289.344 354.71 289.376 354.722C289.428 354.74 289.478 354.754 289.53 354.767C289.621 354.79 289.71 354.804 289.8 354.81C289.85 354.813 289.899 354.817 289.949 354.815C290.045 354.812 290.137 354.797 290.229 354.775C290.268 354.766 290.307 354.762 290.345 354.751C290.472 354.711 290.594 354.658 290.705 354.586C290.718 354.578 290.728 354.566 290.741 354.557C290.838 354.491 290.927 354.415 291.006 354.328C291.035 354.296 291.059 354.259 291.086 354.223C291.141 354.152 291.19 354.077 291.232 353.994C291.255 353.949 291.274 353.902 291.292 353.854C291.325 353.77 291.348 353.683 291.366 353.591C291.375 353.539 291.386 353.489 291.391 353.435C291.393 353.407 291.403 353.381 291.404 353.352C291.406 353.298 291.388 353.246 291.384 353.192C291.381 353.127 291.391 353.067 291.379 353C291.315 352.636 291.097 352.302 290.792 352.094Z" fill="#5991A6"/>
<path d="M297.25 366.583L296.652 366.285C296.651 365.917 296.614 365.554 296.549 365.2C296.549 365.197 296.548 365.194 296.547 365.191C296.489 364.88 296.41 364.575 296.306 364.279L297.376 363.167L296.297 361.457L295.935 361.577L294.833 361.946C294.355 361.471 293.795 361.072 293.17 360.772L293.14 359.229L292.389 359.06L291.168 358.784L290.478 360.165C289.785 360.167 289.108 360.287 288.473 360.511L287.36 359.44L285.65 360.52L286.139 361.984C285.664 362.462 285.265 363.022 284.965 363.646L283.422 363.675L282.977 365.648L284.357 366.337C284.359 367.031 284.479 367.708 284.703 368.343L283.633 369.456L284.712 371.165L286.176 370.676C286.654 371.151 287.214 371.55 287.839 371.851L287.869 373.394L289.841 373.839L290.531 372.459C290.841 372.458 291.145 372.43 291.447 372.383C291.454 372.382 291.463 372.381 291.471 372.38C291.835 372.322 292.193 372.234 292.536 372.113L293.031 372.589L293.097 372.652L293.649 373.183L294.213 372.826L295.358 372.103L294.869 370.64C294.985 370.522 295.081 370.386 295.188 370.259C295.518 369.869 295.816 369.449 296.043 368.977L297.586 368.948L298.031 366.976L297.25 366.583ZM289.671 370.012C288.944 369.848 288.32 369.478 287.83 368.987C287.791 368.948 287.749 368.911 287.713 368.871C287.57 368.716 287.441 368.55 287.328 368.375C287.301 368.332 287.277 368.287 287.252 368.243C287.164 368.096 287.087 367.943 287.02 367.785C286.997 367.732 286.973 367.678 286.952 367.623C286.879 367.424 286.817 367.218 286.778 367.005C286.771 366.973 286.77 366.939 286.766 366.906C286.737 366.72 286.723 366.529 286.72 366.337C286.72 366.278 286.72 366.218 286.723 366.157C286.732 365.932 286.754 365.705 286.806 365.477C287.152 363.945 288.38 362.841 289.835 362.578C290.32 362.491 290.831 362.497 291.342 362.613H291.343C291.559 362.662 291.762 362.738 291.961 362.819C292.027 362.847 292.093 362.874 292.157 362.905C293.71 363.655 294.603 365.393 294.207 367.146C293.744 369.191 291.715 370.474 289.671 370.012Z" fill="#5991A6"/>
<path d="M292.561 366.014C292.54 365.83 292.506 365.642 292.437 365.447C292.372 365.258 292.262 365.083 292.119 364.943C291.971 364.797 291.816 364.686 291.659 364.587C291.619 364.56 291.578 364.537 291.535 364.513C291.489 364.488 291.442 364.46 291.394 364.439C291.38 364.432 291.366 364.422 291.352 364.416C291.302 364.394 291.251 364.382 291.201 364.365C291.149 364.346 291.097 364.326 291.044 364.312C291.013 364.304 290.981 364.3 290.95 364.293C289.442 363.964 287.952 365.362 288.579 367.178C288.644 367.367 288.754 367.543 288.897 367.683C289.13 367.911 289.38 368.076 289.633 368.191C289.644 368.197 289.653 368.204 289.664 368.21C289.688 368.22 289.713 368.221 289.736 368.231C289.86 368.28 289.985 368.317 290.109 368.341C290.147 368.348 290.185 368.357 290.223 368.362C290.374 368.383 290.525 368.391 290.672 368.379C290.696 368.376 290.718 368.371 290.742 368.368C290.868 368.354 290.992 368.327 291.112 368.29C291.15 368.278 291.187 368.267 291.223 368.253C291.497 368.152 291.746 367.995 291.955 367.791C291.983 367.764 292.009 367.736 292.035 367.706C292.12 367.613 292.197 367.513 292.265 367.405C292.278 367.385 292.292 367.368 292.304 367.348C292.378 367.22 292.435 367.081 292.482 366.936C292.494 366.899 292.501 366.861 292.511 366.823C292.542 366.7 292.563 366.572 292.572 366.44C292.574 366.414 292.583 366.391 292.584 366.364C292.584 366.348 292.582 366.332 292.582 366.315C292.583 366.263 292.577 366.21 292.575 366.157C292.571 366.109 292.569 366.062 292.561 366.014Z" fill="#5991A6"/>
</g>
<path d="M282.539 362.055L283.134 359.419L281.289 358.497C281.285 357.57 281.125 356.666 280.827 355.817L282.257 354.332L280.814 352.047L278.858 352.701C278.219 352.067 277.472 351.533 276.636 351.132L276.597 349.07L273.961 348.475L273.04 350.32C272.113 350.323 271.208 350.484 270.359 350.782L268.873 349.352L266.588 350.795L267.241 352.751C266.607 353.389 266.073 354.137 265.672 354.973L263.61 355.012L263.015 357.647L264.86 358.569C264.863 359.496 265.024 360.4 265.322 361.249L263.892 362.735L265.335 365.019L267.291 364.365C267.93 365 268.677 365.533 269.513 365.934L269.552 367.996L272.187 368.592L273.109 366.746C274.036 366.743 274.94 366.583 275.789 366.284L277.275 367.715L279.559 366.271L278.905 364.315C279.54 363.677 280.073 362.929 280.474 362.094L282.539 362.055ZM271.959 363.477C269.228 362.861 267.514 360.148 268.13 357.417C268.746 354.687 271.46 352.973 274.19 353.589C276.92 354.205 278.634 356.919 278.018 359.649C277.403 362.379 274.689 364.093 271.959 363.477Z" fill="#E6E6E6"/>
<path d="M268.126 357.417C268.742 354.687 271.456 352.973 274.186 353.589C274.61 353.684 275.004 353.836 275.375 354.025C274.764 353.495 274.018 353.103 273.174 352.912C270.444 352.295 267.73 354.01 267.114 356.741C266.594 359.048 267.74 361.337 269.753 362.365C268.387 361.181 267.701 359.303 268.126 357.417Z" fill="#B3B3B3"/>
<path d="M281.243 353.654L279.812 355.139C280.111 355.988 280.271 356.892 280.274 357.819L281.278 358.32C281.257 357.455 281.104 356.61 280.824 355.815L282.254 354.329L280.811 352.045L280.328 352.206L281.243 353.654Z" fill="#B3B3B3"/>
<path d="M282.084 358.895L281.524 361.377L279.461 361.416C279.06 362.252 278.527 362.999 277.892 363.638L278.546 365.593L276.448 366.918L277.273 367.713L279.558 366.27L278.904 364.314C279.538 363.675 280.072 362.927 280.473 362.092L282.535 362.053L283.13 359.418L282.084 358.895Z" fill="#B3B3B3"/>
<path d="M274.777 365.608C273.928 365.906 273.023 366.067 272.096 366.07L271.175 367.915L269.543 367.547L269.552 367.997L272.187 368.592L273.109 366.746C273.952 366.743 274.773 366.604 275.555 366.356L274.777 365.608Z" fill="#B3B3B3"/>
<path d="M266.277 363.69L264.804 364.182L265.333 365.02L267.14 364.416C266.839 364.188 266.544 363.953 266.277 363.69Z" fill="#B3B3B3"/>
<path d="M275.621 350.454C275.978 350.626 276.31 350.832 276.632 351.048L276.594 349.069L275.59 348.842L275.621 350.454Z" fill="#B3B3B3"/>
<path d="M275.843 358.603C275.777 360.51 273.921 361.757 272.159 361.151C271.038 360.766 270.257 359.648 270.298 358.463C270.365 356.554 272.221 355.309 273.983 355.915C275.104 356.301 275.884 357.419 275.843 358.603Z" fill="#E6E6E6"/>
<path d="M274.202 355.999C273.919 355.877 273.632 355.808 273.349 355.78C274.068 356.308 274.517 357.178 274.485 358.082C274.427 359.761 272.984 360.921 271.438 360.766C271.597 360.882 271.764 360.988 271.947 361.067C273.77 361.859 275.779 360.589 275.848 358.604C275.885 357.5 275.215 356.438 274.202 355.999Z" fill="#B3B3B3"/>
<path d="M293.112 355.435L293.436 354.001L292.432 353.5C292.43 352.996 292.343 352.504 292.18 352.042L292.959 351.233L292.174 349.989L291.109 350.345C290.761 350 290.354 349.709 289.9 349.492L289.878 348.369L288.444 348.045L287.943 349.049C287.439 349.051 286.947 349.138 286.485 349.301L285.676 348.522L284.433 349.307L284.789 350.372C284.444 350.719 284.154 351.127 283.936 351.581L282.813 351.603L282.489 353.037L283.493 353.538C283.495 354.042 283.582 354.534 283.745 354.996L282.966 355.805L283.751 357.048L284.816 356.692C285.163 357.037 285.571 357.327 286.025 357.545L286.047 358.668L287.481 358.992L287.982 357.988C288.486 357.986 288.978 357.899 289.44 357.736L290.249 358.515L291.492 357.73L291.136 356.665C291.481 356.318 291.771 355.91 291.989 355.456L293.112 355.435ZM287.354 356.21C285.869 355.874 284.936 354.398 285.271 352.912C285.606 351.427 287.083 350.494 288.569 350.829C290.054 351.165 290.986 352.641 290.651 354.127C290.316 355.612 288.841 356.545 287.354 356.21Z" fill="#E6E6E6"/>
<path d="M285.273 352.912C285.608 351.427 287.085 350.494 288.57 350.829C288.801 350.881 289.016 350.964 289.218 351.067C288.885 350.778 288.479 350.565 288.019 350.462C286.534 350.127 285.057 351.059 284.722 352.545C284.439 353.8 285.063 355.045 286.158 355.604C285.416 354.959 285.042 353.938 285.273 352.912Z" fill="#B3B3B3"/>
<path d="M292.409 350.864L291.631 351.673C291.793 352.135 291.88 352.627 291.882 353.131L292.429 353.405C292.417 352.934 292.333 352.474 292.182 352.042L292.96 351.233L292.175 349.989L291.913 350.077L292.409 350.864Z" fill="#B3B3B3"/>
<path d="M292.868 353.717L292.563 355.068L291.441 355.089C291.223 355.544 290.933 355.95 290.588 356.298L290.943 357.363L289.802 358.084L290.251 358.517L291.493 357.732L291.138 356.667C291.482 356.32 291.773 355.912 291.991 355.458L293.113 355.436L293.436 354.002L292.868 353.717Z" fill="#B3B3B3"/>
<path d="M288.89 357.368C288.428 357.531 287.936 357.618 287.432 357.62L286.931 358.624L286.043 358.423L286.047 358.668L287.482 358.993L287.983 357.989C288.441 357.988 288.888 357.912 289.313 357.776L288.89 357.368Z" fill="#B3B3B3"/>
<path d="M284.265 356.324L283.464 356.592L283.752 357.048L284.736 356.72C284.57 356.596 284.409 356.468 284.265 356.324Z" fill="#B3B3B3"/>
<path d="M289.349 349.124C289.543 349.217 289.723 349.33 289.899 349.447L289.878 348.37L289.332 348.247L289.349 349.124Z" fill="#B3B3B3"/>
<path d="M289.463 353.35C289.575 354.618 288.259 355.449 287.163 354.804C286.769 354.572 286.498 354.144 286.458 353.689C286.346 352.421 287.662 351.59 288.759 352.235C289.152 352.466 289.423 352.895 289.463 353.35Z" fill="#E6E6E6"/>
<path d="M288.575 352.14C288.421 352.073 288.265 352.036 288.111 352.021C288.502 352.308 288.746 352.782 288.729 353.273C288.698 354.186 287.913 354.817 287.071 354.733C287.157 354.796 287.248 354.853 287.348 354.896C288.34 355.327 289.433 354.636 289.47 353.555C289.491 352.957 289.127 352.38 288.575 352.14Z" fill="#B3B3B3"/>
<path d="M295.661 369.152L296.107 367.18L294.726 366.49C294.724 365.796 294.604 365.12 294.38 364.484L295.451 363.373L294.371 361.663L292.907 362.152C292.429 361.677 291.869 361.278 291.244 360.978L291.214 359.435L289.242 358.99L288.553 360.37C287.859 360.372 287.182 360.492 286.547 360.716L285.435 359.645L283.726 360.725L284.214 362.189C283.74 362.667 283.341 363.227 283.04 363.851L281.497 363.881L281.052 365.853L282.432 366.542C282.434 367.236 282.555 367.913 282.778 368.548L281.708 369.66L282.788 371.369L284.251 370.88C284.73 371.355 285.289 371.754 285.915 372.055L285.944 373.598L287.916 374.043L288.606 372.663C289.3 372.661 289.976 372.54 290.612 372.317L291.723 373.387L293.433 372.307L292.944 370.844C293.419 370.365 293.818 369.806 294.118 369.18L295.661 369.152ZM287.744 370.217C285.701 369.756 284.418 367.725 284.879 365.683C285.34 363.64 287.371 362.357 289.413 362.818C291.456 363.279 292.739 365.31 292.278 367.352C291.817 369.395 289.788 370.678 287.744 370.217Z" fill="#E6E6E6"/>
<path d="M284.881 365.682C285.341 363.639 287.372 362.356 289.415 362.817C289.732 362.889 290.028 363.001 290.305 363.144C289.848 362.747 289.289 362.454 288.658 362.311C286.615 361.85 284.585 363.132 284.124 365.175C283.735 366.902 284.592 368.615 286.098 369.384C285.076 368.499 284.562 367.093 284.881 365.682Z" fill="#B3B3B3"/>
<path d="M294.693 362.866L293.623 363.978C293.846 364.614 293.967 365.29 293.969 365.984L294.72 366.359C294.704 365.712 294.589 365.08 294.381 364.485L295.451 363.373L294.371 361.663L294.01 361.784L294.693 362.866Z" fill="#B3B3B3"/>
<path d="M295.321 366.788L294.902 368.646L293.359 368.675C293.058 369.301 292.659 369.86 292.184 370.338L292.673 371.802L291.104 372.794L291.722 373.388L293.431 372.308L292.942 370.844C293.417 370.366 293.816 369.807 294.117 369.181L295.66 369.152L296.105 367.18L295.321 366.788Z" fill="#B3B3B3"/>
<path d="M289.856 371.811C289.22 372.034 288.544 372.154 287.85 372.157L287.16 373.537L285.939 373.261L285.946 373.599L287.918 374.044L288.608 372.664C289.239 372.662 289.854 372.558 290.438 372.372L289.856 371.811Z" fill="#B3B3B3"/>
<path d="M283.495 370.375L282.393 370.744L282.788 371.371L284.141 370.918C283.915 370.749 283.694 370.574 283.495 370.375Z" fill="#B3B3B3"/>
<path d="M290.485 360.472C290.751 360.6 291 360.755 291.241 360.916L291.213 359.435L290.462 359.266L290.485 360.472Z" fill="#B3B3B3"/>
<path d="M290.623 366.1C290.934 367.994 288.94 369.268 287.357 368.204C286.927 367.915 286.62 367.444 286.535 366.933C286.224 365.039 288.219 363.765 289.801 364.828C290.233 365.118 290.539 365.588 290.623 366.1Z" fill="#E6E6E6"/>
<path d="M289.423 364.621C289.212 364.529 288.997 364.478 288.785 364.457C289.322 364.853 289.659 365.504 289.635 366.18C289.591 367.436 288.511 368.304 287.354 368.188C287.473 368.275 287.598 368.354 287.735 368.414C289.099 369.006 290.603 368.056 290.654 366.569C290.682 365.743 290.181 364.95 289.423 364.621Z" fill="#B3B3B3"/>
</svg>
