<svg width="375" height="518" viewBox="0 0 375 518" fill="none" xmlns="http://www.w3.org/2000/svg">
<path d="M30.2596 -36.9658L59.2441 -20.4767V12.5016L30.2596 28.9907L1.27517 12.5016V-20.4767L30.2596 -36.9658Z" fill="#29566B"/>
<path d="M2.27517 -19.8951L30.2596 -35.8153L58.2441 -19.8951V11.92L30.2596 27.8402L2.27517 11.92V-19.8951Z" stroke="white" stroke-opacity="0.34" stroke-width="2"/>
<path d="M72.3296 -28.6445L86.8219 -20.4V-3.91084L72.3296 4.33372L57.8374 -3.91084V-20.4L72.3296 -28.6445Z" fill="#29566B"/>
<path d="M58.8374 -19.8184L72.3296 -27.494L85.8219 -19.8184V-4.49245L72.3296 3.18322L58.8374 -4.49245V-19.8184Z" stroke="white" stroke-opacity="0.34" stroke-width="2"/>
<path d="M58.5672 -20.3232L73.0594 -12.0787V4.41044L58.5672 12.655L44.075 4.41044V-12.0787L58.5672 -20.3232Z" fill="#29566B"/>
<path d="M45.075 -11.4971L58.5672 -19.1727L72.0594 -11.4971V3.82884L58.5672 11.5045L45.075 3.82884V-11.4971Z" stroke="white" stroke-opacity="0.34" stroke-width="2"/>
<path d="M68.1071 47.791L81.1095 55.188V69.982L68.1071 77.379L55.1047 69.982V55.188L68.1071 47.791Z" fill="#5AC7D0" fill-opacity="0.4"/>
<path d="M56.1047 55.7696L68.1071 48.9415L80.1095 55.7696V69.4004L68.1071 76.2285L56.1047 69.4004V55.7696Z" stroke="white" stroke-opacity="0.34" stroke-width="2"/>
<path d="M68.1071 6.49121L81.1095 13.8882V28.6822L68.1071 36.0792L55.1047 28.6822V13.8882L68.1071 6.49121Z" fill="#29566B"/>
<path d="M56.1047 14.4698L68.1071 7.64171L80.1095 14.4698V28.1006L68.1071 34.9287L56.1047 28.1006V14.4698Z" stroke="white" stroke-opacity="0.34" stroke-width="2"/>
<path d="M1.95245 11.4229L16.4447 19.6674V36.1565L1.95245 44.4011L-12.5398 36.1565V19.6674L1.95245 11.4229Z" fill="#29566B"/>
<path d="M-11.5398 20.249L1.95245 12.5733L15.4447 20.249V35.5749L1.95245 43.2506L-11.5398 35.5749V20.249Z" stroke="white" stroke-opacity="0.34" stroke-width="2"/>
<path d="M16.0279 35.1543L30.5201 43.3989V59.888L16.0279 68.1325L1.53566 59.888V43.3989L16.0279 35.1543Z" fill="#29566B"/>
<path d="M2.53566 43.9805L16.0279 36.3048L29.5201 43.9805V59.3064L16.0279 66.982L2.53566 59.3064V43.9805Z" stroke="white" stroke-opacity="0.34" stroke-width="2"/>
<path d="M30.1033 58.5781L44.5956 66.8227V83.3118L30.1033 91.5564L15.6111 83.3118V66.8227L30.1033 58.5781Z" fill="#5AC7D0" fill-opacity="0.4"/>
<path d="M16.6111 67.4043L30.1033 59.7286L43.5956 67.4043V82.7302L30.1033 90.4059L16.6111 82.7302V67.4043Z" stroke="white" stroke-opacity="0.34" stroke-width="2"/>
<path d="M16.0279 81.6943L30.5201 89.9389V106.428L16.0279 114.673L1.53566 106.428V89.9389L16.0279 81.6943Z" fill="#5AC7D0" fill-opacity="0.4"/>
<path d="M2.53566 90.5205L16.0279 82.8448L29.5201 90.5205V105.846L16.0279 113.522L2.53566 105.846V90.5205Z" stroke="white" stroke-opacity="0.34" stroke-width="2"/>
<path d="M2.42155 153.198L16.7783 161.366V177.701L2.42155 185.868L-11.9352 177.701V161.366L2.42155 153.198Z" fill="#29566B"/>
<path d="M-10.9352 161.947L2.42155 154.349L15.7783 161.947V177.119L2.42155 184.718L-10.9352 177.119V161.947Z" stroke="white" stroke-opacity="0.34" stroke-width="2"/>
<path d="M16.1842 129.774L30.541 137.942V154.277L16.1842 162.444L1.82745 154.277V137.942L16.1842 129.774Z" fill="#29566B"/>
<path d="M2.82745 138.524L16.1842 130.925L29.541 138.524V153.695L16.1842 161.294L2.82745 153.695V138.524Z" stroke="white" stroke-opacity="0.34" stroke-width="2"/>
<path d="M99.855 -13.2354L114.347 -4.99079V11.4983L99.855 19.7429L85.3628 11.4983V-4.99079L99.855 -13.2354Z" fill="#29566B"/>
<path d="M86.3628 -4.40919L99.855 -12.0849L113.347 -4.40919V10.9167L99.855 18.5924L86.3628 10.9167V-4.40919Z" stroke="white" stroke-opacity="0.34" stroke-width="2"/>
<path d="M43.3969 6.49121L56.3993 13.8882V28.6822L43.3969 36.0792L30.3945 28.6822V13.8882L43.3969 6.49121Z" fill="#29566B"/>
<path d="M31.3945 14.4698L43.3969 7.64171L55.3993 14.4698V28.1006L43.3969 34.9287L31.3945 28.1006V14.4698Z" stroke="white" stroke-opacity="0.34" stroke-width="2"/>
<path d="M30.8851 233.948L59.8696 217.459V184.481L30.8851 167.992L1.90066 184.481V217.459L30.8851 233.948Z" fill="#29566B"/>
<path d="M2.90066 216.878L30.8851 232.798L58.8696 216.878V185.062L30.8851 169.142L2.90066 185.062V216.878Z" stroke="white" stroke-opacity="0.34" stroke-width="2"/>
<path d="M87.0306 233.948L101.523 225.704V209.215L87.0306 200.97L72.5383 209.215V225.704L87.0306 233.948Z" fill="#29566B"/>
<path d="M73.5383 225.122L87.0306 232.798L100.523 225.122V209.796L87.0306 202.12L73.5383 209.796V225.122Z" stroke="white" stroke-opacity="0.34" stroke-width="2"/>
<path d="M114.556 233.948L129.048 225.704V209.215L114.556 200.97L100.064 209.215V225.704L114.556 233.948Z" fill="#29566B"/>
<path d="M101.064 225.122L114.556 232.798L128.048 225.122V209.796L114.556 202.12L101.064 209.796V225.122Z" stroke="white" stroke-opacity="0.34" stroke-width="2"/>
<path d="M100.481 210.217L114.973 201.972V185.483L100.481 177.239L85.9883 185.483V201.972L100.481 210.217Z" fill="#29566B"/>
<path d="M86.9883 201.391L100.481 209.066L113.973 201.391V186.065L100.481 178.389L86.9883 186.065V201.391Z" stroke="white" stroke-opacity="0.34" stroke-width="2"/>
<path d="M72.9551 225.627L87.4474 217.382V200.893L72.9551 192.649L58.4629 200.893V217.382L72.9551 225.627Z" fill="#29566B"/>
<path d="M59.4629 216.801L72.9551 224.476L86.4474 216.801V201.475L72.9551 193.799L59.4629 201.475V216.801Z" stroke="white" stroke-opacity="0.34" stroke-width="2"/>
<path d="M59.1924 217.306L73.6847 209.061V192.572L59.1924 184.327L44.7002 192.572V209.061L59.1924 217.306Z" fill="#29566B"/>
<path d="M45.7002 208.48L59.1924 216.155L72.6847 208.48V193.154L59.1924 185.478L45.7002 193.154V208.48Z" stroke="white" stroke-opacity="0.34" stroke-width="2"/>
<path d="M44.0222 190.491L57.0245 183.094V168.3L44.0222 160.903L31.0198 168.3V183.094L44.0222 190.491Z" fill="#29566B"/>
<path d="M32.0198 182.513L44.0222 189.341L56.0245 182.513V168.882L44.0222 162.054L32.0198 168.882V182.513Z" stroke="white" stroke-opacity="0.34" stroke-width="2"/>
<path d="M68.7326 149.191L81.735 141.794V127L68.7326 119.603L55.7302 127V141.794L68.7326 149.191Z" fill="#5AC7D0" fill-opacity="0.4"/>
<path d="M56.7302 141.213L68.7326 148.041L80.735 141.213V127.582L68.7326 120.754L56.7302 127.582V141.213Z" stroke="white" stroke-opacity="0.34" stroke-width="2"/>
<path d="M68.7326 190.491L81.735 183.094V168.3L68.7326 160.903L55.7302 168.3V183.094L68.7326 190.491Z" fill="#29566B"/>
<path d="M56.7302 182.513L68.7326 189.341L80.735 182.513V168.882L68.7326 162.054L56.7302 168.882V182.513Z" stroke="white" stroke-opacity="0.34" stroke-width="2"/>
<path d="M56.5339 169.841L69.5362 162.444V147.65L56.5339 140.253L43.5315 147.65V162.444L56.5339 169.841Z" fill="#5AC7D0" fill-opacity="0.4"/>
<path d="M44.5315 161.862L56.5339 168.69L68.5362 161.862V148.231L56.5339 141.403L44.5315 148.231V161.862Z" stroke="white" stroke-opacity="0.34" stroke-width="2"/>
<path d="M30.1033 106.042L44.5956 114.287V130.776L30.1033 139.02L15.6111 130.776V114.287L30.1033 106.042Z" fill="#5AC7D0" fill-opacity="0.4"/>
<path d="M16.6111 114.868L30.1033 107.192L43.5956 114.868V130.194L30.1033 137.87L16.6111 130.194V114.868Z" stroke="white" stroke-opacity="0.34" stroke-width="2"/>
<path d="M274.468 517.907L303.453 501.418V468.439L274.468 451.95L245.484 468.439V501.418L274.468 517.907Z" fill="#29566B"/>
<path d="M246.484 500.836L274.468 516.756L302.453 500.836V469.021L274.468 453.101L246.484 469.021V500.836Z" stroke="white" stroke-opacity="0.34" stroke-width="2"/>
<path d="M330.614 517.907L345.106 509.662V493.173L330.614 484.928L316.122 493.173V509.662L330.614 517.907Z" fill="#29566B"/>
<path d="M317.122 509.081L330.614 516.756L344.106 509.081V493.755L330.614 486.079L317.122 493.755V509.081Z" stroke="white" stroke-opacity="0.34" stroke-width="2"/>
<path d="M358.139 517.907L372.631 509.662V493.173L358.139 484.928L343.647 493.173V509.662L358.139 517.907Z" fill="#29566B"/>
<path d="M344.647 509.081L358.139 516.756L371.631 509.081V493.755L358.139 486.079L344.647 493.755V509.081Z" stroke="white" stroke-opacity="0.34" stroke-width="2"/>
<path d="M344.064 494.175L358.556 485.93V469.441L344.064 461.197L329.572 469.441V485.93L344.064 494.175Z" fill="#29566B"/>
<path d="M330.572 485.349L344.064 493.024L357.556 485.349V470.023L344.064 462.347L330.572 470.023V485.349Z" stroke="white" stroke-opacity="0.34" stroke-width="2"/>
<path d="M316.538 509.585L331.031 501.34V484.851L316.538 476.607L302.046 484.851V501.34L316.538 509.585Z" fill="#29566B"/>
<path d="M303.046 500.759L316.538 508.434L330.031 500.759V485.433L316.538 477.757L303.046 485.433V500.759Z" stroke="white" stroke-opacity="0.34" stroke-width="2"/>
<path d="M302.776 501.263L317.268 493.019V476.529L302.776 468.285L288.283 476.529V493.019L302.776 501.263Z" fill="#29566B"/>
<path d="M289.283 492.437L302.776 500.113L316.268 492.437V477.111L302.776 469.435L289.283 477.111V492.437Z" stroke="white" stroke-opacity="0.34" stroke-width="2"/>
<path d="M287.605 474.449L300.608 467.052V452.258L287.605 444.861L274.603 452.258V467.052L287.605 474.449Z" fill="#29566B"/>
<path d="M275.603 466.471L287.605 473.299L299.608 466.471V452.84L287.605 446.012L275.603 452.84V466.471Z" stroke="white" stroke-opacity="0.34" stroke-width="2"/>
<path d="M312.316 433.149L325.318 425.752V410.958L312.316 403.561L299.313 410.958V425.752L312.316 433.149Z" fill="#5AC7D0" fill-opacity="0.4"/>
<path d="M300.313 425.171L312.316 431.999L324.318 425.171V411.54L312.316 404.712L300.313 411.54V425.171Z" stroke="white" stroke-opacity="0.34" stroke-width="2"/>
<path d="M312.316 474.449L325.318 467.052V452.258L312.316 444.861L299.313 452.258V467.052L312.316 474.449Z" fill="#29566B"/>
<path d="M300.313 466.471L312.316 473.299L324.318 466.471V452.84L312.316 446.012L300.313 452.84V466.471Z" stroke="white" stroke-opacity="0.34" stroke-width="2"/>
<path d="M300.117 453.799L313.12 446.402V431.608L300.117 424.211L287.115 431.608V446.402L300.117 453.799Z" fill="#5AC7D0" fill-opacity="0.4"/>
<path d="M288.115 445.821L300.117 452.649L312.12 445.821V432.19L300.117 425.362L288.115 432.19V445.821Z" stroke="white" stroke-opacity="0.34" stroke-width="2"/>
<path d="M273.687 390L288.179 398.245V414.734L273.687 422.978L259.194 414.734V398.245L273.687 390Z" fill="#5AC7D0" fill-opacity="0.4"/>
<path d="M260.194 398.826L273.687 391.15L287.179 398.826V414.152L273.687 421.828L260.194 414.152V398.826Z" stroke="white" stroke-opacity="0.34" stroke-width="2"/>
<path d="M323.468 261.907L352.453 245.418V212.439L323.468 195.95L294.484 212.439V245.418L323.468 261.907Z" fill="#29566B"/>
<path d="M295.484 244.836L323.468 260.756L351.453 244.836V213.021L323.468 197.101L295.484 213.021V244.836Z" stroke="white" stroke-opacity="0.34" stroke-width="2"/>
<path d="M379.614 261.907L394.106 253.662V237.173L379.614 228.928L365.122 237.173V253.662L379.614 261.907Z" fill="#29566B"/>
<path d="M366.122 253.081L379.614 260.756L393.106 253.081V237.755L379.614 230.079L366.122 237.755V253.081Z" stroke="white" stroke-opacity="0.34" stroke-width="2"/>
<path d="M365.538 253.585L380.031 245.34V228.851L365.538 220.607L351.046 228.851V245.34L365.538 253.585Z" fill="#29566B"/>
<path d="M352.046 244.759L365.538 252.434L379.031 244.759V229.433L365.538 221.757L352.046 229.433V244.759Z" stroke="white" stroke-opacity="0.34" stroke-width="2"/>
<path d="M351.776 245.263L366.268 237.019V220.529L351.776 212.285L337.283 220.529V237.019L351.776 245.263Z" fill="#29566B"/>
<path d="M338.283 236.437L351.776 244.113L365.268 236.437V221.111L351.776 213.435L338.283 221.111V236.437Z" stroke="white" stroke-opacity="0.34" stroke-width="2"/>
<path d="M336.605 218.449L349.608 211.052V196.258L336.605 188.861L323.603 196.258V211.052L336.605 218.449Z" fill="#29566B"/>
<path d="M324.603 210.471L336.605 217.299L348.608 210.471V196.84L336.605 190.012L324.603 196.84V210.471Z" stroke="white" stroke-opacity="0.34" stroke-width="2"/>
<path d="M361.316 177.149L374.318 169.752V154.958L361.316 147.561L348.313 154.958V169.752L361.316 177.149Z" fill="#5AC7D0" fill-opacity="0.4"/>
<path d="M349.313 169.171L361.316 175.999L373.318 169.171V155.54L361.316 148.712L349.313 155.54V169.171Z" stroke="white" stroke-opacity="0.34" stroke-width="2"/>
<path d="M361.316 218.449L374.318 211.052V196.258L361.316 188.861L348.313 196.258V211.052L361.316 218.449Z" fill="#29566B"/>
<path d="M349.313 210.471L361.316 217.299L373.318 210.471V196.84L361.316 190.012L349.313 196.84V210.471Z" stroke="white" stroke-opacity="0.34" stroke-width="2"/>
<path d="M349.117 197.799L362.12 190.402V175.608L349.117 168.211L336.115 175.608V190.402L349.117 197.799Z" fill="#5AC7D0" fill-opacity="0.4"/>
<path d="M337.115 189.82L349.117 196.648L361.12 189.82V176.189L349.117 169.361L337.115 176.189V189.82Z" stroke="white" stroke-opacity="0.34" stroke-width="2"/>
<path d="M322.687 134L337.179 142.245V158.734L322.687 166.978L308.194 158.734V142.245L322.687 134Z" fill="#5AC7D0" fill-opacity="0.4"/>
<path d="M309.194 142.826L322.687 135.15L336.179 142.826V158.152L322.687 165.828L309.194 158.152V142.826Z" stroke="white" stroke-opacity="0.34" stroke-width="2"/>
<path d="M55.9084 27.1406L68.9108 34.5376V49.3316L55.9084 56.7286L42.906 49.3316V34.5376L55.9084 27.1406Z" fill="#5AC7D0" fill-opacity="0.4"/>
<path d="M43.906 35.1192L55.9084 28.2911L67.9108 35.1192V48.75L55.9084 55.5781L43.906 48.75V35.1192Z" stroke="white" stroke-opacity="0.34" stroke-width="2"/>
</svg>
