<svg width="375" height="505" viewBox="0 0 375 505" fill="none" xmlns="http://www.w3.org/2000/svg">
<path d="M289.558 262.463L302.407 269.582V283.821L289.558 290.94L276.71 283.821V269.582L289.558 262.463Z" fill="#93A5C9"/>
<path d="M277.21 269.877L289.558 263.035L301.907 269.877V283.526L289.558 290.368L277.21 283.526V269.877Z" stroke="white" stroke-opacity="0.34"/>
<path d="M0.175451 46.6643L25.8718 60.9027V89.3794L0.175451 103.618L-25.5209 89.3794V60.9027L0.175451 46.6643Z" fill="#607299"/>
<path d="M-25.0209 61.1972L0.175451 47.2359L25.3718 61.1972V89.0849L0.175451 103.046L-25.0209 89.0849V61.1972Z" stroke="white" stroke-opacity="0.34"/>
<path d="M37.473 53.8499L50.3211 60.9691V75.2075L37.473 82.3267L24.6248 75.2075V60.9691L37.473 53.8499Z" fill="#607299"/>
<path d="M25.1248 61.2637L37.473 54.4215L49.8211 61.2637V74.9129L37.473 81.755L25.1248 74.9129V61.2637Z" stroke="white" stroke-opacity="0.34"/>
<path d="M25.2718 61.0357L38.12 68.1549V82.3933L25.2718 89.5125L12.4237 82.3933V68.1549L25.2718 61.0357Z" fill="#607299"/>
<path d="M12.9237 68.4495L25.2718 61.6074L37.62 68.4495V82.0987L25.2718 88.9409L12.9237 82.0987V68.4495Z" stroke="white" stroke-opacity="0.34"/>
<path d="M33.7295 119.852L45.2569 126.24V139.014L33.7295 145.401L22.2022 139.014V126.24L33.7295 119.852Z" fill="#93A5C9"/>
<path d="M22.7022 126.534L33.7295 120.424L44.7569 126.534V138.72L33.7295 144.83L22.7022 138.72V126.534Z" stroke="white" stroke-opacity="0.34"/>
<path d="M33.7295 84.1898L45.2569 90.5771V103.352L33.7295 109.739L22.2022 103.352V90.5771L33.7295 84.1898Z" fill="#607299"/>
<path d="M22.7022 90.8717L33.7295 84.7614L44.7569 90.8717V103.057L33.7295 109.167L22.7022 103.057V90.8717Z" stroke="white" stroke-opacity="0.34"/>
<path d="M-12.4416 108.941L0.406586 116.06V130.298L-12.4416 137.417L-25.2897 130.298V116.06L-12.4416 108.941Z" fill="#607299"/>
<path d="M-24.7897 116.354L-12.4416 109.512L-0.0934143 116.354V130.004L-12.4416 136.846L-24.7897 130.004V116.354Z" stroke="white" stroke-opacity="0.34"/>
<path d="M0.0369444 129.167L12.8851 136.286V150.525L0.0369444 157.644L-12.8112 150.525V136.286L0.0369444 129.167Z" fill="#93A5C9"/>
<path d="M-12.3112 136.581L0.0369444 129.739L12.3851 136.581V150.23L0.0369444 157.072L-12.3112 150.23V136.581Z" stroke="white" stroke-opacity="0.34"/>
<path d="M-12.4416 149.127L0.406586 156.247V170.485L-12.4416 177.604L-25.2897 170.485V156.247L-12.4416 149.127Z" fill="#93A5C9"/>
<path d="M-24.7897 156.541L-12.4416 149.699L-0.0934143 156.541V170.19L-12.4416 177.033L-24.7897 170.19V156.541Z" stroke="white" stroke-opacity="0.34"/>
<path d="M-12.3029 190.645L0.425201 197.697V211.803L-12.3029 218.855L-25.031 211.803V197.697L-12.3029 190.645Z" fill="#607299"/>
<path d="M-24.531 197.992L-12.3029 191.216L-0.0747986 197.992V211.508L-12.3029 218.284L-24.531 211.508V197.992Z" stroke="white" stroke-opacity="0.34"/>
<path d="M74.3543 46.6642L87.2025 53.7834V68.0218L74.3543 75.141L61.5062 68.0218V53.7834L74.3543 46.6642Z" fill="#607299"/>
<path d="M62.0062 54.078L74.3543 47.2359L86.7025 54.078V67.7272L74.3543 74.5694L62.0062 67.7272V54.078Z" stroke="white" stroke-opacity="0.34"/>
<path d="M61.8758 67.1568L74.724 74.276V88.5144L61.8758 95.6336L49.0277 88.5144V74.276L61.8758 67.1568Z" fill="#607299"/>
<path d="M49.5277 74.5706L61.8758 67.7284L74.224 74.5706V88.2198L61.8758 95.0619L49.5277 88.2198V74.5706Z" stroke="white" stroke-opacity="0.34"/>
<path d="M49.9515 46.6643L62.7997 53.7835V68.0219L49.9515 75.141L37.1033 68.0219V53.7835L49.9515 46.6643Z" fill="#607299"/>
<path d="M37.6033 54.078L49.9515 47.2359L62.2997 54.078V67.7273L49.9515 74.5694L37.6033 67.7273V54.078Z" stroke="white" stroke-opacity="0.34"/>
<path d="M11.8223 84.1898L23.3496 90.5771V103.352L11.8223 109.739L0.295001 103.352V90.5771L11.8223 84.1898Z" fill="#607299"/>
<path d="M0.795001 90.8717L11.8223 84.7614L22.8496 90.8717V103.057L11.8223 109.167L0.795001 103.057V90.8717Z" stroke="white" stroke-opacity="0.34"/>
<path d="M0.730139 280.6L26.4265 266.361V237.884L0.730139 223.646L-24.9662 237.884V266.361L0.730139 280.6Z" fill="#607299"/>
<path d="M-24.4662 266.067L0.730139 280.028L25.9265 266.067V238.179L0.730139 224.218L-24.4662 238.179V266.067Z" stroke="white" stroke-opacity="0.34"/>
<path d="M50.5062 280.6L63.3543 273.48V259.242L50.5062 252.123L37.658 259.242V273.48L50.5062 280.6Z" fill="#607299"/>
<path d="M38.158 273.186L50.5062 280.028L62.8543 273.186V259.537L50.5062 252.694L38.158 259.537V273.186Z" stroke="white" stroke-opacity="0.34"/>
<path d="M74.909 280.6L87.7572 273.48V259.242L74.909 252.123L62.0609 259.242V273.48L74.909 280.6Z" fill="#607299"/>
<path d="M62.5609 273.186L74.909 280.028L87.2572 273.186V259.537L74.909 252.694L62.5609 259.537V273.186Z" stroke="white" stroke-opacity="0.34"/>
<path d="M62.4305 260.107L75.2787 252.988V238.749L62.4305 231.63L49.5823 238.749V252.988L62.4305 260.107Z" fill="#607299"/>
<path d="M50.0823 252.693L62.4305 259.535L74.7787 252.693V239.044L62.4305 232.202L50.0823 239.044V252.693Z" stroke="white" stroke-opacity="0.34"/>
<path d="M38.0277 273.414L50.8758 266.295V252.056L38.0277 244.937L25.1795 252.056V266.295L38.0277 273.414Z" fill="#607299"/>
<path d="M25.6795 266L38.0277 272.842L50.3758 266V252.351L38.0277 245.509L25.6795 252.351V266Z" stroke="white" stroke-opacity="0.34"/>
<path d="M25.8265 266.228L38.6747 259.109V244.871L25.8265 237.751L12.9783 244.871V259.109L25.8265 266.228Z" fill="#607299"/>
<path d="M13.4783 258.814L25.8265 265.657L38.1747 258.814V245.165L25.8265 238.323L13.4783 245.165V258.814Z" stroke="white" stroke-opacity="0.34"/>
<path d="M12.377 243.074L23.9043 236.687V223.912L12.377 217.525L0.849689 223.912V236.687L12.377 243.074Z" fill="#607299"/>
<path d="M1.34969 236.392L12.377 242.502L23.4043 236.392V224.207L12.377 218.096L1.34969 224.207V236.392Z" stroke="white" stroke-opacity="0.34"/>
<path d="M34.2842 207.412L45.8116 201.024V188.25L34.2842 181.862L22.7569 188.25V201.024L34.2842 207.412Z" fill="#93A5C9"/>
<path d="M23.2569 200.73L34.2842 206.84L45.3116 200.73V188.544L34.2842 182.434L23.2569 188.544V200.73Z" stroke="white" stroke-opacity="0.34"/>
<path d="M34.2842 243.074L45.8116 236.687V223.912L34.2842 217.525L22.7569 223.912V236.687L34.2842 243.074Z" fill="#607299"/>
<path d="M23.2569 236.392L34.2842 242.502L45.3116 236.392V224.207L34.2842 218.096L23.2569 224.207V236.392Z" stroke="white" stroke-opacity="0.34"/>
<path d="M23.4693 225.243L34.9966 218.856V206.081L23.4693 199.694L11.942 206.081V218.856L23.4693 225.243Z" fill="#93A5C9"/>
<path d="M12.442 218.561L23.4693 224.671L34.4966 218.561V206.375L23.4693 200.265L12.442 206.375V218.561Z" stroke="white" stroke-opacity="0.34"/>
<path d="M0.0369444 170.152L12.8851 177.271V191.51L0.0369444 198.629L-12.8112 191.51V177.271L0.0369444 170.152Z" fill="#93A5C9"/>
<path d="M-12.3112 177.566L0.0369444 170.724L12.3851 177.566V191.215L0.0369444 198.057L-12.3112 191.215V177.566Z" stroke="white" stroke-opacity="0.34"/>
<path d="M22.9146 102.021L34.4419 108.408V121.183L22.9146 127.57L11.3873 121.183V108.408L22.9146 102.021Z" fill="#93A5C9"/>
<path d="M11.8873 108.703L22.9146 102.593L33.9419 108.703V120.888L22.9146 126.999L11.8873 120.888V108.703Z" stroke="white" stroke-opacity="0.34"/>
<path d="M0.175451 46.6643L25.8718 60.9027V89.3795L0.175451 103.618L-25.5209 89.3795V60.9027L0.175451 46.6643Z" fill="#607299"/>
<path d="M-25.0209 61.1973L0.175451 47.2359L25.3718 61.1973V89.0849L0.175451 103.046L-25.0209 89.0849V61.1973Z" stroke="white" stroke-opacity="0.34"/>
<path d="M37.473 53.8499L50.3211 60.969V75.2074L37.473 82.3266L24.6248 75.2074V60.969L37.473 53.8499Z" fill="#607299"/>
<path d="M25.1248 61.2636L37.473 54.4215L49.8211 61.2636V74.9129L37.473 81.755L25.1248 74.9129V61.2636Z" stroke="white" stroke-opacity="0.34"/>
<path d="M25.2718 61.0356L38.12 68.1548V82.3932L25.2718 89.5124L12.4237 82.3932V68.1548L25.2718 61.0356Z" fill="#607299"/>
<path d="M12.9237 68.4494L25.2718 61.6073L37.62 68.4494V82.0986L25.2718 88.9408L12.9237 82.0986V68.4494Z" stroke="white" stroke-opacity="0.34"/>
<path d="M33.7295 119.852L45.2569 126.24V139.014L33.7295 145.402L22.2022 139.014V126.24L33.7295 119.852Z" fill="#93A5C9"/>
<path d="M22.7022 126.534L33.7295 120.424L44.7569 126.534V138.72L33.7295 144.83L22.7022 138.72V126.534Z" stroke="white" stroke-opacity="0.34"/>
<path d="M33.7295 84.1899L45.2569 90.5773V103.352L33.7295 109.739L22.2022 103.352V90.5773L33.7295 84.1899Z" fill="#607299"/>
<path d="M22.7022 90.8718L33.7295 84.7616L44.7569 90.8718V103.057L33.7295 109.168L22.7022 103.057V90.8718Z" stroke="white" stroke-opacity="0.34"/>
<path d="M-12.4416 108.94L0.406586 116.06V130.298L-12.4416 137.417L-25.2897 130.298V116.06L-12.4416 108.94Z" fill="#607299"/>
<path d="M-24.7897 116.354L-12.4416 109.512L-0.0934143 116.354V130.003L-12.4416 136.846L-24.7897 130.003V116.354Z" stroke="white" stroke-opacity="0.34"/>
<path d="M0.0369444 129.167L12.8851 136.286V150.525L0.0369444 157.644L-12.8112 150.525V136.286L0.0369444 129.167Z" fill="#93A5C9"/>
<path d="M-12.3112 136.581L0.0369444 129.739L12.3851 136.581V150.23L0.0369444 157.072L-12.3112 150.23V136.581Z" stroke="white" stroke-opacity="0.34"/>
<path d="M-12.4416 149.127L0.406586 156.247V170.485L-12.4416 177.604L-25.2897 170.485V156.247L-12.4416 149.127Z" fill="#93A5C9"/>
<path d="M-24.7897 156.541L-12.4416 149.699L-0.0934143 156.541V170.19L-12.4416 177.033L-24.7897 170.19V156.541Z" stroke="white" stroke-opacity="0.34"/>
<path d="M-12.3029 190.645L0.425201 197.697V211.803L-12.3029 218.855L-25.031 211.803V197.697L-12.3029 190.645Z" fill="#607299"/>
<path d="M-24.531 197.992L-12.3029 191.216L-0.0747986 197.992V211.508L-12.3029 218.284L-24.531 211.508V197.992Z" stroke="white" stroke-opacity="0.34"/>
<path d="M74.3543 46.6643L87.2025 53.7835V68.0219L74.3543 75.141L61.5062 68.0219V53.7835L74.3543 46.6643Z" fill="#607299"/>
<path d="M62.0062 54.078L74.3543 47.2359L86.7025 54.078V67.7273L74.3543 74.5694L62.0062 67.7273V54.078Z" stroke="white" stroke-opacity="0.34"/>
<path d="M61.8758 67.1568L74.724 74.276V88.5144L61.8758 95.6336L49.0277 88.5144V74.276L61.8758 67.1568Z" fill="#607299"/>
<path d="M49.5277 74.5706L61.8758 67.7284L74.224 74.5706V88.2198L61.8758 95.0619L49.5277 88.2198V74.5706Z" stroke="white" stroke-opacity="0.34"/>
<path d="M49.9515 46.6643L62.7997 53.7835V68.0219L49.9515 75.1411L37.1033 68.0219V53.7835L49.9515 46.6643Z" fill="#607299"/>
<path d="M37.6033 54.0781L49.9515 47.2359L62.2997 54.0781V67.7273L49.9515 74.5695L37.6033 67.7273V54.0781Z" stroke="white" stroke-opacity="0.34"/>
<path d="M11.8223 84.1899L23.3496 90.5773V103.352L11.8223 109.739L0.295001 103.352V90.5773L11.8223 84.1899Z" fill="#607299"/>
<path d="M0.795001 90.8718L11.8223 84.7616L22.8496 90.8718V103.057L11.8223 109.168L0.795001 103.057V90.8718Z" stroke="white" stroke-opacity="0.34"/>
<path d="M0.730139 280.6L26.4265 266.361V237.885L0.730139 223.646L-24.9662 237.885V266.361L0.730139 280.6Z" fill="#607299"/>
<path d="M-24.4662 266.067L0.730139 280.028L25.9265 266.067V238.179L0.730139 224.218L-24.4662 238.179V266.067Z" stroke="white" stroke-opacity="0.34"/>
<path d="M50.5062 280.6L63.3543 273.481V259.242L50.5062 252.123L37.658 259.242V273.481L50.5062 280.6Z" fill="#607299"/>
<path d="M38.158 273.186L50.5062 280.028L62.8543 273.186V259.537L50.5062 252.695L38.158 259.537V273.186Z" stroke="white" stroke-opacity="0.34"/>
<path d="M74.909 280.6L87.7572 273.481V259.242L74.909 252.123L62.0609 259.242V273.481L74.909 280.6Z" fill="#607299"/>
<path d="M62.5609 273.186L74.909 280.028L87.2572 273.186V259.537L74.909 252.695L62.5609 259.537V273.186Z" stroke="white" stroke-opacity="0.34"/>
<path d="M62.4305 260.107L75.2787 252.988V238.75L62.4305 231.63L49.5823 238.75V252.988L62.4305 260.107Z" fill="#607299"/>
<path d="M50.0823 252.693L62.4305 259.536L74.7787 252.693V239.044L62.4305 232.202L50.0823 239.044V252.693Z" stroke="white" stroke-opacity="0.34"/>
<path d="M38.0277 273.414L50.8758 266.295V252.056L38.0277 244.937L25.1795 252.056V266.295L38.0277 273.414Z" fill="#607299"/>
<path d="M25.6795 266L38.0277 272.842L50.3758 266V252.351L38.0277 245.509L25.6795 252.351V266Z" stroke="white" stroke-opacity="0.34"/>
<path d="M25.8265 266.228L38.6747 259.109V244.871L25.8265 237.751L12.9783 244.871V259.109L25.8265 266.228Z" fill="#607299"/>
<path d="M13.4783 258.814L25.8265 265.657L38.1747 258.814V245.165L25.8265 238.323L13.4783 245.165V258.814Z" stroke="white" stroke-opacity="0.34"/>
<path d="M12.377 243.074L23.9043 236.687V223.912L12.377 217.525L0.849689 223.912V236.687L12.377 243.074Z" fill="#607299"/>
<path d="M1.34969 236.392L12.377 242.503L23.4043 236.392V224.207L12.377 218.097L1.34969 224.207V236.392Z" stroke="white" stroke-opacity="0.34"/>
<path d="M34.2842 207.412L45.8116 201.024V188.25L34.2842 181.862L22.7569 188.25V201.024L34.2842 207.412Z" fill="#93A5C9"/>
<path d="M23.2569 200.73L34.2842 206.84L45.3116 200.73V188.544L34.2842 182.434L23.2569 188.544V200.73Z" stroke="white" stroke-opacity="0.34"/>
<path d="M34.2842 243.074L45.8116 236.687V223.912L34.2842 217.525L22.7569 223.912V236.687L34.2842 243.074Z" fill="#607299"/>
<path d="M23.2569 236.392L34.2842 242.503L45.3116 236.392V224.207L34.2842 218.097L23.2569 224.207V236.392Z" stroke="white" stroke-opacity="0.34"/>
<path d="M23.4693 225.243L34.9966 218.856V206.081L23.4693 199.694L11.942 206.081V218.856L23.4693 225.243Z" fill="#93A5C9"/>
<path d="M12.442 218.561L23.4693 224.671L34.4966 218.561V206.376L23.4693 200.265L12.442 206.376V218.561Z" stroke="white" stroke-opacity="0.34"/>
<path d="M0.0369444 170.152L12.8851 177.271V191.51L0.0369444 198.629L-12.8112 191.51V177.271L0.0369444 170.152Z" fill="#93A5C9"/>
<path d="M-12.3112 177.566L0.0369444 170.724L12.3851 177.566V191.215L0.0369444 198.057L-12.3112 191.215V177.566Z" stroke="white" stroke-opacity="0.34"/>
<path d="M22.9146 102.021L34.4419 108.408V121.183L22.9146 127.57L11.3873 121.183V108.408L22.9146 102.021Z" fill="#93A5C9"/>
<path d="M11.8873 108.703L22.9146 102.593L33.9419 108.703V120.888L22.9146 126.999L11.8873 120.888V108.703Z" stroke="white" stroke-opacity="0.34"/>
<path d="M302.175 160L327.872 174.238V202.715L302.175 216.954L276.479 202.715V174.238L302.175 160Z" fill="#607299"/>
<path d="M276.979 174.533L302.175 160.572L327.372 174.533V202.421L302.175 216.382L276.979 202.421V174.533Z" stroke="white" stroke-opacity="0.34"/>
<path d="M339.473 167.186L352.321 174.305V188.543L339.473 195.662L326.625 188.543V174.305L339.473 167.186Z" fill="#607299"/>
<path d="M327.125 174.599L339.473 167.757L351.821 174.599V188.249L339.473 195.091L327.125 188.249V174.599Z" stroke="white" stroke-opacity="0.34"/>
<path d="M327.272 174.371L340.12 181.491V195.729L327.272 202.848L314.424 195.729V181.491L327.272 174.371Z" fill="#607299"/>
<path d="M314.924 181.785L327.272 174.943L339.62 181.785V195.434L327.272 202.276L314.924 195.434V181.785Z" stroke="white" stroke-opacity="0.34"/>
<path d="M335.73 233.188L347.257 239.575V252.35L335.73 258.737L324.202 252.35V239.575L335.73 233.188Z" fill="#93A5C9"/>
<path d="M324.702 239.87L335.73 233.76L346.757 239.87V252.055L335.73 258.166L324.702 252.055V239.87Z" stroke="white" stroke-opacity="0.34"/>
<path d="M335.73 197.526L347.257 203.913V216.688L335.73 223.075L324.202 216.688V203.913L335.73 197.526Z" fill="#607299"/>
<path d="M324.702 204.208L335.73 198.097L346.757 204.208V216.393L335.73 222.503L324.702 216.393V204.208Z" stroke="white" stroke-opacity="0.34"/>
<path d="M277.079 201.784L289.928 208.903V223.141L277.079 230.26L264.231 223.141V208.903L277.079 201.784Z" fill="#607299"/>
<path d="M264.731 209.197L277.079 202.355L289.428 209.197V222.847L277.079 229.689L264.731 222.847V209.197Z" stroke="white" stroke-opacity="0.34"/>
<path d="M289.558 222.276L302.407 229.395V243.634L289.558 250.753L276.71 243.634V229.395L289.558 222.276Z" fill="#607299"/>
<path d="M277.21 229.69L289.558 222.848L301.907 229.69V243.339L289.558 250.181L277.21 243.339V229.69Z" stroke="white" stroke-opacity="0.34"/>
<path d="M302.037 242.503L314.885 249.622V263.861L302.037 270.98L289.189 263.861V249.622L302.037 242.503Z" fill="#93A5C9"/>
<path d="M289.689 249.917L302.037 243.075L314.385 249.917V263.566L302.037 270.408L289.689 263.566V249.917Z" stroke="white" stroke-opacity="0.34"/>
<path d="M283.697 394L296.425 401.053V415.158L283.697 422.211L270.969 415.158V401.053L283.697 394Z" fill="#607299"/>
<path d="M271.469 401.347L283.697 394.572L295.925 401.347V414.863L283.697 421.639L271.469 414.863V401.347Z" stroke="white" stroke-opacity="0.34"/>
<path d="M297.697 373L310.425 380.053V394.158L297.697 401.211L284.969 394.158V380.053L297.697 373Z" fill="#607299"/>
<path d="M285.469 380.347L297.697 373.572L309.925 380.347V393.863L297.697 400.639L285.469 393.863V380.347Z" stroke="white" stroke-opacity="0.34"/>
<path d="M361.354 235L374.202 242.119V256.358L361.354 263.477L348.506 256.358V242.119L361.354 235Z" fill="#607299"/>
<path d="M349.006 242.414L361.354 235.572L373.702 242.414V256.063L361.354 262.905L349.006 256.063V242.414Z" stroke="white" stroke-opacity="0.34"/>
<path d="M348.876 255.493L361.724 262.612V276.85L348.876 283.969L336.028 276.85V262.612L348.876 255.493Z" fill="#607299"/>
<path d="M336.528 262.906L348.876 256.064L361.224 262.906V276.556L348.876 283.398L336.528 276.556V262.906Z" stroke="white" stroke-opacity="0.34"/>
<path d="M351.951 160L364.8 167.119V181.358L351.951 188.477L339.103 181.358V167.119L351.951 160Z" fill="#607299"/>
<path d="M339.603 167.414L351.951 160.572L364.3 167.414V181.063L351.951 187.905L339.603 181.063V167.414Z" stroke="white" stroke-opacity="0.34"/>
<path d="M313.822 197.526L325.35 203.913V216.688L313.822 223.075L302.295 216.688V203.913L313.822 197.526Z" fill="#607299"/>
<path d="M302.795 204.208L313.822 198.097L324.85 204.208V216.393L313.822 222.503L302.795 216.393V204.208Z" stroke="white" stroke-opacity="0.34"/>
<path d="M311.672 504.447L337.368 490.209V461.732L311.672 447.494L285.975 461.732V490.209L311.672 504.447Z" fill="#607299"/>
<path d="M286.475 489.914L311.672 503.876L336.868 489.914V462.027L311.672 448.065L286.475 462.027V489.914Z" stroke="white" stroke-opacity="0.34"/>
<path d="M361.448 504.447L374.296 497.328V483.09L361.448 475.971L348.599 483.09V497.328L361.448 504.447Z" fill="#607299"/>
<path d="M349.099 497.034L361.448 503.876L373.796 497.034V483.384L361.448 476.542L349.099 483.384V497.034Z" stroke="white" stroke-opacity="0.34"/>
<path d="M385.85 504.447L398.699 497.328V483.09L385.85 475.971L373.002 483.09V497.328L385.85 504.447Z" fill="#607299"/>
<path d="M373.502 497.034L385.85 503.876L398.199 497.034V483.384L385.85 476.542L373.502 483.384V497.034Z" stroke="white" stroke-opacity="0.34"/>
<path d="M373.372 483.955L386.22 476.836V462.597L373.372 455.478L360.524 462.597V476.836L373.372 483.955Z" fill="#607299"/>
<path d="M361.024 476.541L373.372 483.383L385.72 476.541V462.892L373.372 456.05L361.024 462.892V476.541Z" stroke="white" stroke-opacity="0.34"/>
<path d="M348.969 497.262L361.817 490.142V475.904L348.969 468.785L336.121 475.904V490.142L348.969 497.262Z" fill="#607299"/>
<path d="M336.621 489.848L348.969 496.69L361.317 489.848V476.199L348.969 469.356L336.621 476.199V489.848Z" stroke="white" stroke-opacity="0.34"/>
<path d="M336.768 490.076L349.616 482.957V468.718L336.768 461.599L323.92 468.718V482.957L336.768 490.076Z" fill="#607299"/>
<path d="M324.42 482.662L336.768 489.504L349.116 482.662V469.013L336.768 462.171L324.42 469.013V482.662Z" stroke="white" stroke-opacity="0.34"/>
<path d="M323.318 466.922L334.846 460.534V447.76L323.318 441.373L311.791 447.76V460.534L323.318 466.922Z" fill="#607299"/>
<path d="M312.291 460.24L323.318 466.35L334.346 460.24V448.054L323.318 441.944L312.291 448.054V460.24Z" stroke="white" stroke-opacity="0.34"/>
<path d="M345.226 431.259L356.753 424.872V412.097L345.226 405.71L333.698 412.097V424.872L345.226 431.259Z" fill="#93A5C9"/>
<path d="M334.198 424.577L345.226 430.688L356.253 424.577V412.392L345.226 406.282L334.198 412.392V424.577Z" stroke="white" stroke-opacity="0.34"/>
<path d="M345.226 466.922L356.753 460.534V447.76L345.226 441.373L333.698 447.76V460.534L345.226 466.922Z" fill="#607299"/>
<path d="M334.198 460.24L345.226 466.35L356.253 460.24V448.054L345.226 441.944L334.198 448.054V460.24Z" stroke="white" stroke-opacity="0.34"/>
<path d="M334.411 449.091L345.938 442.703V429.929L334.411 423.541L322.883 429.929V442.703L334.411 449.091Z" fill="#93A5C9"/>
<path d="M323.383 442.409L334.411 448.519L345.438 442.409V430.223L334.411 424.113L323.383 430.223V442.409Z" stroke="white" stroke-opacity="0.34"/>
<path d="M310.978 394L323.827 401.119V415.357L310.978 422.477L298.13 415.357V401.119L310.978 394Z" fill="#93A5C9"/>
<path d="M298.63 401.414L310.978 394.572L323.327 401.414V415.063L310.978 421.905L298.63 415.063V401.414Z" stroke="white" stroke-opacity="0.34"/>
<path d="M324.915 215.357L336.442 221.744V234.519L324.915 240.906L313.387 234.519V221.744L324.915 215.357Z" fill="#93A5C9"/>
<path d="M313.887 222.039L324.915 215.928L335.942 222.039V234.224L324.915 240.334L313.887 234.224V222.039Z" stroke="white" stroke-opacity="0.34"/>
</svg>
