<svg width="23" height="18" viewBox="0 0 23 18" fill="none" xmlns="http://www.w3.org/2000/svg">
<path d="M0 15.0003C0 15.7076 0.269245 16.3858 0.748505 16.8859C1.22776 17.386 1.87778 17.667 2.55556 17.667H20.4444C21.1222 17.667 21.7722 17.386 22.2515 16.8859C22.7308 16.3858 23 15.7076 23 15.0003V11.667H0V15.0003Z" fill="#138808"/>
<path d="M23 6.33301V2.99967C23 2.29243 22.7308 1.61415 22.2515 1.11406C21.7722 0.613959 21.1222 0.333008 20.4444 0.333008H2.55556C1.87778 0.333008 1.22776 0.613959 0.748505 1.11406C0.269245 1.61415 0 2.29243 0 2.99967L0 6.33301H23Z" fill="#FF9933"/>
<path d="M0 6.11133H23V11.8893H0V6.11133Z" fill="#F7F7F7"/>
<path d="M11.4999 11.6663C12.9113 11.6663 14.0554 10.4724 14.0554 8.99967C14.0554 7.52691 12.9113 6.33301 11.4999 6.33301C10.0885 6.33301 8.94434 7.52691 8.94434 8.99967C8.94434 10.4724 10.0885 11.6663 11.4999 11.6663Z" fill="#000080"/>
<path d="M11.5 11.25C12.6909 11.25 13.6562 10.2426 13.6562 9C13.6562 7.75736 12.6909 6.75 11.5 6.75C10.3091 6.75 9.34375 7.75736 9.34375 9C9.34375 10.2426 10.3091 11.25 11.5 11.25Z" fill="#F7F7F7"/>
<path d="M11.5634 8.16719L11.4995 8.60052L11.4356 8.16719L11.4995 6.86719L11.5634 8.16719ZM10.9705 6.93985L11.2312 8.21252L11.4005 8.61385L11.3545 8.17852L10.9705 6.93985ZM10.4773 7.15319L11.0446 8.31185L11.3079 8.65385L11.1558 8.24519L10.4773 7.15319ZM10.0537 7.49185L10.8894 8.45852L11.2286 8.71785L10.9801 8.36385L10.0537 7.49185ZM9.72916 7.93385L10.7757 8.64185L11.1673 8.80052L10.8395 8.52585L9.72916 7.93385ZM9.52472 8.44852L10.7118 8.84919L11.129 8.89719L10.7444 8.72052L9.52472 8.44852ZM9.45508 9.00052L10.7009 9.06719L11.1162 9.00052L10.7009 8.93385L9.45508 9.00052ZM9.52472 9.55252L10.7444 9.28052L11.129 9.10385L10.7118 9.15185L9.52472 9.55252ZM9.72916 10.0672L10.8395 9.47519L11.1673 9.20052L10.7757 9.35919L9.72916 10.0672ZM10.0537 10.5092L10.9801 9.63719L11.2286 9.28319L10.8894 9.54252L10.0537 10.5092ZM10.4773 10.8479L11.1558 9.75585L11.3079 9.34719L11.0446 9.68919L10.4773 10.8479ZM10.9705 11.0612L11.3545 9.82252L11.4005 9.38719L11.2312 9.78852L10.9705 11.0612ZM11.4995 11.1339L11.5634 9.83385L11.4995 9.40052L11.4356 9.83385L11.4995 11.1339ZM12.0285 11.0612L11.7679 9.78852L11.5986 9.38719L11.6445 9.82252L12.0285 11.0612ZM12.5217 10.8479L11.9544 9.68919L11.6912 9.34719L11.8432 9.75585L12.5217 10.8479ZM12.9453 10.5092L12.1097 9.54252L11.7704 9.28319L12.0189 9.63719L12.9453 10.5092ZM13.2699 10.0672L12.2234 9.35919L11.8317 9.20052L12.1595 9.47519L13.2699 10.0672ZM13.4743 9.55252L12.2873 9.15185L11.8701 9.10385L12.2547 9.28052L13.4743 9.55252ZM13.544 9.00052L12.2981 8.93385L11.8829 9.00052L12.2981 9.06719L13.544 9.00052ZM13.4743 8.44852L12.2547 8.72052L11.8701 8.89719L12.2873 8.84919L13.4743 8.44852ZM13.2699 7.93385L12.1595 8.52585L11.8317 8.80052L12.2234 8.64185L13.2699 7.93385ZM12.9453 7.49185L12.0189 8.36385L11.7704 8.71785L12.1097 8.45852L12.9453 7.49185ZM12.5217 7.15319L11.8432 8.24519L11.6912 8.65385L11.9544 8.31185L12.5217 7.15319ZM12.0285 6.93985L11.6445 8.17852L11.5986 8.61385L11.7679 8.21252L12.0285 6.93985Z" fill="#6666B3"/>
<path d="M11.2186 6.90632C11.2892 6.90632 11.3464 6.84662 11.3464 6.77298C11.3464 6.69934 11.2892 6.63965 11.2186 6.63965C11.148 6.63965 11.0908 6.69934 11.0908 6.77298C11.0908 6.84662 11.148 6.90632 11.2186 6.90632Z" fill="#000080"/>
<path d="M10.6756 7.05768C10.7462 7.05768 10.8034 6.99799 10.8034 6.92435C10.8034 6.85071 10.7462 6.79102 10.6756 6.79102C10.6051 6.79102 10.5479 6.85071 10.5479 6.92435C10.5479 6.99799 10.6051 7.05768 10.6756 7.05768Z" fill="#000080"/>
<path d="M10.1893 7.35065C10.2599 7.35065 10.3171 7.29096 10.3171 7.21732C10.3171 7.14368 10.2599 7.08398 10.1893 7.08398C10.1187 7.08398 10.0615 7.14368 10.0615 7.21732C10.0615 7.29096 10.1187 7.35065 10.1893 7.35065Z" fill="#000080"/>
<path d="M9.79184 7.76569C9.86241 7.76569 9.91962 7.70599 9.91962 7.63236C9.91962 7.55872 9.86241 7.49902 9.79184 7.49902C9.72127 7.49902 9.66406 7.55872 9.66406 7.63236C9.66406 7.70599 9.72127 7.76569 9.79184 7.76569Z" fill="#000080"/>
<path d="M9.51157 8.2735C9.58214 8.2735 9.63934 8.21381 9.63934 8.14017C9.63934 8.06653 9.58214 8.00684 9.51157 8.00684C9.441 8.00684 9.38379 8.06653 9.38379 8.14017C9.38379 8.21381 9.441 8.2735 9.51157 8.2735Z" fill="#000080"/>
<path d="M9.36508 8.83991C9.43565 8.83991 9.49286 8.78021 9.49286 8.70657C9.49286 8.63294 9.43565 8.57324 9.36508 8.57324C9.29451 8.57324 9.2373 8.63294 9.2373 8.70657C9.2373 8.78021 9.29451 8.83991 9.36508 8.83991Z" fill="#000080"/>
<path d="M9.36508 9.42682C9.43565 9.42682 9.49286 9.36713 9.49286 9.29349C9.49286 9.21985 9.43565 9.16016 9.36508 9.16016C9.29451 9.16016 9.2373 9.21985 9.2373 9.29349C9.2373 9.36713 9.29451 9.42682 9.36508 9.42682Z" fill="#000080"/>
<path d="M9.51157 9.99323C9.58214 9.99323 9.63934 9.93353 9.63934 9.8599C9.63934 9.78626 9.58214 9.72656 9.51157 9.72656C9.441 9.72656 9.38379 9.78626 9.38379 9.8599C9.38379 9.93353 9.441 9.99323 9.51157 9.99323Z" fill="#000080"/>
<path d="M9.79184 10.501C9.86241 10.501 9.91962 10.4413 9.91962 10.3677C9.91962 10.2941 9.86241 10.2344 9.79184 10.2344C9.72127 10.2344 9.66406 10.2941 9.66406 10.3677C9.66406 10.4413 9.72127 10.501 9.79184 10.501Z" fill="#000080"/>
<path d="M10.1893 10.9161C10.2599 10.9161 10.3171 10.8564 10.3171 10.7827C10.3171 10.7091 10.2599 10.6494 10.1893 10.6494C10.1187 10.6494 10.0615 10.7091 10.0615 10.7827C10.0615 10.8564 10.1187 10.9161 10.1893 10.9161Z" fill="#000080"/>
<path d="M10.6756 11.209C10.7462 11.209 10.8034 11.1494 10.8034 11.0757C10.8034 11.0021 10.7462 10.9424 10.6756 10.9424C10.6051 10.9424 10.5479 11.0021 10.5479 11.0757C10.5479 11.1494 10.6051 11.209 10.6756 11.209Z" fill="#000080"/>
<path d="M11.2186 11.3604C11.2892 11.3604 11.3464 11.3007 11.3464 11.2271C11.3464 11.1534 11.2892 11.0938 11.2186 11.0938C11.148 11.0938 11.0908 11.1534 11.0908 11.2271C11.0908 11.3007 11.148 11.3604 11.2186 11.3604Z" fill="#000080"/>
<path d="M11.7811 11.3604C11.8517 11.3604 11.9089 11.3007 11.9089 11.2271C11.9089 11.1534 11.8517 11.0938 11.7811 11.0938C11.7105 11.0938 11.6533 11.1534 11.6533 11.2271C11.6533 11.3007 11.7105 11.3604 11.7811 11.3604Z" fill="#000080"/>
<path d="M12.3241 11.209C12.3946 11.209 12.4518 11.1494 12.4518 11.0757C12.4518 11.0021 12.3946 10.9424 12.3241 10.9424C12.2535 10.9424 12.1963 11.0021 12.1963 11.0757C12.1963 11.1494 12.2535 11.209 12.3241 11.209Z" fill="#000080"/>
<path d="M12.8114 10.9161C12.8819 10.9161 12.9392 10.8564 12.9392 10.7827C12.9392 10.7091 12.8819 10.6494 12.8114 10.6494C12.7408 10.6494 12.6836 10.7091 12.6836 10.7827C12.6836 10.8564 12.7408 10.9161 12.8114 10.9161Z" fill="#000080"/>
<path d="M13.2079 10.501C13.2784 10.501 13.3356 10.4413 13.3356 10.3677C13.3356 10.2941 13.2784 10.2344 13.2079 10.2344C13.1373 10.2344 13.0801 10.2941 13.0801 10.3677C13.0801 10.4413 13.1373 10.501 13.2079 10.501Z" fill="#000080"/>
<path d="M13.4891 9.99323C13.5597 9.99323 13.6169 9.93353 13.6169 9.8599C13.6169 9.78626 13.5597 9.72656 13.4891 9.72656C13.4185 9.72656 13.3613 9.78626 13.3613 9.8599C13.3613 9.93353 13.4185 9.99323 13.4891 9.99323Z" fill="#000080"/>
<path d="M13.6346 9.42682C13.7052 9.42682 13.7624 9.36713 13.7624 9.29349C13.7624 9.21985 13.7052 9.16016 13.6346 9.16016C13.564 9.16016 13.5068 9.21985 13.5068 9.29349C13.5068 9.36713 13.564 9.42682 13.6346 9.42682Z" fill="#000080"/>
<path d="M13.6346 8.83991C13.7052 8.83991 13.7624 8.78021 13.7624 8.70657C13.7624 8.63294 13.7052 8.57324 13.6346 8.57324C13.564 8.57324 13.5068 8.63294 13.5068 8.70657C13.5068 8.78021 13.564 8.83991 13.6346 8.83991Z" fill="#000080"/>
<path d="M13.4891 8.2735C13.5597 8.2735 13.6169 8.21381 13.6169 8.14017C13.6169 8.06653 13.5597 8.00684 13.4891 8.00684C13.4185 8.00684 13.3613 8.06653 13.3613 8.14017C13.3613 8.21381 13.4185 8.2735 13.4891 8.2735Z" fill="#000080"/>
<path d="M13.2079 7.76569C13.2784 7.76569 13.3356 7.70599 13.3356 7.63236C13.3356 7.55872 13.2784 7.49902 13.2079 7.49902C13.1373 7.49902 13.0801 7.55872 13.0801 7.63236C13.0801 7.70599 13.1373 7.76569 13.2079 7.76569Z" fill="#000080"/>
<path d="M12.8114 7.35065C12.8819 7.35065 12.9392 7.29096 12.9392 7.21732C12.9392 7.14368 12.8819 7.08398 12.8114 7.08398C12.7408 7.08398 12.6836 7.14368 12.6836 7.21732C12.6836 7.29096 12.7408 7.35065 12.8114 7.35065Z" fill="#000080"/>
<path d="M12.3241 7.05768C12.3946 7.05768 12.4518 6.99799 12.4518 6.92435C12.4518 6.85071 12.3946 6.79102 12.3241 6.79102C12.2535 6.79102 12.1963 6.85071 12.1963 6.92435C12.1963 6.99799 12.2535 7.05768 12.3241 7.05768Z" fill="#000080"/>
<path d="M11.7811 6.90632C11.8517 6.90632 11.9089 6.84662 11.9089 6.77298C11.9089 6.69934 11.8517 6.63965 11.7811 6.63965C11.7105 6.63965 11.6533 6.69934 11.6533 6.77298C11.6533 6.84662 11.7105 6.90632 11.7811 6.90632Z" fill="#000080"/>
<path d="M11.4998 9.60039C11.8174 9.60039 12.0748 9.33176 12.0748 9.00039C12.0748 8.66902 11.8174 8.40039 11.4998 8.40039C11.1822 8.40039 10.9248 8.66902 10.9248 9.00039C10.9248 9.33176 11.1822 9.60039 11.4998 9.60039Z" fill="#000080"/>
</svg>
