<svg width="17" height="21" viewBox="0 0 17 21" fill="none" xmlns="http://www.w3.org/2000/svg">
<path d="M5.13336 0.282828C6.2068 0.135953 7.10888 0.792724 7.53596 1.64637L8.58648 3.74689C9.1693 4.91252 8.8344 6.28022 7.95107 7.14064C7.42919 7.64845 6.90471 8.22866 6.60055 8.74064C6.5804 8.77713 6.57411 8.81967 6.58284 8.86043C6.86409 10.3844 7.8969 11.8901 8.81826 12.9698C8.8646 13.0213 8.92507 13.058 8.99213 13.0753C9.05919 13.0926 9.12987 13.0898 9.19534 13.0672L11.2657 12.4203C11.8233 12.246 12.4222 12.2549 12.9745 12.4458C13.5267 12.6366 14.0033 12.9993 14.3344 13.4807L15.8328 15.6599C16.2391 16.2516 16.4448 17.0537 16.1334 17.825C15.8552 18.5141 15.3172 19.5078 14.3386 20.1688C13.3229 20.8542 11.9318 21.1146 10.1115 20.4906C8.07763 19.7927 6.15628 18.0427 4.56305 15.8047C2.96044 13.5526 1.64117 10.7396 0.841172 7.80626C0.0854427 5.03647 0.541692 3.17189 1.61565 1.97137C2.65159 0.813036 4.13596 0.419807 5.13336 0.282828ZM6.37138 2.22866C6.13336 1.75314 5.70888 1.51824 5.31044 1.57293C4.4245 1.69481 3.31513 2.02449 2.58648 2.8396C1.89586 3.61199 1.41773 4.97241 2.0969 7.46356C2.85992 10.2594 4.11617 12.9313 5.62398 15.0495C7.14117 17.1813 8.86513 18.6865 10.5339 19.2589C12.0209 19.7688 12.9766 19.5167 13.6099 19.0896C14.2797 18.637 14.6917 17.9177 14.9261 17.3375C15.0334 17.0719 14.987 16.7281 14.7599 16.3979L13.2615 14.2188C13.0881 13.9666 12.8385 13.7765 12.5492 13.6765C12.26 13.5765 11.9463 13.5718 11.6542 13.663L9.58388 14.3099C8.96513 14.5031 8.26825 14.3307 7.82815 13.8151C6.8693 12.6917 5.64742 10.9688 5.30211 9.09637C5.2361 8.74546 5.29977 8.38251 5.48128 8.07502C5.87607 7.41147 6.50107 6.73491 7.04221 6.20783C7.57086 5.69324 7.72086 4.92762 7.4219 4.32918L6.37138 2.22918V2.22866Z" fill="white"/>
</svg>
