<?xml version="1.0" encoding="utf-8"?>
<!-- Generator: Adobe Illustrator 26.0.1, SVG Export Plug-In . SVG Version: 6.00 Build 0)  -->
<svg version="1.1" id="Layer_2_00000179635477365463897010000009407679798235774646_"
	 xmlns="http://www.w3.org/2000/svg" xmlns:xlink="http://www.w3.org/1999/xlink" x="0px" y="0px" viewBox="0 0 512 512"
	 style="enable-background:new 0 0 512 512;" xml:space="preserve">
<style type="text/css">
	.st0{fill:#4A6EB5;stroke:#000000;stroke-width:5;stroke-miterlimit:10;}
	.st1{fill:#5CC6CF;stroke:#000000;stroke-width:5;stroke-miterlimit:10;}
	.st2{fill:#7F7A6E;stroke:#000000;stroke-width:5;stroke-miterlimit:10;}
</style>
<path class="st0" d="M264.6,69.8c0,0-204.7-0.8-187.2,211.8h166.5v68.1h42.3v-69.8h109.1c0,0-12,99-128.2,111.2l-0.8,51.9
	c0,0,190.3-2.4,183.2-211H286.7l-0.3-26.8l-41.5,0.9V231H128.7c0,0,23-111.1,137.4-111.1L264.6,69.8z"/>
<g>
	<path class="st1" d="M455.3,177.2c0,0-45.5-123.6-189.9-126.8c0,0-198.8-6.3-211,209.1c0,0-5.7,181.4,200.4,203.6
		c0,0,150.9,4.7,200.4-131.5H512c0,0-49.5,180.6-252.4,180.6c0,0-240.2,9.5-259.6-255.1c0,0,0-249.6,267.8-256.7
		c0,0,170.4-11.1,244.2,176.7L455.3,177.2L455.3,177.2z"/>
	<circle class="st2" cx="266" cy="165.5" r="18.5"/>
</g>
</svg>
