<?xml version="1.0" encoding="utf-8"?>
<!-- Generator: Adobe Illustrator 26.0.1, SVG Export Plug-In . SVG Version: 6.00 Build 0)  -->
<svg version="1.1" id="Layer_1" xmlns="http://www.w3.org/2000/svg" xmlns:xlink="http://www.w3.org/1999/xlink" x="0px" y="0px"
	 viewBox="0 0 431 411" style="enable-background:new 0 0 431 411;" xml:space="preserve">
<style type="text/css">
	.st0{fill:#F5F5F5;}
	.st1{fill:#E0E0E0;}
	.st2{fill:#455A64;}
	.st3{fill:#FFFFFF;}
	.st4{fill:#37474F;}
	.st5{fill:#253239;}
	.st6{fill:#5388FF;}
	.st7{opacity:0.3;fill:#FFFFFF;enable-background:new    ;}
	.st8{opacity:0.3;}
	.st9{opacity:0.5;}
	.st10{fill:#607299;}
	.st11{opacity:0.1;fill:#FFFFFF;enable-background:new    ;}
	.st12{opacity:0.7;fill:#FFFFFF;enable-background:new    ;}
	.st13{opacity:0.1;enable-background:new    ;}
	.st14{opacity:0.7;}
	.st15{opacity:0.4;fill:#FFFFFF;enable-background:new    ;}
	.st16{opacity:0.3;enable-background:new    ;}
	.st17{fill:#F40000;}
	.st18{fill:#263238;}
	.st19{fill:#FFA8A7;}
	.st20{fill:#F28F8F;}
	.st21{fill:#E6E6E6;}
</style>
<path class="st0" d="M215.2,410.9c118.6,0,214.8-55,214.8-122.9s-96.2-122.9-214.8-122.9C96.6,165.1,0.4,220.1,0.4,288
	S96.6,410.9,215.2,410.9z"/>
<path class="st1" d="M99.6,309.1c36.2,0,65.5-17,65.5-37.9s-29.3-37.9-65.5-37.9c-36.2,0-65.5,17-65.5,37.9S63.4,309.1,99.6,309.1z"
	/>
<path class="st1" d="M174.7,388.4c20.4,0,37-9.6,37-21.4c0-11.8-16.6-21.4-37-21.4s-37,9.6-37,21.4
	C137.7,378.8,154.3,388.4,174.7,388.4z"/>
<path class="st1" d="M232.7,368.8h23l165.4-96.1l-163-100.3l-74.8,47.1l112.1,66.2l-102.3,59.9L232.7,368.8z"/>
<path class="st2" d="M71.2,247.8l-11,6.3c0,0,5.7-17.8,2.9-35.8c-1.1-6.8-3.5-10.2-4.3-12c-0.8-1.8-7.3-13.1-1.4-18.2
	c5.8-5.1,19.3,5.3,18.4,33C75.4,230.1,73.8,239.1,71.2,247.8z"/>
<path class="st3" d="M66.1,251.1c0,0-0.1,0-0.1,0c-0.1,0-0.2-0.1-0.2-0.2c0-0.1-0.1-0.2,0-0.3c0-0.1,4.2-11.6,4.2-30.1
	c0-18.5-9.3-28.3-9.4-28.3c0,0-0.1-0.1-0.1-0.1c0-0.1,0-0.1,0-0.2c0-0.1,0-0.1,0-0.2c0-0.1,0.1-0.1,0.1-0.1c0.1-0.1,0.2-0.1,0.3-0.1
	c0.1,0,0.2,0,0.3,0.1c0.1,0.1,9.7,10.2,9.7,29c0,18.8-4.3,30.3-4.3,30.4c0,0.1-0.1,0.1-0.2,0.2C66.3,251.1,66.2,251.1,66.1,251.1z"
	/>
<path class="st4" d="M68.8,249.1l-18.2,10.6c0,0-8.2-1.3-7.5-9.2c0.7-7.9,4.1-9.7,0-13.2c-4.1-3.5-5.2-3.8-5-7.2
	c0.2-3.4,2.5-4.9,3.6-6.2c1.1-1.3,4.1-4.1,2-8.2c-2-4.1-4.8-8.1-0.6-9.9c2.5-1.1,6.7,0.4,9.4,3.4c2.8,3,5,5.2,7.6,6
	c2.6,0.7,8.1,0.9,7.9,5.5s-1.4,6.2-0.4,8.2C69.8,232.5,78.6,234.7,68.8,249.1z"/>
<path class="st3" d="M61.4,253.8c-0.1,0-0.1,0-0.2,0c-0.1,0-0.1-0.1-0.1-0.1c0,0-0.1-0.1-0.1-0.2c0-0.1,0-0.1,0-0.2
	c0-0.3,2.3-27.1-15.9-45c0,0-0.1-0.1-0.1-0.1c0-0.1,0-0.1,0-0.2c0-0.1,0-0.1,0-0.2c0-0.1,0.1-0.1,0.1-0.2c0,0,0.1-0.1,0.2-0.1
	c0.1,0,0.1,0,0.2,0c0.1,0,0.1,0,0.2,0c0.1,0,0.1,0.1,0.1,0.1c18.4,18.1,16.1,45.4,16.1,45.7c0,0.1-0.1,0.2-0.2,0.3
	C61.6,253.8,61.5,253.8,61.4,253.8z"/>
<path class="st3" d="M58.5,230.3c-0.1,0-0.2-0.1-0.3-0.2c-0.1-0.1-0.1-0.2-0.1-0.3c0.2-2.2,0.8-4.4,1.8-6.4c1-2,2.5-3.7,4.2-5.1
	c0,0,0.1-0.1,0.2-0.1c0.1,0,0.1,0,0.2,0c0.1,0,0.1,0,0.2,0.1c0,0,0.1,0.1,0.1,0.1c0,0,0.1,0.1,0.1,0.2c0,0.1,0,0.1,0,0.2
	c0,0.1,0,0.1-0.1,0.2c0,0-0.1,0.1-0.1,0.1c-1.6,1.3-2.9,3-3.9,4.9c-1,1.9-1.5,3.9-1.7,6c0,0.1,0,0.1,0,0.2c0,0.1-0.1,0.1-0.1,0.1
	c0,0-0.1,0.1-0.1,0.1C58.6,230.3,58.5,230.3,58.5,230.3z"/>
<path class="st3" d="M59.7,235c-0.1,0-0.1,0-0.2,0c-0.1,0-0.1-0.1-0.1-0.1c0,0-4.5-5.1-14.9-3.7c-0.1,0-0.2,0-0.3-0.1
	c-0.1-0.1-0.2-0.2-0.2-0.3c0-0.1,0-0.2,0.1-0.3c0.1-0.1,0.2-0.2,0.3-0.2c10.8-1.4,15.4,3.8,15.6,4c0,0,0.1,0.1,0.1,0.1
	c0,0.1,0,0.1,0,0.2s0,0.1,0,0.2c0,0.1-0.1,0.1-0.1,0.1c0,0-0.1,0.1-0.1,0.1C59.9,235,59.8,235,59.7,235z"/>
<path class="st4" d="M100.8,289c30.5,0,55.3-14.3,55.3-32s-24.8-32-55.3-32c-30.5,0-55.3,14.3-55.3,32S70.3,289,100.8,289z"/>
<path class="st5" d="M156.1,257c0,17.7-24.7,32-55.3,32c-30.5,0-55.3-14.3-55.3-32v8.9c0,17.6,24.7,32,55.3,32
	c30.5,0,55.3-14.3,55.3-32L156.1,257L156.1,257z"/>
<path class="st6" d="M100.8,285.2c-28.3,0-51.4-12.6-51.4-28.2s23.1-28.2,51.4-28.2c28.3,0,51.4,12.6,51.4,28.2
	S129.1,285.2,100.8,285.2z M100.8,229.8C73,229.8,50.3,242,50.3,257s22.6,27.2,50.5,27.2c27.8,0,50.5-12.2,50.5-27.2
	S128.6,229.8,100.8,229.8z"/>
<path class="st6" d="M100.8,115.8c-28.3,0-51.4-12.6-51.4-28.2c0-15.5,23.1-28.2,51.4-28.2c28.3,0,51.4,12.6,51.4,28.2
	C152.2,103.2,129.1,115.8,100.8,115.8z M100.8,60.5c-27.8,0-50.5,12.2-50.5,27.2s22.6,27.2,50.5,27.2c27.8,0,50.5-12.2,50.5-27.2
	C151.2,72.7,128.6,60.5,100.8,60.5z"/>
<path class="st6" d="M151.2,257L151.2,257l1,0L151.2,257z"/>
<path class="st6" d="M49.4,257L49.4,257l1,0L49.4,257z"/>
<path class="st6" d="M152.2,257h-1c0-15-22.6-27.2-50.5-27.2C73,229.8,50.3,242,50.3,257h-0.9v-29.7c0-8.1,2.1-16.1,6.2-23
	c4.1-7,10-12.7,17.1-16.5l14-7.6c1.3-0.7,2.3-1.7,3-2.9s1.1-2.6,1.1-4.1c0-1.4-0.4-2.8-1.1-4.1c-0.7-1.2-1.8-2.2-3-2.9l-14-7.6
	c-7.1-3.8-13-9.5-17.1-16.5c-4.1-7-6.3-14.9-6.3-23V88.9h1v0.4c1.6,14.3,23.7,25.5,50.4,25.5c26.6,0,48.7-11.2,50.4-25.5l0-0.4h1
	v30.2c0,8.1-2.1,16.1-6.2,23c-4.1,7-10,12.7-17.1,16.5l-14.1,7.6c-1.2,0.7-2.3,1.7-3,2.9c-0.7,1.2-1.1,2.6-1.1,4.1
	c0,1.4,0.4,2.8,1.1,4.1c0.7,1.2,1.8,2.2,3,2.9l14.1,7.6c14.2,8.4,23.2,23.6,23.3,39.5L152.2,257z M100.8,228.9
	c25,0,45.8,9.8,50.5,22.7v-24.2c-0.1-15.6-8.9-30.4-22.8-38.7l-14-7.6c-1.4-0.8-2.6-1.9-3.4-3.3c-0.8-1.4-1.2-3-1.2-4.6
	c0-1.6,0.4-3.2,1.2-4.6c0.8-1.4,2-2.5,3.4-3.3l14.1-7.6c6.9-3.8,12.7-9.3,16.7-16.2c4-6.8,6.1-14.6,6.1-22.5v-26
	c-4.6,13-25.6,22.7-50.5,22.7c-24.8,0-45.8-9.7-50.5-22.7v26c0,7.9,2.1,15.7,6.1,22.5c4,6.8,9.8,12.4,16.7,16.2l14.1,7.6
	c1.4,0.8,2.6,1.9,3.4,3.3c0.8,1.4,1.2,3,1.2,4.6s-0.4,3.2-1.2,4.6c-0.8,1.4-2,2.5-3.4,3.3l-14.1,7.6c-6.9,3.8-12.7,9.4-16.7,16.2
	c-4,6.8-6.1,14.6-6.1,22.5v24.2C55,238.7,75.8,228.9,100.8,228.9z"/>
<path class="st6" d="M105.1,206.2c-1.3-0.8-2.8-1.2-4.3-1.2c-1.5,0-3,0.4-4.3,1.2c-11.4,6.6-41.6,25-41.6,36.2
	c0,13.8,20.6,25,45.9,25c25.4,0,45.9-11.2,45.9-25C146.7,231.2,116.5,212.8,105.1,206.2z"/>
<path class="st7" d="M105.1,206.2c-1.3-0.8-2.8-1.2-4.3-1.2c-1.5,0-3,0.4-4.3,1.2c-11.4,6.6-41.6,25-41.6,36.2
	c0,13.8,20.6,25,45.9,25c25.4,0,45.9-11.2,45.9-25C146.7,231.2,116.5,212.8,105.1,206.2z"/>
<path class="st6" d="M100.8,267.3c-25.4,0-45.9-11.2-45.9-25V255c0,13.8,20.6,25,45.9,25c25.4,0,45.9-11.2,45.9-25v-12.6
	C146.7,256.1,126.2,267.3,100.8,267.3z"/>
<path class="st6" d="M54.8,89.4v27.4c0,7.2,1.9,14.3,5.6,20.5c3.7,6.2,8.9,11.3,15.2,14.7l12.7,6.9c0.2,0.1,0.4,0.2,0.6,0.3
	c0.5,0.3,0.9,0.6,1.4,0.8c2.6,1.6,4.7,3.9,6.2,6.6c1.5,2.7,2.3,5.7,2.3,8.8v11.9c0,0.6,0.2,1.1,0.6,1.5c0.4,0.4,0.9,0.6,1.5,0.6
	c0.5,0,1.1-0.2,1.5-0.6c0.4-0.4,0.6-0.9,0.6-1.5v-11.9c0-3.1,0.8-6.1,2.3-8.8c1.5-2.7,3.6-5,6.2-6.6c0.5-0.3,0.9-0.5,1.4-0.8
	c0.2-0.1,0.4-0.2,0.6-0.3l12.7-6.9c6.3-3.4,11.6-8.5,15.2-14.7s5.6-13.3,5.6-20.5V89.4H54.8z"/>
<path class="st6" d="M102.8,196c0-0.4-0.1-0.8-0.4-1.2c-0.2-0.3-0.5-0.6-0.9-0.8c-0.4-0.2-0.8-0.2-1.2-0.1c-0.4,0.1-0.8,0.3-1.1,0.6
	c-0.3,0.3-0.5,0.7-0.6,1.1c-0.1,0.4,0,0.8,0.1,1.2c0.2,0.4,0.4,0.7,0.8,0.9c0.3,0.2,0.7,0.4,1.1,0.4c0.5,0,1.1-0.2,1.5-0.6
	C102.6,197.1,102.8,196.5,102.8,196z"/>
<path class="st7" d="M54.8,89.4v27.4c0,7.2,1.9,14.3,5.6,20.5c3.7,6.2,8.9,11.3,15.2,14.7l12.7,6.9c0.2,0.1,0.4,0.2,0.6,0.3
	c0.5,0.3,0.9,0.6,1.4,0.8c2.6,1.6,4.7,3.9,6.2,6.6c1.5,2.7,2.3,5.7,2.3,8.8v11.9c0,0.6,0.2,1.1,0.6,1.5c0.4,0.4,0.9,0.6,1.5,0.6
	c0.5,0,1.1-0.2,1.5-0.6c0.4-0.4,0.6-0.9,0.6-1.5v-11.9c0-3.1,0.8-6.1,2.3-8.8c1.5-2.7,3.6-5,6.2-6.6c0.5-0.3,0.9-0.5,1.4-0.8
	c0.2-0.1,0.4-0.2,0.6-0.3l12.7-6.9c6.3-3.4,11.6-8.5,15.2-14.7s5.6-13.3,5.6-20.5V89.4H54.8z"/>
<g class="st8">
	<path class="st7" d="M102.8,196c0-0.4-0.1-0.8-0.4-1.2c-0.2-0.3-0.5-0.6-0.9-0.8c-0.4-0.2-0.8-0.2-1.2-0.1
		c-0.4,0.1-0.8,0.3-1.1,0.6c-0.3,0.3-0.5,0.7-0.6,1.1c-0.1,0.4,0,0.8,0.1,1.2c0.2,0.4,0.4,0.7,0.8,0.9c0.3,0.2,0.7,0.3,1.1,0.3
		c0.5,0,1.1-0.2,1.5-0.6C102.6,197.1,102.8,196.5,102.8,196z"/>
</g>
<path class="st6" d="M100.8,114.3c25.4,0,45.9-11.2,45.9-25c0-13.8-20.6-25-45.9-25c-25.4,0-45.9,11.2-45.9,25
	C54.8,103.2,75.4,114.3,100.8,114.3z"/>
<g class="st9">
	<g class="st9">
		<path class="st3" d="M97,180.6l-8.9,7.6c-9.1,7.7-14.7,22.7-14.7,39.1v52.2c-2.8-1-5.5-2.1-8.1-3.5v-48.7
			c0-16.4,6.5-31.4,16.8-39.1l10.2-7.6c4.3-3.2,4.3-11.7,0-14.8l-10.2-7.6c-10.3-7.7-16.8-22.8-16.8-39.1V89.4h8.1v29.7
			c0,16.4,5.6,31.4,14.7,39.1l8.9,7.6C100.7,168.9,100.7,177.5,97,180.6z"/>
	</g>
</g>
<path class="st4" d="M100.8,119.6c30.5,0,55.3-14.3,55.3-32c0-17.7-24.8-32-55.3-32c-30.5,0-55.3,14.3-55.3,32
	C45.5,105.3,70.3,119.6,100.8,119.6z"/>
<path class="st5" d="M156.1,87.7c0,17.7-24.7,32-55.3,32c-30.5,0-55.3-14.3-55.3-32v8.9c0,17.7,24.7,32,55.3,32
	c30.5,0,55.3-14.3,55.3-32L156.1,87.7L156.1,87.7z"/>
<path class="st10" d="M281.7,176.7v-35.3l-49-28.8V77.3l-49-28.8v176.4l49,28.8l49,28.8l49,28.8V205.4L281.7,176.7z"/>
<path class="st7" d="M281.7,176.7v35.3l49,28.8v-35.3L281.7,176.7z"/>
<path class="st10" d="M330.6,205.4v35.3l-49,28.8v35.3l-49,28.8v35.3l49-28.8l49-28.8l49-28.8V176.7L330.6,205.4z"/>
<path class="st11" d="M330.6,205.4v35.3l-49,28.8v35.3l-49,28.8v35.3l49-28.8l49-28.8l49-28.8V176.7L330.6,205.4z"/>
<path class="st10" d="M232.7,77.3l-49-28.8l49-28.8l49,28.8L232.7,77.3z"/>
<path class="st12" d="M232.7,77.3l-49-28.8l49-28.8l49,28.8L232.7,77.3z"/>
<path class="st10" d="M232.7,112.6V77.3l49-28.8v35.3L232.7,112.6z"/>
<path class="st13" d="M232.7,112.6V77.3l49-28.8v35.3L232.7,112.6z"/>
<path class="st10" d="M281.7,141.4l-49-28.8l49-28.8l49,28.8L281.7,141.4z"/>
<path class="st10" d="M281.7,176.7v-35.3l49-28.8v35.3L281.7,176.7z"/>
<path class="st12" d="M281.7,141.4l-49-28.8l49-28.8l49,28.8L281.7,141.4z"/>
<path class="st13" d="M281.7,176.7v-35.3l49-28.8v35.3L281.7,176.7z"/>
<path class="st10" d="M330.6,205.4l-49-28.8l49-28.8l49,28.8L330.6,205.4z"/>
<g class="st14">
	<path class="st12" d="M330.6,205.4l-49-28.8l49-28.8l49,28.8L330.6,205.4z"/>
</g>
<path class="st10" d="M281.7,269.5l49-28.8l-49-28.8l-49,28.8L281.7,269.5z"/>
<path class="st12" d="M281.7,269.5l49-28.8l-49-28.8l-49,28.8L281.7,269.5z"/>
<path class="st10" d="M281.7,304.8v-35.3l-49-28.8V276L281.7,304.8z"/>
<path class="st7" d="M281.7,304.8v-35.3l-49-28.8V276L281.7,304.8z"/>
<path class="st10" d="M232.7,333.5l49-28.8l-49-28.8l-49,28.8L232.7,333.5z"/>
<path class="st10" d="M232.7,368.8v-35.3l-49-28.8V340L232.7,368.8z"/>
<path class="st12" d="M232.7,333.5l49-28.8l-49-28.8l-49,28.8L232.7,333.5z"/>
<path class="st7" d="M232.7,368.8v-35.3l-49-28.8V340L232.7,368.8z"/>
<path class="st10" d="M272.2,299.2l-49,28.8l-30-17.6l49-28.8L272.2,299.2z"/>
<path class="st15" d="M272.2,299.2l-49,28.8l-30-17.6l49-28.8L272.2,299.2z"/>
<path class="st10" d="M223.3,328v35.3l-30-17.6v-35.3h0L223.3,328z"/>
<path class="st10" d="M321.2,235.1l-49,28.8l-30-17.6l49-28.8L321.2,235.1z"/>
<path class="st15" d="M321.2,235.1l-49,28.8l-30-17.6l49-28.8L321.2,235.1z"/>
<path class="st10" d="M272.2,263.9v35.3l-30-17.6v-35.3h0L272.2,263.9z"/>
<path class="st10" d="M321.2,199.9v35.3l-30-17.6v-35.3h0L321.2,199.9z"/>
<path class="st10" d="M321.2,199.9v35.3l-30-17.6v-35.3h0L321.2,199.9z"/>
<path class="st10" d="M242.2,107l49,28.8l30-17.6l-49-28.8L242.2,107z"/>
<g class="st9">
	<path class="st3" d="M242.2,107l49,28.8l30-17.6l-49-28.8L242.2,107z"/>
</g>
<path class="st10" d="M291.1,135.8v35.3l30-17.6v-35.3h0L291.1,135.8z"/>
<path class="st16" d="M291.1,135.8v35.3l30-17.6v-35.3h0L291.1,135.8z"/>
<path class="st10" d="M193.2,43l49,28.8l30-17.6l-49-28.8L193.2,43z"/>
<g class="st9">
	<path class="st3" d="M193.2,43l49,28.8l30-17.6l-49-28.8L193.2,43z"/>
</g>
<path class="st10" d="M242.2,71.8V107l30-17.6V54.1h0L242.2,71.8z"/>
<path class="st16" d="M242.2,71.8V107l30-17.6V54.1h0L242.2,71.8z"/>
<path class="st10" d="M330.6,159l-9.5-5.6l-30,17.6l9.5,5.6l-9.5,5.6l30,17.6l9.5-5.6l30-17.6L330.6,159z"/>
<path class="st15" d="M330.6,159l-9.5-5.6l-30,17.6l9.5,5.6l-9.5,5.6l30,17.6l9.5-5.6l30-17.6L330.6,159z"/>
<path class="st10" d="M213.2,37.5c-0.1,0-0.2,0-0.2-0.1l-1.8-1.1c0,0-0.1-0.1-0.1-0.1c0,0-0.1-0.1-0.1-0.2c0-0.1,0-0.1,0-0.2
	c0-0.1,0-0.1,0.1-0.2c0.1-0.1,0.2-0.2,0.3-0.2c0.1,0,0.2,0,0.3,0l1.8,1.1c0.1,0.1,0.2,0.2,0.2,0.3c0,0.1,0,0.2,0,0.3
	c0,0.1-0.1,0.1-0.2,0.2C213.4,37.5,213.3,37.5,213.2,37.5z"/>
<path class="st10" d="M249.2,58.7c-0.1,0-0.2,0-0.2-0.1l-3.6-2.1c-0.1,0-0.1-0.1-0.1-0.1c0,0-0.1-0.1-0.1-0.2c0-0.1,0-0.1,0-0.2
	c0-0.1,0-0.1,0.1-0.2c0-0.1,0.1-0.1,0.1-0.1c0,0,0.1-0.1,0.2-0.1c0.1,0,0.1,0,0.2,0c0.1,0,0.1,0,0.2,0.1l3.6,2.1
	c0.1,0,0.1,0.1,0.1,0.1c0,0,0.1,0.1,0.1,0.2c0,0.1,0,0.1,0,0.2c0,0.1,0,0.1-0.1,0.2c0,0.1-0.1,0.1-0.2,0.2
	C249.3,58.7,249.2,58.7,249.2,58.7z M242,54.4c-0.1,0-0.2,0-0.2-0.1l-3.6-2.1c-0.1,0-0.1-0.1-0.1-0.1c0,0-0.1-0.1-0.1-0.2
	c0-0.1,0-0.1,0-0.2c0-0.1,0-0.1,0.1-0.2c0-0.1,0.1-0.1,0.1-0.1c0,0,0.1-0.1,0.2-0.1c0.1,0,0.1,0,0.2,0c0.1,0,0.1,0,0.2,0.1l3.6,2.1
	c0,0,0.1,0.1,0.1,0.1c0,0,0.1,0.1,0.1,0.2c0,0.1,0,0.1,0,0.2c0,0.1,0,0.1-0.1,0.2c0,0.1-0.1,0.1-0.2,0.2S242.1,54.4,242,54.4z
	 M234.8,50.2c-0.1,0-0.2,0-0.2-0.1l-3.6-2.1c-0.1-0.1-0.2-0.2-0.2-0.3c0-0.1,0-0.2,0-0.3c0,0,0.1-0.1,0.1-0.1c0,0,0.1-0.1,0.2-0.1
	c0.1,0,0.1,0,0.2,0c0.1,0,0.1,0,0.2,0.1l3.6,2.1c0.1,0,0.2,0.1,0.2,0.2c0,0.1,0,0.2,0,0.3c0,0.1-0.1,0.2-0.2,0.2
	C235,50.2,234.9,50.2,234.8,50.2z M227.6,46c-0.1,0-0.2,0-0.2-0.1l-3.6-2.1c-0.1-0.1-0.2-0.2-0.2-0.3c0-0.1,0-0.2,0-0.3
	c0,0,0.1-0.1,0.1-0.1c0,0,0.1-0.1,0.2-0.1c0.1,0,0.1,0,0.2,0c0.1,0,0.1,0,0.2,0.1l3.6,2.1c0.1,0.1,0.2,0.2,0.2,0.3
	c0,0.1,0,0.2,0,0.3c0,0.1-0.1,0.1-0.2,0.2C227.7,46,227.7,46,227.6,46z M220.4,41.8c-0.1,0-0.2,0-0.2-0.1l-3.6-2.1
	c-0.1-0.1-0.2-0.2-0.2-0.3c0-0.1,0-0.2,0-0.3c0.1-0.1,0.2-0.2,0.3-0.2c0.1,0,0.2,0,0.3,0l3.6,2.1c0.1,0.1,0.2,0.2,0.2,0.3
	c0,0.1,0,0.2,0,0.3c0,0.1-0.1,0.1-0.2,0.2C220.6,41.7,220.5,41.8,220.4,41.8z"/>
<path class="st10" d="M254.6,61.9c-0.1,0-0.2,0-0.2-0.1l-1.8-1.1c-0.1,0-0.1-0.1-0.1-0.1s-0.1-0.1-0.1-0.2c0-0.1,0-0.1,0-0.2
	c0-0.1,0-0.1,0.1-0.2c0-0.1,0.1-0.1,0.1-0.1c0,0,0.1-0.1,0.2-0.1c0.1,0,0.1,0,0.2,0c0.1,0,0.1,0,0.2,0.1l1.8,1.1
	c0.1,0.1,0.2,0.2,0.2,0.3c0,0.1,0,0.2,0,0.3c0,0.1-0.1,0.1-0.2,0.2C254.8,61.8,254.7,61.9,254.6,61.9z"/>
<g class="st8">
	<path class="st16" d="M213.2,37.5c-0.1,0-0.2,0-0.2-0.1l-1.8-1.1c0,0-0.1-0.1-0.1-0.1c0,0-0.1-0.1-0.1-0.2c0-0.1,0-0.1,0-0.2
		c0-0.1,0-0.1,0.1-0.2c0.1-0.1,0.2-0.2,0.3-0.2c0.1,0,0.2,0,0.3,0l1.8,1.1c0.1,0.1,0.2,0.2,0.2,0.3c0,0.1,0,0.2,0,0.3
		c0,0.1-0.1,0.1-0.2,0.2C213.4,37.5,213.3,37.5,213.2,37.5z"/>
	<path class="st16" d="M249.2,58.7c-0.1,0-0.2,0-0.2-0.1l-3.6-2.1c-0.1,0-0.1-0.1-0.1-0.1c0,0-0.1-0.1-0.1-0.2c0-0.1,0-0.1,0-0.2
		c0-0.1,0-0.1,0.1-0.2c0-0.1,0.1-0.1,0.1-0.1c0,0,0.1-0.1,0.2-0.1c0.1,0,0.1,0,0.2,0c0.1,0,0.1,0,0.2,0.1l3.6,2.1
		c0.1,0,0.1,0.1,0.1,0.1c0,0,0.1,0.1,0.1,0.2c0,0.1,0,0.1,0,0.2c0,0.1,0,0.1-0.1,0.2c0,0.1-0.1,0.1-0.2,0.2
		C249.3,58.7,249.2,58.7,249.2,58.7z M242,54.4c-0.1,0-0.2,0-0.2-0.1l-3.6-2.1c-0.1,0-0.1-0.1-0.1-0.1c0,0-0.1-0.1-0.1-0.2
		c0-0.1,0-0.1,0-0.2c0-0.1,0-0.1,0.1-0.2c0-0.1,0.1-0.1,0.1-0.1c0,0,0.1-0.1,0.2-0.1c0.1,0,0.1,0,0.2,0c0.1,0,0.1,0,0.2,0.1l3.6,2.1
		c0,0,0.1,0.1,0.1,0.1c0,0,0.1,0.1,0.1,0.2c0,0.1,0,0.1,0,0.2c0,0.1,0,0.1-0.1,0.2c0,0.1-0.1,0.1-0.2,0.2
		C242.1,54.4,242.1,54.4,242,54.4z M234.8,50.2c-0.1,0-0.2,0-0.2-0.1l-3.6-2.1c-0.1-0.1-0.2-0.2-0.2-0.3c0-0.1,0-0.2,0-0.3
		c0,0,0.1-0.1,0.1-0.1c0,0,0.1-0.1,0.2-0.1c0.1,0,0.1,0,0.2,0c0.1,0,0.1,0,0.2,0.1l3.6,2.1c0.1,0,0.2,0.1,0.2,0.2s0,0.2,0,0.3
		c0,0.1-0.1,0.2-0.2,0.2C235,50.2,234.9,50.2,234.8,50.2z M227.6,46c-0.1,0-0.2,0-0.2-0.1l-3.6-2.1c-0.1-0.1-0.2-0.2-0.2-0.3
		c0-0.1,0-0.2,0-0.3c0,0,0.1-0.1,0.1-0.1c0,0,0.1-0.1,0.2-0.1c0.1,0,0.1,0,0.2,0c0.1,0,0.1,0,0.2,0.1l3.6,2.1
		c0.1,0.1,0.2,0.2,0.2,0.3c0,0.1,0,0.2,0,0.3c0,0.1-0.1,0.1-0.2,0.2C227.7,46,227.7,46,227.6,46z M220.4,41.8c-0.1,0-0.2,0-0.2-0.1
		l-3.6-2.1c-0.1-0.1-0.2-0.2-0.2-0.3c0-0.1,0-0.2,0-0.3c0.1-0.1,0.2-0.2,0.3-0.2c0.1,0,0.2,0,0.3,0l3.6,2.1c0.1,0.1,0.2,0.2,0.2,0.3
		c0,0.1,0,0.2,0,0.3c0,0.1-0.1,0.1-0.2,0.2C220.6,41.7,220.5,41.8,220.4,41.8z"/>
	<path class="st16" d="M254.6,61.9c-0.1,0-0.2,0-0.2-0.1l-1.8-1.1c-0.1,0-0.1-0.1-0.1-0.1c0,0-0.1-0.1-0.1-0.2c0-0.1,0-0.1,0-0.2
		c0-0.1,0-0.1,0.1-0.2c0-0.1,0.1-0.1,0.1-0.1c0,0,0.1-0.1,0.2-0.1c0.1,0,0.1,0,0.2,0c0.1,0,0.1,0,0.2,0.1l1.8,1.1
		c0.1,0.1,0.2,0.2,0.2,0.3c0,0.1,0,0.2,0,0.3c0,0.1-0.1,0.1-0.2,0.2C254.8,61.8,254.7,61.9,254.6,61.9z"/>
</g>
<path class="st10" d="M261.9,101.4c-0.1,0-0.2,0-0.2-0.1l-1.8-1.1c0,0-0.1-0.1-0.1-0.1c0,0-0.1-0.1-0.1-0.2s0-0.1,0-0.2
	c0-0.1,0-0.1,0.1-0.2c0,0,0.1-0.1,0.1-0.1c0,0,0.1-0.1,0.2-0.1c0.1,0,0.1,0,0.2,0c0.1,0,0.1,0,0.2,0.1l1.8,1.1
	c0.1,0,0.2,0.1,0.2,0.2c0,0.1,0,0.2,0,0.3c0,0.1-0.1,0.2-0.2,0.2C262.1,101.4,262,101.4,261.9,101.4z"/>
<path class="st10" d="M297.9,122.6c-0.1,0-0.1,0-0.2-0.1l-3.6-2.1c0,0-0.1-0.1-0.1-0.1c0,0-0.1-0.1-0.1-0.2c0-0.1,0-0.1,0-0.2
	c0-0.1,0-0.1,0.1-0.2c0-0.1,0.1-0.1,0.1-0.1c0,0,0.1-0.1,0.2-0.1c0.1,0,0.1,0,0.2,0c0.1,0,0.1,0,0.2,0.1l3.6,2.1
	c0.1,0.1,0.2,0.2,0.2,0.3c0,0.1,0,0.2,0,0.3c0,0.1-0.1,0.1-0.2,0.2C298.1,122.6,298,122.6,297.9,122.6z M290.7,118.4
	c-0.1,0-0.1,0-0.2-0.1l-3.6-2.1c-0.1-0.1-0.2-0.2-0.2-0.3c0-0.1,0-0.2,0-0.3c0.1-0.1,0.2-0.2,0.3-0.2c0.1,0,0.2,0,0.3,0l3.6,2.1
	c0.1,0,0.2,0.1,0.2,0.2c0,0.1,0,0.2,0,0.3c0,0.1-0.1,0.2-0.2,0.2C290.9,118.3,290.8,118.4,290.7,118.4z M283.5,114.1
	c-0.1,0-0.2,0-0.2-0.1l-3.6-2.1c-0.1-0.1-0.2-0.2-0.2-0.3c0-0.1,0-0.2,0-0.3c0-0.1,0.1-0.1,0.1-0.1c0,0,0.1-0.1,0.2-0.1
	c0.1,0,0.1,0,0.2,0c0.1,0,0.1,0,0.2,0.1l3.6,2.1c0.1,0.1,0.2,0.2,0.2,0.3c0,0.1,0,0.2,0,0.3c0,0.1-0.1,0.1-0.2,0.2
	C283.7,114.1,283.6,114.1,283.5,114.1z M276.3,109.9c-0.1,0-0.1,0-0.2-0.1l-3.6-2.1c-0.1-0.1-0.2-0.2-0.2-0.3c0-0.1,0-0.2,0-0.3
	c0-0.1,0.1-0.1,0.1-0.1c0,0,0.1-0.1,0.2-0.1c0.1,0,0.1,0,0.2,0c0.1,0,0.1,0,0.2,0.1l3.6,2.1c0.1,0.1,0.2,0.2,0.2,0.3
	c0,0.1,0,0.2,0,0.3c0,0.1-0.1,0.1-0.2,0.2C276.5,109.9,276.4,109.9,276.3,109.9z M269.1,105.7c-0.1,0-0.2,0-0.2-0.1l-3.6-2.1
	c0,0-0.1-0.1-0.1-0.1c0,0-0.1-0.1-0.1-0.2c0-0.1,0-0.1,0-0.2c0-0.1,0-0.1,0.1-0.2c0-0.1,0.1-0.1,0.1-0.1c0,0,0.1-0.1,0.2-0.1
	c0.1,0,0.1,0,0.2,0c0.1,0,0.1,0,0.2,0.1l3.6,2.1c0.1,0.1,0.2,0.2,0.2,0.3c0,0.1,0,0.2,0,0.3c0,0.1-0.1,0.1-0.2,0.1
	C269.3,105.7,269.2,105.7,269.1,105.7L269.1,105.7z"/>
<path class="st10" d="M303.3,125.8c-0.1,0-0.2,0-0.2-0.1l-1.8-1.1c0,0-0.1-0.1-0.1-0.1c0,0-0.1-0.1-0.1-0.2c0-0.1,0-0.1,0-0.2
	c0-0.1,0-0.1,0.1-0.2c0-0.1,0.1-0.1,0.1-0.1c0,0,0.1-0.1,0.2-0.1c0.1,0,0.1,0,0.2,0c0.1,0,0.1,0,0.2,0.1l1.8,1.1
	c0,0,0.1,0.1,0.1,0.1c0,0,0.1,0.1,0.1,0.2c0,0.1,0,0.1,0,0.2c0,0.1,0,0.1-0.1,0.2c0,0.1-0.1,0.1-0.2,0.2
	C303.5,125.8,303.4,125.8,303.3,125.8z"/>
<g class="st8">
	<path class="st16" d="M261.9,101.4c-0.1,0-0.2,0-0.2-0.1l-1.8-1.1c0,0-0.1-0.1-0.1-0.1c0,0-0.1-0.1-0.1-0.2c0-0.1,0-0.1,0-0.2
		c0-0.1,0-0.1,0.1-0.2c0,0,0.1-0.1,0.1-0.1s0.1-0.1,0.2-0.1c0.1,0,0.1,0,0.2,0c0.1,0,0.1,0,0.2,0.1l1.8,1.1c0.1,0,0.2,0.1,0.2,0.2
		c0,0.1,0,0.2,0,0.3c0,0.1-0.1,0.2-0.2,0.2C262.1,101.4,262,101.4,261.9,101.4z"/>
	<path class="st16" d="M297.9,122.6c-0.1,0-0.1,0-0.2-0.1l-3.6-2.1c0,0-0.1-0.1-0.1-0.1c0,0-0.1-0.1-0.1-0.2c0-0.1,0-0.1,0-0.2
		c0-0.1,0-0.1,0.1-0.2c0-0.1,0.1-0.1,0.1-0.1c0,0,0.1-0.1,0.2-0.1c0.1,0,0.1,0,0.2,0c0.1,0,0.1,0,0.2,0.1l3.6,2.1
		c0.1,0.1,0.2,0.2,0.2,0.3c0,0.1,0,0.2,0,0.3c0,0.1-0.1,0.1-0.2,0.2C298.1,122.6,298,122.6,297.9,122.6z M290.7,118.4
		c-0.1,0-0.1,0-0.2-0.1l-3.6-2.1c-0.1-0.1-0.2-0.2-0.2-0.3c0-0.1,0-0.2,0-0.3s0.2-0.2,0.3-0.2c0.1,0,0.2,0,0.3,0l3.6,2.1
		c0.1,0,0.2,0.1,0.2,0.2c0,0.1,0,0.2,0,0.3c0,0.1-0.1,0.2-0.2,0.2C290.9,118.3,290.8,118.4,290.7,118.4z M283.5,114.1
		c-0.1,0-0.2,0-0.2-0.1l-3.6-2.1c-0.1-0.1-0.2-0.2-0.2-0.3c0-0.1,0-0.2,0-0.3c0-0.1,0.1-0.1,0.1-0.1c0,0,0.1-0.1,0.2-0.1
		c0.1,0,0.1,0,0.2,0c0.1,0,0.1,0,0.2,0.1l3.6,2.1c0.1,0.1,0.2,0.2,0.2,0.3c0,0.1,0,0.2,0,0.3c0,0.1-0.1,0.1-0.2,0.2
		C283.7,114.1,283.6,114.1,283.5,114.1z M276.3,109.9c-0.1,0-0.2,0-0.2-0.1l-3.6-2.1c-0.1-0.1-0.2-0.2-0.2-0.3c0-0.1,0-0.2,0-0.3
		c0-0.1,0.1-0.1,0.1-0.1c0,0,0.1-0.1,0.2-0.1c0.1,0,0.1,0,0.2,0c0.1,0,0.1,0,0.2,0.1l3.6,2.1c0.1,0.1,0.2,0.2,0.2,0.3
		c0,0.1,0,0.2,0,0.3c0,0.1-0.1,0.1-0.2,0.2C276.5,109.9,276.4,109.9,276.3,109.9z M269.1,105.7c-0.1,0-0.2,0-0.2-0.1l-3.6-2.1
		c-0.1,0-0.1-0.1-0.1-0.1c0,0-0.1-0.1-0.1-0.2c0-0.1,0-0.1,0-0.2c0-0.1,0-0.1,0.1-0.2c0,0,0.1-0.1,0.1-0.1c0,0,0.1-0.1,0.2-0.1
		c0.1,0,0.1,0,0.2,0c0.1,0,0.1,0,0.2,0.1l3.6,2.1c0.1,0.1,0.2,0.2,0.2,0.3c0,0.1,0,0.2,0,0.3c0,0.1-0.1,0.1-0.2,0.1
		C269.3,105.7,269.2,105.7,269.1,105.7L269.1,105.7z"/>
	<path class="st16" d="M303.3,125.8c-0.1,0-0.2,0-0.2-0.1l-1.8-1.1c0,0-0.1-0.1-0.1-0.1c0,0-0.1-0.1-0.1-0.2c0-0.1,0-0.1,0-0.2
		c0-0.1,0-0.1,0.1-0.2c0,0,0.1-0.1,0.1-0.1c0,0,0.1-0.1,0.2-0.1c0.1,0,0.1,0,0.2,0c0.1,0,0.1,0,0.2,0.1l1.8,1.1
		c0.1,0,0.1,0.1,0.1,0.1c0,0,0.1,0.1,0.1,0.2c0,0.1,0,0.1,0,0.2s0,0.1-0.1,0.2c0,0.1-0.1,0.1-0.2,0.2
		C303.5,125.8,303.4,125.8,303.3,125.8z"/>
</g>
<path class="st10" d="M306.2,191.5c-0.1,0-0.1,0-0.2-0.1c-0.1,0-0.1-0.1-0.2-0.2c-0.1-0.1-0.1-0.2,0-0.3c0-0.1,0.1-0.2,0.2-0.3
	l1.8-1.1c0.1-0.1,0.2-0.1,0.3,0c0.1,0,0.2,0.1,0.3,0.2c0.1,0.1,0.1,0.2,0,0.3c0,0.1-0.1,0.2-0.2,0.3l-1.8,1.1
	C306.3,191.5,306.2,191.5,306.2,191.5z"/>
<path class="st10" d="M312.2,188c-0.1,0-0.2,0-0.2-0.1c-0.1,0-0.1-0.1-0.2-0.2c0-0.1-0.1-0.1-0.1-0.2c0-0.1,0-0.1,0-0.2
	c0-0.1,0-0.1,0.1-0.2c0,0,0.1-0.1,0.1-0.1l4.2-2.4c0,0,0.1,0,0.2-0.1c0.1,0,0.1,0,0.2,0c0.1,0,0.1,0,0.2,0.1c0,0,0.1,0.1,0.1,0.1
	c0.1,0.1,0.1,0.2,0,0.3c0,0.1-0.1,0.2-0.2,0.3l-4.2,2.4C312.3,187.9,312.2,188,312.2,188z M320.5,183.1c-0.1,0-0.2,0-0.2-0.1
	c-0.1,0-0.1-0.1-0.2-0.2c-0.1-0.1-0.1-0.2,0-0.3c0-0.1,0.1-0.2,0.2-0.3l4.2-2.5c0.1-0.1,0.2-0.1,0.3,0c0.1,0,0.2,0.1,0.3,0.2
	c0.1,0.1,0.1,0.2,0,0.3c0,0.1-0.1,0.2-0.2,0.3l-4.2,2.4C320.6,183.1,320.6,183.1,320.5,183.1L320.5,183.1z"/>
<path class="st10" d="M328.8,178.2c-0.1,0-0.2,0-0.2-0.1c-0.1,0-0.1-0.1-0.2-0.2c-0.1-0.1-0.1-0.2,0-0.3c0-0.1,0.1-0.2,0.2-0.3
	l1.2-0.7l-1.2-0.7c0,0-0.1-0.1-0.1-0.1c0,0-0.1-0.1-0.1-0.2c0-0.1,0-0.1,0-0.2c0-0.1,0-0.1,0.1-0.2c0-0.1,0.1-0.1,0.1-0.1
	c0,0,0.1-0.1,0.2-0.1c0.1,0,0.1,0,0.2,0c0.1,0,0.1,0,0.2,0.1l1.8,1.1c0.1,0.1,0.1,0.1,0.2,0.2c0,0.1,0,0.2,0,0.3
	c0,0.1-0.1,0.1-0.1,0.2c0,0.1-0.1,0.1-0.2,0.1l-1.8,1C328.9,178.1,328.9,178.2,328.8,178.2z"/>
<path class="st10" d="M325.2,173.9c-0.1,0-0.2,0-0.2-0.1l-3.6-2.1c-0.1-0.1-0.2-0.2-0.2-0.3c0-0.1,0-0.2,0-0.3
	c0-0.1,0.1-0.1,0.1-0.1c0,0,0.1-0.1,0.2-0.1c0.1,0,0.1,0,0.2,0c0.1,0,0.1,0,0.2,0.1l3.6,2.1c0.1,0.1,0.2,0.2,0.2,0.3
	c0,0.1,0,0.2,0,0.3c0,0.1-0.1,0.1-0.2,0.2C325.3,173.9,325.3,173.9,325.2,173.9z M317.9,169.6c-0.1,0-0.1,0-0.2-0.1l-3.6-2.1
	c-0.1-0.1-0.2-0.2-0.2-0.3c0-0.1,0-0.2,0-0.3c0.1-0.1,0.2-0.2,0.3-0.2c0.1,0,0.2,0,0.3,0l3.6,2.1c0.1,0.1,0.2,0.2,0.2,0.3
	c0,0.1,0,0.2,0,0.3c0,0.1-0.1,0.1-0.2,0.2C318.1,169.6,318,169.6,317.9,169.6L317.9,169.6z"/>
<path class="st10" d="M310.7,165.4c-0.1,0-0.2,0-0.2-0.1l-1.8-1.1c-0.1-0.1-0.2-0.2-0.2-0.3c0-0.1,0-0.2,0-0.3
	c0.1-0.1,0.2-0.2,0.3-0.2c0.1,0,0.2,0,0.3,0l1.8,1.1c0.1,0,0.2,0.1,0.2,0.2c0,0.1,0,0.2,0,0.3c0,0.1-0.1,0.2-0.2,0.2
	C310.9,165.4,310.8,165.4,310.7,165.4z"/>
<path class="st10" d="M304.3,227.8c-0.1,0-0.1,0-0.2-0.1c-0.1,0-0.1-0.1-0.2-0.2c-0.1-0.1-0.1-0.2,0-0.3c0-0.1,0.1-0.2,0.2-0.3
	l1.8-1.1c0.1-0.1,0.2-0.1,0.3,0c0.1,0,0.2,0.1,0.3,0.2c0.1,0.1,0.1,0.2,0,0.3c0,0.1-0.1,0.2-0.2,0.3l-1.8,1.1
	C304.5,227.8,304.4,227.8,304.3,227.8z"/>
<path class="st10" d="M262.5,252.4c-0.1,0-0.1,0-0.2-0.1c-0.1,0-0.1-0.1-0.2-0.2c0,0,0-0.1-0.1-0.2c0-0.1,0-0.1,0-0.2
	c0-0.1,0-0.1,0.1-0.2c0,0,0.1-0.1,0.1-0.1l3.5-2c0.1-0.1,0.2-0.1,0.3,0c0.1,0,0.2,0.1,0.3,0.2c0,0.1,0,0.1,0.1,0.2
	c0,0.1,0,0.1,0,0.2c0,0.1,0,0.1-0.1,0.2c0,0-0.1,0.1-0.1,0.1l-3.5,2C262.7,252.4,262.6,252.4,262.5,252.4z M269.5,248.3
	c-0.1,0-0.2,0-0.2-0.1c-0.1,0-0.1-0.1-0.2-0.2c-0.1-0.1-0.1-0.2,0-0.3c0-0.1,0.1-0.2,0.2-0.3l3.5-2c0,0,0.1,0,0.2-0.1
	c0.1,0,0.1,0,0.2,0c0.1,0,0.1,0,0.2,0.1c0,0,0.1,0.1,0.1,0.1c0,0.1,0,0.1,0.1,0.2c0,0.1,0,0.1,0,0.2c0,0.1,0,0.1-0.1,0.2
	s-0.1,0.1-0.1,0.1l-3.5,2C269.6,248.3,269.6,248.3,269.5,248.3z M276.5,244.2c-0.1,0-0.2,0-0.2-0.1c-0.1,0-0.1-0.1-0.2-0.2
	c-0.1-0.1-0.1-0.2,0-0.3s0.1-0.2,0.2-0.3l3.4-2c0,0,0.1,0,0.2-0.1c0.1,0,0.1,0,0.2,0c0.1,0,0.1,0,0.2,0.1c0,0,0.1,0.1,0.1,0.1
	c0.1,0.1,0.1,0.2,0,0.3c0,0.1-0.1,0.2-0.2,0.3l-3.5,2C276.6,244.2,276.5,244.2,276.5,244.2z M283.4,240.1c-0.1,0-0.1,0-0.2-0.1
	c-0.1,0-0.1-0.1-0.2-0.2c-0.1-0.1-0.1-0.2,0-0.3c0-0.1,0.1-0.2,0.2-0.3l3.5-2c0,0,0.1-0.1,0.2-0.1c0.1,0,0.1,0,0.2,0
	c0.1,0,0.1,0,0.2,0.1c0,0,0.1,0.1,0.1,0.1c0,0,0.1,0.1,0.1,0.2s0,0.1,0,0.2c0,0.1,0,0.1-0.1,0.2c0,0-0.1,0.1-0.1,0.1l-3.5,2
	C283.6,240.1,283.5,240.1,283.4,240.1z M290.4,236c-0.1,0-0.2,0-0.3-0.1c-0.1-0.1-0.1-0.1-0.2-0.2c0-0.1,0-0.2,0-0.3
	c0-0.1,0.1-0.2,0.2-0.2l3.5-2c0,0,0.1,0,0.2-0.1c0.1,0,0.1,0,0.2,0c0.1,0,0.1,0,0.2,0.1c0,0,0.1,0.1,0.1,0.1c0.1,0.1,0.1,0.2,0,0.3
	c0,0.1-0.1,0.2-0.2,0.3l-3.5,2C290.5,236,290.5,236,290.4,236z M297.4,231.9c-0.1,0-0.2,0-0.2-0.1c-0.1,0-0.1-0.1-0.2-0.2
	c0-0.1,0-0.1-0.1-0.2c0-0.1,0-0.1,0-0.2s0-0.1,0.1-0.2c0,0,0.1-0.1,0.1-0.1l3.5-2c0.1-0.1,0.2-0.1,0.3,0c0.1,0,0.2,0.1,0.3,0.2
	c0,0.1,0,0.1,0.1,0.2c0,0.1,0,0.1,0,0.2c0,0.1,0,0.1-0.1,0.2c0,0-0.1,0.1-0.1,0.1l-3.5,2C297.5,231.9,297.4,231.9,297.4,231.9z"/>
<path class="st10" d="M257.2,255.5c-0.1,0-0.1,0-0.2-0.1c-0.1,0-0.1-0.1-0.2-0.2c-0.1-0.1-0.1-0.2,0-0.3c0-0.1,0.1-0.2,0.2-0.3
	l1.8-1.1c0,0,0.1,0,0.2-0.1c0.1,0,0.1,0,0.2,0c0.1,0,0.1,0,0.2,0.1c0,0,0.1,0.1,0.1,0.1c0.1,0.1,0.1,0.2,0,0.3
	c0,0.1-0.1,0.2-0.2,0.3l-1.8,1.1C257.3,255.5,257.3,255.5,257.2,255.5z"/>
<path class="st10" d="M255.4,291.9c-0.1,0-0.2,0-0.2-0.1c-0.1,0-0.1-0.1-0.2-0.2c-0.1-0.1-0.1-0.2,0-0.3c0-0.1,0.1-0.2,0.2-0.3
	l1.8-1.1c0.1-0.1,0.2-0.1,0.3,0c0.1,0,0.2,0.1,0.3,0.2c0.1,0.1,0.1,0.2,0,0.3c0,0.1-0.1,0.2-0.2,0.3l-1.8,1.1
	C255.5,291.9,255.4,291.9,255.4,291.9z"/>
<path class="st10" d="M213.6,316.4c-0.1,0-0.2,0-0.2-0.1c-0.1,0-0.1-0.1-0.2-0.2c0-0.1,0-0.1-0.1-0.2c0-0.1,0-0.1,0-0.2
	c0-0.1,0-0.1,0.1-0.2c0,0,0.1-0.1,0.1-0.1l3.5-2c0.1-0.1,0.2-0.1,0.3,0c0.1,0,0.2,0.1,0.3,0.2c0,0,0,0.1,0.1,0.2c0,0.1,0,0.1,0,0.2
	c0,0.1,0,0.1-0.1,0.2c0,0-0.1,0.1-0.1,0.1l-3.5,2C213.7,316.4,213.6,316.4,213.6,316.4z M220.5,312.3c-0.1,0-0.2,0-0.2-0.1
	c-0.1,0-0.1-0.1-0.2-0.2c-0.1-0.1-0.1-0.2,0-0.3c0-0.1,0.1-0.2,0.2-0.3l3.5-2c0.1,0,0.1,0,0.2-0.1s0.1,0,0.2,0c0.1,0,0.1,0,0.2,0.1
	c0,0,0.1,0.1,0.1,0.1c0,0.1,0,0.1,0.1,0.2c0,0.1,0,0.1,0,0.2s0,0.1-0.1,0.2c0,0-0.1,0.1-0.1,0.1l-3.5,2
	C220.7,312.3,220.6,312.3,220.5,312.3z M227.5,308.3c-0.1,0-0.2,0-0.2-0.1c-0.1,0-0.1-0.1-0.2-0.2c-0.1-0.1-0.1-0.2,0-0.3
	c0-0.1,0.1-0.2,0.2-0.3l3.5-2c0,0,0.1,0,0.2-0.1c0.1,0,0.1,0,0.2,0c0.1,0,0.1,0,0.2,0.1c0,0,0.1,0.1,0.1,0.1c0.1,0.1,0.1,0.2,0,0.3
	c0,0.1-0.1,0.2-0.2,0.3l-3.5,2C227.7,308.2,227.6,308.3,227.5,308.3z M234.5,304.2c-0.1,0-0.2,0-0.3-0.1c-0.1-0.1-0.1-0.1-0.2-0.2
	c0-0.1,0-0.2,0-0.3c0-0.1,0.1-0.2,0.2-0.2l3.5-2c0,0,0.1-0.1,0.2-0.1c0.1,0,0.1,0,0.2,0c0.1,0,0.1,0,0.2,0.1c0,0,0.1,0.1,0.1,0.1
	c0,0,0.1,0.1,0.1,0.2c0,0.1,0,0.1,0,0.2c0,0.1,0,0.1-0.1,0.2c0,0-0.1,0.1-0.1,0.1l-3.5,2C234.6,304.1,234.5,304.2,234.5,304.2z
	 M241.4,300.1c-0.1,0-0.2,0-0.3-0.1c-0.1-0.1-0.1-0.1-0.2-0.2c0-0.1,0-0.2,0-0.3s0.1-0.2,0.2-0.2l3.5-2c0.1,0,0.1,0,0.2-0.1
	c0.1,0,0.1,0,0.2,0c0.1,0,0.1,0,0.2,0.1c0,0,0.1,0.1,0.1,0.1c0.1,0.1,0.1,0.2,0,0.3c0,0.1-0.1,0.2-0.2,0.3l-3.5,2
	C241.6,300,241.5,300.1,241.4,300.1z M248.4,296c-0.1,0-0.2,0-0.2-0.1c-0.1,0-0.1-0.1-0.2-0.2c0,0,0-0.1-0.1-0.2c0-0.1,0-0.1,0-0.2
	c0-0.1,0-0.1,0.1-0.2c0,0,0.1-0.1,0.1-0.1l3.5-2c0.1-0.1,0.2-0.1,0.3,0c0.1,0,0.2,0.1,0.3,0.2c0.1,0.1,0.1,0.2,0,0.3
	c0,0.1-0.1,0.2-0.2,0.3l-3.5,2C248.5,295.9,248.5,296,248.4,296z"/>
<path class="st10" d="M208.2,319.6c-0.1,0-0.1,0-0.2-0.1c-0.1,0-0.1-0.1-0.2-0.2c-0.1-0.1-0.1-0.2,0-0.3c0-0.1,0.1-0.2,0.2-0.3
	l1.8-1.1c0.1,0,0.1,0,0.2-0.1c0.1,0,0.1,0,0.2,0c0.1,0,0.1,0,0.2,0.1c0,0,0.1,0.1,0.1,0.1c0.1,0.1,0.1,0.2,0,0.3
	c0,0.1-0.1,0.2-0.2,0.3l-1.8,1.1C208.4,319.5,208.3,319.6,208.2,319.6z"/>
<path class="st2" d="M236.9,51c-1.3,0.7-2.7,1-4.2,1s-2.9-0.4-4.2-1c-2.3-1.4-2.3-3.6,0-4.9c1.3-0.7,2.7-1,4.2-1s2.9,0.4,4.2,1
	C239.2,47.5,239.2,49.7,236.9,51z"/>
<path class="st17" d="M232.7,24.9V5.1l25.4,9.9L232.7,24.9z"/>
<path class="st18" d="M232.7,49.4c-0.2,0-0.5-0.1-0.6-0.3c-0.2-0.2-0.3-0.4-0.3-0.6V1.2c0-0.1,0-0.3,0-0.4c0-0.1,0.1-0.3,0.2-0.4
	c0.1-0.1,0.2-0.2,0.3-0.3c0.1-0.1,0.3-0.1,0.4-0.1c0.1,0,0.3,0,0.4,0.1c0.1,0.1,0.2,0.2,0.3,0.3c0.1,0.1,0.1,0.2,0.2,0.4
	c0,0.1,0,0.3,0,0.4v47.4c0,0.2-0.1,0.4-0.2,0.6C233.1,49.3,232.9,49.4,232.7,49.4z"/>
<path class="st19" d="M189.5,201.3h-10.6v17.2h10.6V201.3z"/>
<path class="st20" d="M195.8,197.4l2.5,3.7c0.1,0.2,0.2,0.3,0.1,0.5c0,0.2-0.1,0.4-0.2,0.5c-0.6,0.7-1.5,1.1-2.4,1.2V197.4z"/>
<path class="st19" d="M185.2,183.8c0,0,8.3-5.9,10.9,14.6c2.2,17.1-8.4,13.2-12.3,10.8c-3.9-2.4-11.4-9.5-6.5-19.5
	C179.5,185.2,185.2,183.8,185.2,183.8z"/>
<path class="st18" d="M192.8,190.4c0,0,0.1,3.7-3.3,3.9c0.8,1,1.3,2.3,1.2,3.5c0,2.4-0.8,2-1.2,1.5c-0.4-0.5-4.1,0-4.1,0l1.9,3.7
	c0.2,1.4,0.1,2.8-0.3,4.1c-0.5,1.3-1.3,2.5-2.3,3.4c0,0-5,1.4-7.3,0c0,0-6.4-7.1-7.5-12.1c-1.2-5-1.2-9.4,1.7-11.5
	c0,0,0.9-6.4,7.6-6.4c6.7,0,8.7,1.7,12.3,0.9c1.5-0.3,3.7-1.4,3.7,0.1c0,1.5-1.8,2.7-1.8,2.7s1.8-0.1,2.8-0.2c1-0.1,3.2-0.4,2.8,2.4
	C198.5,189.5,195.9,190.9,192.8,190.4z"/>
<path class="st18" d="M172.4,187.2c0,0-1.8-3.6-4-1.5c0,0,0,0,0,0.1c0,0,0,0,0,0.1c0,0,0,0,0,0.1c0,0,0,0,0,0.1l3.9,2.4L172.4,187.2
	z"/>
<path class="st19" d="M189.5,199.4v5.6c0,0-5.7-0.1-5.7-4.4C183.8,196.7,188.4,197.6,189.5,199.4z"/>
<path class="st5" d="M147.8,343.5c0,0-0.3,7.4,9.9,10.4C157.7,353.9,159.2,343.5,147.8,343.5z"/>
<path class="st4" d="M155.7,360.1v-4.4c0-0.9,0.2-1.9,0.6-2.7c0.4-0.8,1-1.6,1.7-2.2c0,0-1.5-6.5-7.6-6.1c-2,0.8-3.7,2.1-4.9,3.9
	c-0.4,0.6-0.8,1.3-0.9,2s-0.2,1.5,0,2.2c0-0.2,0-0.3,0-0.5c0.1-0.2,0.1-0.3,0.3-0.4s0.3-0.2,0.5-0.2c0.2,0,0.3,0,0.5,0.1l1.5,0.6
	c0.9,0.4,1.7,1,2.4,1.7c0.6,0.8,1.1,1.7,1.3,2.7l1.8,8.6c0.2,0.8,0.5,1.5,1.1,2.1c0.6,0.6,1.3,0.9,2.1,1.1h0.1c0.2,0,0.3,0,0.5,0
	h0.1c0.2,0,0.3,0,0.5,0h0.1c0.2,0,0.3-0.1,0.5-0.1h0.1c0.2-0.1,0.4-0.1,0.6-0.2c0.2-0.1,0.4-0.2,0.6-0.3l1.5-1
	c0.2-0.1,0.4-0.3,0.5-0.6c0.1-0.2,0.2-0.5,0.2-0.8C161.4,363.7,160.6,360.1,155.7,360.1z"/>
<path class="st18" d="M160.8,366.8l-1.5,1c-0.2,0.1-0.4,0.2-0.6,0.3c-0.2,0.1-0.4,0.2-0.6,0.2h-0.1c-0.2,0-0.3,0.1-0.5,0.1h-0.1
	h-0.2h-0.3h-0.3h-0.3h-0.1c-0.8-0.1-1.5-0.5-2.1-1.1c-0.6-0.6-1-1.3-1.1-2.1c0,0,0-0.1,0-0.1l-1.8-8.6c-0.2-1-0.6-1.9-1.3-2.7
	c-0.6-0.8-1.4-1.4-2.4-1.7l-1.5-0.6c-0.6-0.3-1.1,0.2-1.3,0.5c-0.2,0.2-0.4,0.5-0.5,0.8c-0.1,0.3-0.1,0.6,0,1l1.8,8
	c0.4,1.8,1.5,3.5,3,4.5l3.9,2.7c0.6,0.4,1.3,0.7,2.1,0.8c0.7,0.1,1.5,0,2.2-0.2h0h0.1c0.3-0.1,0.5-0.2,0.8-0.3l1.7-0.9
	c0.4-0.2,0.7-0.5,0.9-0.8s0.4-0.7,0.5-1.1C161,366.6,160.9,366.7,160.8,366.8z"/>
<path class="st19" d="M149.2,345.2c0,0,7,0.7,6.9,8.1l4.3-6.8l-7.1-7.5L149.2,345.2z"/>
<path class="st2" d="M164.7,259.3v11.8c0,4.7,0.2,9.4,0.6,14.1l1.4,15.8c0.2,1.9-0.1,3.9-0.7,5.7c-0.6,1.8-1.7,3.5-3,4.9
	c-2.2,2.2-4,4.8-5.3,7.6c-4.3,8.5-9.9,24.2-9.9,24.2s9.9,0,9.9,10.4l22.6-37.9c1.6-2.7,2.6-5.7,2.9-8.8l4.8-43.4L164.7,259.3z"/>
<path class="st18" d="M214.4,327.5c0.4,0.8,1.1,1.4,1.9,1.7h0.1c1.6,0.7,3.5,0.8,5.2,0.2l14.4-5.3c1-0.4,1-2,1-2.6h-22.5V327.5z"/>
<path class="st4" d="M215.2,318.9c0,0-2,2.1-1.3,6.1c0.1,0.6,0.4,1.2,0.8,1.7c0.4,0.5,0.9,0.9,1.5,1.2l0.1,0
	c1.6,0.7,3.5,0.8,5.2,0.2l14.4-5.3c0.4-0.1,0.6-0.4,0.8-0.7c0.2-0.3,0.2-0.7,0.1-1.1c-0.7-2.4-3-4.7-8.4-3.3
	c-1.4,0.5-2.8,0.8-4.2,0.9l-0.7-1.2L215.2,318.9z"/>
<path class="st19" d="M224.1,318.7c-0.8,2-3.6,2.7-7,1.6c-0.8-0.3-1.5-0.7-2.1-1.2v-8h9.1L224.1,318.7z"/>
<path class="st2" d="M175,262.3v1.4c0,4.1,1.3,8.1,3.8,11.3c2.5,3.2,5.9,5.6,9.8,6.6l23.1,6.2c0.3,0.1,0.6,0.3,0.8,0.6
	c0.2,0.3,0.3,0.6,0.3,0.9v27.8c0,0,11.2,5.7,14.4-3.1v-30c0-2.5-0.7-4.8-2.1-6.9c-1.4-2-3.3-3.6-5.6-4.5l-24-9.5L175,262.3z"/>
<path class="st4" d="M185.1,289.7l0.9-9.2c0,0-7.4-2.5-8.6-6c-0.4,3.6,4.6,6.8,5.9,7.6C183.8,284.9,185.1,289.7,185.1,289.7z"/>
<path class="st4" d="M176.9,218.2c0,0,0.2-4.4,1.7-4.4c1.2,0,7.3,1.7,9.7,2.4c0.6,0.2,1.2,0.6,1.6,1.2c0.9,1.4,1.5,3,1.6,4.7
	L176.9,218.2z"/>
<path class="st19" d="M203.9,233.3c0,0,6.8-7,7.8-6.4c1.2,0.8-0.2,3.4-1.3,4.6l5.4-3.5c0.2-0.1,0.4-0.2,0.6-0.2c0.2,0,0.4,0,0.6,0
	c0.2,0,0.4,0.1,0.5,0.3c0.2,0.1,0.3,0.3,0.4,0.5c1.5,2.7,3.1,9.1-11.2,13.4L203.9,233.3z"/>
<path class="st18" d="M208.6,242.7c0,0-3.6,1.6-8.2,3.7c-7.7,3.4-18.4,7.9-20.4,7.6c-5.1-0.8-10.2-2-15.2-3.6l1-13.9l14.8,4.4
	l22.2-8.8l0.9-0.4C210,234.1,208.6,242.7,208.6,242.7z"/>
<path class="st4" d="M175,215.9l-5.5-1.5c-0.9-0.2-1.8-0.3-2.7-0.1c-0.9,0.2-1.8,0.6-2.5,1.1c-0.7,0.6-1.3,1.3-1.7,2.2
	c-0.4,0.8-0.6,1.8-0.6,2.7v2c0,2.6,0.6,5.1,1.7,7.4c1.1,2.3,2.8,4.3,4.8,5.9l6.4,4.8L175,215.9z"/>
<path class="st18" d="M198.7,254.1l4.3,19.6c0,0-12,6.1-25,2.2c-13-3.8-14.5-7.1-14.5-7.1l1.3-18.5l1-13.9l1.2-16.2
	c0.1-0.8,0.3-1.6,0.6-2.2c0.4-0.7,0.9-1.3,1.5-1.8c0.6-0.5,1.4-0.8,2.1-0.9c0.8-0.2,1.6-0.1,2.3,0l18.2,4.6c3.2,0.8,6.1,2.7,8.1,5.4
	c2,2.7,3.1,5.9,3.1,9.3l-2.6,11.8L198.7,254.1z"/>
<path class="st19" d="M207.4,277.4c0,0,7.1,6.5,6.7,7.6c-0.5,1.1-3.4-0.1-4.5-1.1l3.7,5.3c0.1,0.2,0.2,0.4,0.2,0.5
	c0,0.2,0,0.4,0,0.6c0,0.2-0.1,0.4-0.2,0.6c-0.1,0.2-0.3,0.3-0.4,0.4c-2.6,1.7-8.8,3.7-13.7-10.7L207.4,277.4z"/>
<path class="st4" d="M194.6,221c0,0-6.6,12.8-8.7,33.1c-0.3,3.2,12.6,28.5,12.6,28.5s8.6,1,10.5-5.5l-10.2-23l4.3-18.6
	c0.4-1.6,0.4-3.3-0.1-4.9C202,227.4,199.8,222.5,194.6,221z"/>
<path class="st21" d="M329.3,59.8l9.2,5.3v-3.3c0-0.2,0-0.5,0-0.7s0-0.4,0-0.7v-0.1c0.3-4.4,3.6-6.1,7.6-3.7
	c1.8,1.1,3.4,2.6,4.5,4.4c0.9-5.9,5.7-8.1,11.4-4.7c6.4,3.8,11.6,12.9,11.6,20.4v7.1c0,0.6,0.2,1.1,0.4,1.6c0.3,0.5,0.7,0.9,1.1,1.2
	l5.4,3.2c1.2,0.7,2.1,1.7,2.8,2.9c0.7,1.2,1,2.5,1,3.9c0,0.6-0.1,1.1-0.4,1.6c-0.3,0.5-0.7,0.9-1.2,1.2s-1,0.4-1.6,0.4
	c-0.6,0-1.1-0.2-1.6-0.4L329.5,70c-1.3-0.8-2.4-1.9-3.2-3.3c-0.8-1.4-1.2-2.9-1.2-4.4c0-0.5,0.1-1,0.4-1.4s0.6-0.8,1-1
	c0.4-0.3,0.9-0.4,1.4-0.4C328.4,59.4,328.9,59.6,329.3,59.8z"/>
<path class="st21" d="M322.8,16.8l5.9,3.4v-2.1c0-0.2,0-0.3,0-0.4s0-0.3,0-0.4c0.2-2.8,2.3-3.9,4.9-2.4c1.2,0.7,2.1,1.7,2.9,2.8
	c0.6-3.8,3.6-5.2,7.4-3c4.1,2.4,7.5,8.3,7.5,13.2v4.6c0,0.4,0.1,0.7,0.3,1.1c0.2,0.3,0.4,0.6,0.7,0.8l3.5,2.1
	c0.8,0.5,1.4,1.1,1.8,1.9c0.4,0.8,0.7,1.6,0.7,2.5c0,0.4-0.1,0.7-0.3,1.1c-0.2,0.3-0.4,0.6-0.8,0.8c-0.3,0.2-0.7,0.3-1,0.3
	c-0.4,0-0.7-0.1-1-0.3l-32.3-19c-0.9-0.5-1.6-1.2-2.1-2.1c-0.5-0.9-0.8-1.9-0.8-2.9c0-0.3,0.1-0.7,0.2-0.9c0.2-0.3,0.4-0.5,0.7-0.7
	s0.6-0.3,0.9-0.3C322.2,16.5,322.5,16.6,322.8,16.8z"/>
</svg>
