<svg width="1440" height="800" viewBox="0 0 1440 800" fill="none" xmlns="http://www.w3.org/2000/svg">
<path d="M113.283 13.7023L198.407 60.87V155.205L113.283 202.373L28.1581 155.205V60.87L113.283 13.7023Z" fill="#607299"/>
<path d="M30.6581 62.3429L113.283 16.5604L195.907 62.3429V153.732L113.283 199.515L30.6581 153.733V62.3429Z" stroke="white" stroke-opacity="0.34" stroke-width="5"/>
<path d="M236.838 37.5065L279.401 61.0903V108.258L236.838 131.842L194.276 108.258V61.0903L236.838 37.5065Z" fill="#607299"/>
<path d="M196.776 62.5632L236.838 40.3646L276.901 62.5632V106.785L236.838 128.984L196.776 106.785V62.5632Z" stroke="white" stroke-opacity="0.34" stroke-width="5"/>
<path d="M196.419 61.3108L238.981 84.8946V132.062L196.419 155.646L153.856 132.062V84.8946L196.419 61.3108Z" fill="#607299"/>
<path d="M156.356 86.3675L196.419 64.1689L236.481 86.3675V130.589L196.419 152.788L156.356 130.589V86.3675Z" stroke="white" stroke-opacity="0.34" stroke-width="5"/>
<path d="M224.437 256.153L262.623 277.312V319.631L224.437 340.79L186.25 319.631V277.312L224.437 256.153Z" fill="#93A5C9"/>
<path d="M188.75 278.785L224.437 259.011L260.123 278.785V318.158L224.437 337.932L188.75 318.158V278.785Z" stroke="white" stroke-opacity="0.34" stroke-width="5"/>
<path d="M224.437 138.013L262.623 159.173V201.491L224.437 222.651L186.25 201.491V159.173L224.437 138.013Z" fill="#607299"/>
<path d="M188.75 160.646L224.437 140.872L260.123 160.646V200.019L224.437 219.793L188.75 200.019V160.646Z" stroke="white" stroke-opacity="0.34" stroke-width="5"/>
<path d="M30.1467 152.12L72.709 175.704V222.871L30.1467 246.455L-12.4156 222.871V175.704L30.1467 152.12Z" fill="#607299"/>
<path d="M-9.91559 177.176L30.1467 154.978L70.209 177.176V221.398L30.1467 243.597L-9.91559 221.398V177.176Z" stroke="white" stroke-opacity="0.34" stroke-width="5"/>
<path d="M71.4851 220.006L114.047 243.59V290.757L71.4851 314.341L28.9228 290.757V243.59L71.4851 220.006Z" fill="#607299"/>
<path d="M31.4228 245.063L71.4851 222.864L111.547 245.063V289.284L71.4851 311.483L31.4228 289.284V245.063Z" stroke="white" stroke-opacity="0.34" stroke-width="5"/>
<path d="M112.823 287.01L155.386 310.594V357.762L112.823 381.346L70.2612 357.762V310.594L112.823 287.01Z" fill="#93A5C9"/>
<path d="M72.7612 312.067L112.823 289.869L152.886 312.067V356.289L112.823 378.488L72.7612 356.289V312.067Z" stroke="white" stroke-opacity="0.34" stroke-width="5"/>
<path d="M71.4851 353.133L114.047 376.717V423.885L71.4851 447.469L28.9228 423.885V376.717L71.4851 353.133Z" fill="#93A5C9"/>
<path d="M31.4228 378.19L71.4851 355.991L111.547 378.19V422.412L71.4851 444.611L31.4228 422.412V378.19Z" stroke="white" stroke-opacity="0.34" stroke-width="5"/>
<path d="M31.5248 557.674L73.6893 581.037V627.764L31.5248 651.127L-10.6397 627.764V581.037L31.5248 557.674Z" fill="#607299"/>
<path d="M-8.13973 582.51L31.5248 560.532L71.1893 582.51V626.291L31.5248 648.269L-8.13973 626.291V582.51Z" stroke="white" stroke-opacity="0.34" stroke-width="5"/>
<path d="M71.9444 490.669L114.109 514.032V560.759L71.9444 584.123L29.7799 560.759V514.032L71.9444 490.669Z" fill="#607299"/>
<path d="M32.2799 515.505L71.9444 493.527L111.609 515.505V559.286L71.9444 581.265L32.2799 559.286V515.505Z" stroke="white" stroke-opacity="0.34" stroke-width="5"/>
<path d="M359.016 13.7023L401.578 37.2861V84.4538L359.016 108.038L316.454 84.4538V37.2861L359.016 13.7023Z" fill="#607299"/>
<path d="M318.954 38.759L359.016 16.5604L399.078 38.759V82.9809L359.016 105.18L318.954 82.9809V38.759Z" stroke="white" stroke-opacity="0.34" stroke-width="5"/>
<path d="M317.678 81.5885L360.24 105.172V152.34L317.678 175.924L275.115 152.34V105.172L317.678 81.5885Z" fill="#607299"/>
<path d="M277.615 106.645L317.678 84.4466L357.74 106.645V150.867L317.678 173.066L277.615 150.867V106.645Z" stroke="white" stroke-opacity="0.34" stroke-width="5"/>
<path d="M278.177 13.7023L320.739 37.2861V84.4538L278.177 108.038L235.614 84.4538V37.2861L278.177 13.7023Z" fill="#607299"/>
<path d="M238.114 38.759L278.177 16.5604L318.239 38.759V82.9809L278.177 105.18L238.114 82.9809V38.759Z" stroke="white" stroke-opacity="0.34" stroke-width="5"/>
<path d="M151.865 138.013L190.052 159.173V201.491L151.865 222.651L113.679 201.491V159.173L151.865 138.013Z" fill="#607299"/>
<path d="M116.179 160.646L151.865 140.872L187.552 160.646V200.019L151.865 219.793L116.179 200.019V160.646Z" stroke="white" stroke-opacity="0.34" stroke-width="5"/>
<path d="M115.12 788.663L200.245 741.496V647.16L115.12 599.992L29.9955 647.16V741.496L115.12 788.663Z" fill="#607299"/>
<path d="M32.4955 740.023L115.12 785.805L197.745 740.023V648.633L115.12 602.851L32.4955 648.633V740.023Z" stroke="white" stroke-opacity="0.34" stroke-width="5"/>
<path d="M280.014 788.663L322.576 765.079V717.912L280.014 694.328L237.452 717.912V765.079L280.014 788.663Z" fill="#607299"/>
<path d="M239.952 763.607L280.014 785.805L320.076 763.607V719.385L280.014 697.186L239.952 719.385V763.607Z" stroke="white" stroke-opacity="0.34" stroke-width="5"/>
<path d="M360.853 788.663L403.415 765.079V717.912L360.853 694.328L318.291 717.912V765.079L360.853 788.663Z" fill="#607299"/>
<path d="M320.791 763.607L360.853 785.805L400.915 763.607V719.385L360.853 697.186L320.791 719.385V763.607Z" stroke="white" stroke-opacity="0.34" stroke-width="5"/>
<path d="M319.515 720.777L362.077 697.193V650.025L319.515 626.442L276.953 650.025V697.193L319.515 720.777Z" fill="#607299"/>
<path d="M279.453 695.72L319.515 717.919L359.577 695.72V651.498L319.515 629.3L279.453 651.498V695.72Z" stroke="white" stroke-opacity="0.34" stroke-width="5"/>
<path d="M238.675 764.859L281.238 741.275V694.107L238.675 670.524L196.113 694.107V741.275L238.675 764.859Z" fill="#607299"/>
<path d="M198.613 739.802L238.675 762.001L278.738 739.802V695.58L238.675 673.382L198.613 695.58V739.802Z" stroke="white" stroke-opacity="0.34" stroke-width="5"/>
<path d="M198.256 741.055L240.818 717.471V670.303L198.256 646.719L155.694 670.303V717.471L198.256 741.055Z" fill="#607299"/>
<path d="M158.194 715.998L198.256 738.197L238.318 715.998V671.776L198.256 649.577L158.194 671.776V715.998Z" stroke="white" stroke-opacity="0.34" stroke-width="5"/>
<path d="M153.702 664.352L191.889 643.193V600.874L153.702 579.715L115.516 600.874V643.193L153.702 664.352Z" fill="#607299"/>
<path d="M118.016 641.72L153.702 661.494L189.389 641.72V602.347L153.702 582.573L118.016 602.347V641.72Z" stroke="white" stroke-opacity="0.34" stroke-width="5"/>
<path d="M226.274 546.212L264.461 525.053V482.734L226.274 461.575L188.087 482.734V525.053L226.274 546.212Z" fill="#93A5C9"/>
<path d="M190.587 523.58L226.274 543.354L261.961 523.58V484.207L226.274 464.433L190.587 484.207V523.58Z" stroke="white" stroke-opacity="0.34" stroke-width="5"/>
<path d="M226.274 664.352L264.461 643.193V600.874L226.274 579.715L188.087 600.874V643.193L226.274 664.352Z" fill="#607299"/>
<path d="M190.587 641.72L226.274 661.494L261.961 641.72V602.347L226.274 582.573L190.587 602.347V641.72Z" stroke="white" stroke-opacity="0.34" stroke-width="5"/>
<path d="M190.447 605.282L228.634 584.123V541.804L190.447 520.645L152.261 541.804V584.123L190.447 605.282Z" fill="#93A5C9"/>
<path d="M154.761 582.65L190.447 602.424L226.134 582.65V543.277L190.447 523.503L154.761 543.277V582.65Z" stroke="white" stroke-opacity="0.34" stroke-width="5"/>
<path d="M112.823 422.783L155.386 446.367V493.534L112.823 517.118L70.2612 493.534V446.367L112.823 422.783Z" fill="#93A5C9"/>
<path d="M72.7612 447.84L112.823 425.641L152.886 447.84V492.062L112.823 514.26L72.7612 492.062V447.84Z" stroke="white" stroke-opacity="0.34" stroke-width="5"/>
<path d="M188.61 197.083L226.797 218.243V260.561L188.61 281.721L150.424 260.561V218.243L188.61 197.083Z" fill="#93A5C9"/>
<path d="M152.924 219.715L188.61 199.941L224.297 219.715V259.088L188.61 278.862L152.924 259.088V219.715Z" stroke="white" stroke-opacity="0.34" stroke-width="5"/>
</svg>
