<svg width="404" height="776" viewBox="0 0 404 776" fill="none" xmlns="http://www.w3.org/2000/svg">
<path d="M107.283 0.702148L192.407 47.8699V142.205L107.283 189.373L22.1581 142.205V47.8699L107.283 0.702148Z" fill="#486DB3"/>
<path d="M24.6581 49.3427L107.283 3.56028L189.907 49.3427V140.732L107.283 186.515L24.6581 140.732V49.3427Z" stroke="white" stroke-opacity="0.34" stroke-width="5"/>
<path d="M230.838 24.5068L273.4 48.0907V95.2584L230.838 118.842L188.276 95.2584V48.0907L230.838 24.5068Z" fill="#486DB3"/>
<path d="M190.776 49.5636L230.838 27.365L270.9 49.5636V93.7855L230.838 115.984L190.776 93.7855V49.5636Z" stroke="white" stroke-opacity="0.34" stroke-width="5"/>
<path d="M190.419 48.3105L232.981 71.8944V119.062L190.419 142.646L147.856 119.062V71.8944L190.419 48.3105Z" fill="#486DB3"/>
<path d="M150.356 73.3673L190.419 51.1687L230.481 73.3673V117.589L190.419 139.788L150.356 117.589V73.3673Z" stroke="white" stroke-opacity="0.34" stroke-width="5"/>
<path d="M218.437 243.153L256.624 264.312V306.631L218.437 327.79L180.25 306.631V264.312L218.437 243.153Z" fill="#5AC7D0" fill-opacity="0.4"/>
<path d="M182.75 265.785L218.437 246.011L254.124 265.785V305.158L218.437 324.932L182.75 305.158V265.785Z" stroke="white" stroke-opacity="0.34" stroke-width="5"/>
<path d="M218.437 125.014L256.624 146.173V188.492L218.437 209.651L180.25 188.492V146.173L218.437 125.014Z" fill="#486DB3"/>
<path d="M182.75 147.646L218.437 127.872L254.124 147.646V187.019L218.437 206.793L182.75 187.019V147.646Z" stroke="white" stroke-opacity="0.34" stroke-width="5"/>
<path d="M24.1467 139.12L66.709 162.704V209.872L24.1467 233.456L-18.4156 209.872V162.704L24.1467 139.12Z" fill="#486DB3"/>
<path d="M-15.9156 164.177L24.1467 141.978L64.209 164.177V208.399L24.1467 230.597L-15.9156 208.399V164.177Z" stroke="white" stroke-opacity="0.34" stroke-width="5"/>
<path d="M65.4851 207.006L108.047 230.59V277.757L65.4851 301.341L22.9228 277.757V230.59L65.4851 207.006Z" fill="#486DB3"/>
<path d="M25.4228 232.063L65.4851 209.864L105.547 232.063V276.285L65.4851 298.483L25.4228 276.285V232.063Z" stroke="white" stroke-opacity="0.34" stroke-width="5"/>
<path d="M106.823 274.01L149.386 297.594V344.762L106.823 368.346L64.2612 344.762V297.594L106.823 274.01Z" fill="#5AC7D0" fill-opacity="0.4"/>
<path d="M66.7612 299.067L106.823 276.868L146.886 299.067V343.289L106.823 365.488L66.7612 343.289V299.067Z" stroke="white" stroke-opacity="0.34" stroke-width="5"/>
<path d="M65.4851 340.133L108.047 363.717V410.885L65.4851 434.469L22.9228 410.885V363.717L65.4851 340.133Z" fill="#5AC7D0" fill-opacity="0.4"/>
<path d="M25.4228 365.19L65.4851 342.991L105.547 365.19V409.412L65.4851 431.611L25.4228 409.412V365.19Z" stroke="white" stroke-opacity="0.34" stroke-width="5"/>
<path d="M25.5248 544.674L67.6893 568.037V614.764L25.5248 638.128L-16.6397 614.764V568.037L25.5248 544.674Z" fill="#486DB3"/>
<path d="M-14.1397 569.51L25.5248 547.532L65.1893 569.51V613.291L25.5248 635.269L-14.1397 613.291V569.51Z" stroke="white" stroke-opacity="0.34" stroke-width="5"/>
<path d="M65.9442 477.669L108.109 501.032V547.759L65.9442 571.123L23.7797 547.759V501.032L65.9442 477.669Z" fill="#486DB3"/>
<path d="M26.2797 502.505L65.9442 480.527L105.609 502.505V546.286L65.9442 568.265L26.2797 546.286V502.505Z" stroke="white" stroke-opacity="0.34" stroke-width="5"/>
<path d="M353.016 0.702148L395.579 24.286V71.4537L353.016 95.0376L310.454 71.4537V24.286L353.016 0.702148Z" fill="#486DB3"/>
<path d="M312.954 25.7589L353.016 3.56028L393.079 25.7589V69.9808L353.016 92.1794L312.954 69.9808V25.7589Z" stroke="white" stroke-opacity="0.34" stroke-width="5"/>
<path d="M311.678 68.5879L354.24 92.1717V139.339L311.678 162.923L269.116 139.339V92.1717L311.678 68.5879Z" fill="#486DB3"/>
<path d="M271.616 93.6446L311.678 71.446L351.74 93.6446V137.867L311.678 160.065L271.616 137.867V93.6446Z" stroke="white" stroke-opacity="0.34" stroke-width="5"/>
<path d="M272.177 0.702148L314.739 24.286V71.4537L272.177 95.0376L229.615 71.4537V24.286L272.177 0.702148Z" fill="#486DB3"/>
<path d="M232.115 25.7589L272.177 3.56028L312.239 25.7589V69.9808L272.177 92.1794L232.115 69.9808V25.7589Z" stroke="white" stroke-opacity="0.34" stroke-width="5"/>
<path d="M145.865 125.014L184.052 146.173V188.492L145.865 209.651L107.679 188.492V146.173L145.865 125.014Z" fill="#486DB3"/>
<path d="M110.179 147.646L145.865 127.872L181.552 147.646V187.019L145.865 206.793L110.179 187.019V147.646Z" stroke="white" stroke-opacity="0.34" stroke-width="5"/>
<path d="M109.12 775.663L194.245 728.495V634.16L109.12 586.992L23.9955 634.16V728.495L109.12 775.663Z" fill="#486DB3"/>
<path d="M26.4955 727.023L109.12 772.805L191.745 727.022V635.633L109.12 589.85L26.4955 635.633V727.023Z" stroke="white" stroke-opacity="0.34" stroke-width="5"/>
<path d="M274.014 775.663L316.576 752.079V704.912L274.014 681.328L231.452 704.912V752.079L274.014 775.663Z" fill="#486DB3"/>
<path d="M233.952 750.606L274.014 772.805L314.076 750.606V706.384L274.014 684.186L233.952 706.384V750.606Z" stroke="white" stroke-opacity="0.34" stroke-width="5"/>
<path d="M354.853 775.663L397.415 752.079V704.912L354.853 681.328L312.291 704.912V752.079L354.853 775.663Z" fill="#486DB3"/>
<path d="M314.791 750.606L354.853 772.805L394.915 750.606V706.384L354.853 684.186L314.791 706.384V750.606Z" stroke="white" stroke-opacity="0.34" stroke-width="5"/>
<path d="M313.515 707.777L356.077 684.193V637.025L313.515 613.441L270.953 637.025V684.193L313.515 707.777Z" fill="#486DB3"/>
<path d="M273.453 682.72L313.515 704.919L353.577 682.72V638.498L313.515 616.3L273.453 638.498V682.72Z" stroke="white" stroke-opacity="0.34" stroke-width="5"/>
<path d="M232.675 751.858L275.238 728.275V681.107L232.675 657.523L190.113 681.107V728.275L232.675 751.858Z" fill="#486DB3"/>
<path d="M192.613 726.802L232.675 749L272.738 726.802V682.58L232.675 660.381L192.613 682.58V726.802Z" stroke="white" stroke-opacity="0.34" stroke-width="5"/>
<path d="M192.256 728.054L234.818 704.47V657.303L192.256 633.719L149.694 657.303V704.47L192.256 728.054Z" fill="#486DB3"/>
<path d="M152.194 702.997L192.256 725.196L232.318 702.997V658.776L192.256 636.577L152.194 658.776V702.997Z" stroke="white" stroke-opacity="0.34" stroke-width="5"/>
<path d="M147.703 651.352L185.889 630.192V587.874L147.703 566.714L109.516 587.874V630.192L147.703 651.352Z" fill="#486DB3"/>
<path d="M112.016 628.719L147.703 648.493L183.389 628.719V589.346L147.703 569.572L112.016 589.346V628.719Z" stroke="white" stroke-opacity="0.34" stroke-width="5"/>
<path d="M220.274 533.212L258.461 512.053V469.734L220.274 448.575L182.087 469.734V512.053L220.274 533.212Z" fill="#5AC7D0" fill-opacity="0.4"/>
<path d="M184.587 510.58L220.274 530.354L255.961 510.58V471.207L220.274 451.433L184.587 471.207V510.58Z" stroke="white" stroke-opacity="0.34" stroke-width="5"/>
<path d="M220.274 651.352L258.461 630.192V587.874L220.274 566.714L182.087 587.874V630.192L220.274 651.352Z" fill="#486DB3"/>
<path d="M184.587 628.719L220.274 648.493L255.961 628.719V589.346L220.274 569.572L184.587 589.346V628.719Z" stroke="white" stroke-opacity="0.34" stroke-width="5"/>
<path d="M184.448 592.282L222.634 571.122V528.804L184.448 507.644L146.261 528.804V571.122L184.448 592.282Z" fill="#5AC7D0" fill-opacity="0.4"/>
<path d="M148.761 569.65L184.448 589.424L220.134 569.65V530.277L184.448 510.502L148.761 530.277V569.65Z" stroke="white" stroke-opacity="0.34" stroke-width="5"/>
<path d="M106.823 409.783L149.386 433.367V480.534L106.823 504.118L64.2612 480.534V433.367L106.823 409.783Z" fill="#5AC7D0" fill-opacity="0.4"/>
<path d="M66.7612 434.839L106.823 412.641L146.886 434.839V479.061L106.823 501.26L66.7612 479.061V434.839Z" stroke="white" stroke-opacity="0.34" stroke-width="5"/>
<path d="M182.61 184.083L220.797 205.242V247.561L182.61 268.72L144.424 247.561V205.242L182.61 184.083Z" fill="#5AC7D0" fill-opacity="0.4"/>
<path d="M146.924 206.715L182.61 186.941L218.297 206.715V246.088L182.61 265.862L146.924 246.088V206.715Z" stroke="white" stroke-opacity="0.34" stroke-width="5"/>
</svg>
