<?xml version="1.0" encoding="utf-8"?>
<!-- Generator: Adobe Illustrator 26.0.1, SVG Export Plug-In . SVG Version: 6.00 Build 0)  -->
<svg version="1.1" id="Layer_2_00000072974446191834351210000000723486624463883660_"
	 xmlns="http://www.w3.org/2000/svg" xmlns:xlink="http://www.w3.org/1999/xlink" x="0px" y="0px" viewBox="0 0 107 107"
	 style="enable-background:new 0 0 107 107;" xml:space="preserve">
<style type="text/css">
	.st0{opacity:0.5;fill:#4A6EB5;stroke:#000000;stroke-width:0.25;stroke-miterlimit:10;}
	.st1{opacity:0.5;}
	.st2{fill:#5CC6CF;stroke:#000000;stroke-width:0.25;stroke-miterlimit:10;}
	.st3{fill:#7F7A6E;stroke:#000000;stroke-width:0.25;stroke-miterlimit:10;}
</style>
<path class="st0" d="M55.3,14.5c0,0-42.8-0.2-39.1,44.3H51V73h8.8V58.4h22.8c0,0-2.5,20.7-26.8,23.2l-0.2,10.9
	c0,0,39.8-0.5,38.3-44.1h-34l-0.1-5.6L51.2,43v5.2H26.9c0,0,4.8-23.2,28.7-23.2L55.3,14.5z"/>
<g class="st1">
	<path class="st2" d="M95.1,37c0,0-9.5-25.8-39.7-26.5c0,0-41.5-1.3-44.1,43.7c0,0-1.2,37.9,41.9,42.5c0,0,31.5,1,41.9-27.5H107
		c0,0-10.3,37.8-52.7,37.8c0,0-50.2,2-54.3-53.3C0,53.7,0,1.5,56,0c0,0,35.6-2.3,51,36.9L95.1,37L95.1,37z"/>
	<circle class="st3" cx="55.6" cy="34.5" r="3.9"/>
</g>
</svg>
